STARTFONT 2.1
FONT -iotype.io-Monomacs-Regular-R-Normal--13-100-96-96-P-68-ISO10646-1
SIZE 10 96 96
FONTBOUNDINGBOX 13 14 0 -3
COMMENT "Generated by fontforge, http://fontforge.sourceforge.net"
COMMENT "(c) 2018 IOPTYPE"
STARTPROPERTIES 34
FOUNDRY "iotype.io"
FAMILY_NAME "Monomacs"
WEIGHT_NAME "Regular"
SLANT "R"
SETWIDTH_NAME "Normal"
ADD_STYLE_NAME ""
PIXEL_SIZE 13
POINT_SIZE 100
RESOLUTION_X 96
RESOLUTION_Y 96
SPACING "P"
AVERAGE_WIDTH 68
CHARSET_REGISTRY "ISO10646"
CHARSET_ENCODING "1"
FONTNAME_REGISTRY ""
CHARSET_COLLECTIONS "ISO8859-2 ISO8859-5 ISO8859-7 ISO8859-9 ISO8859-8 ISO8859-4 ISO10646-1"
FONT_NAME "Monomacs"
FACE_NAME "Monomacs"
COPYRIGHT "(c) 2018 Bradley Jones. All rights reserved."
FONT_VERSION "002.000"
FONT_ASCENT 10
FONT_DESCENT 3
UNDERLINE_POSITION -1
UNDERLINE_THICKNESS 1
X_HEIGHT 5
CAP_HEIGHT 7
RAW_ASCENT 800
RAW_DESCENT 200
NORM_SPACE 7
RELATIVE_WEIGHT 40
RELATIVE_SETWIDTH 50
FIGURE_WIDTH 7
AVG_LOWERCASE_WIDTH 70
AVG_UPPERCASE_WIDTH 70
ENDPROPERTIES
CHARS 1178
STARTCHAR uni0000
ENCODING 0
SWIDTH 1000 0
DWIDTH 7 0
BBX 5 8 1 0
BITMAP
D8
88
00
88
88
00
88
D8
ENDCHAR
STARTCHAR uni000D
ENCODING 13
SWIDTH 352 0
DWIDTH 5 0
BBX 1 1 0 0
BITMAP
00
ENDCHAR
STARTCHAR space
ENCODING 32
SWIDTH 538 0
DWIDTH 7 0
BBX 1 1 6 3
BITMAP
00
ENDCHAR
STARTCHAR exclam
ENCODING 33
SWIDTH 538 0
DWIDTH 7 0
BBX 1 8 3 0
BITMAP
80
80
80
80
80
80
00
80
ENDCHAR
STARTCHAR quotedbl
ENCODING 34
SWIDTH 1000 0
DWIDTH 7 0
BBX 3 3 2 6
BITMAP
A0
A0
A0
ENDCHAR
STARTCHAR numbersign
ENCODING 35
SWIDTH 1000 0
DWIDTH 7 0
BBX 7 8 0 0
BITMAP
14
14
7E
28
28
FC
50
50
ENDCHAR
STARTCHAR dollar
ENCODING 36
SWIDTH 1000 0
DWIDTH 7 0
BBX 5 9 1 -1
BITMAP
20
70
A8
A0
70
28
A8
70
20
ENDCHAR
STARTCHAR percent
ENCODING 37
SWIDTH 1000 0
DWIDTH 7 0
BBX 7 9 0 0
BITMAP
48
A8
A8
50
10
14
2A
2A
24
ENDCHAR
STARTCHAR ampersand
ENCODING 38
SWIDTH 1000 0
DWIDTH 7 0
BBX 7 8 0 0
BITMAP
60
90
90
42
A4
90
88
76
ENDCHAR
STARTCHAR quotesingle
ENCODING 39
SWIDTH 1000 0
DWIDTH 7 0
BBX 1 3 3 6
BITMAP
80
80
80
ENDCHAR
STARTCHAR parenleft
ENCODING 40
SWIDTH 1000 0
DWIDTH 7 0
BBX 3 11 2 -2
BITMAP
20
40
40
80
80
80
80
80
40
40
20
ENDCHAR
STARTCHAR parenright
ENCODING 41
SWIDTH 1000 0
DWIDTH 7 0
BBX 3 11 2 -2
BITMAP
80
40
40
20
20
20
20
20
40
40
80
ENDCHAR
STARTCHAR asterisk
ENCODING 42
SWIDTH 1000 0
DWIDTH 7 0
BBX 5 5 1 1
BITMAP
20
A8
70
A8
20
ENDCHAR
STARTCHAR plus
ENCODING 43
SWIDTH 1000 0
DWIDTH 7 0
BBX 5 5 1 1
BITMAP
20
20
F8
20
20
ENDCHAR
STARTCHAR comma
ENCODING 44
SWIDTH 1000 0
DWIDTH 7 0
BBX 2 4 2 -2
BITMAP
40
40
40
80
ENDCHAR
STARTCHAR hyphen
ENCODING 45
SWIDTH 1000 0
DWIDTH 7 0
BBX 3 1 2 3
BITMAP
E0
ENDCHAR
STARTCHAR period
ENCODING 46
SWIDTH 1000 0
DWIDTH 7 0
BBX 1 2 3 0
BITMAP
80
80
ENDCHAR
STARTCHAR slash
ENCODING 47
SWIDTH 1000 0
DWIDTH 7 0
BBX 3 9 2 0
BITMAP
20
20
20
40
40
40
80
80
80
ENDCHAR
STARTCHAR zero
ENCODING 48
SWIDTH 1000 0
DWIDTH 7 0
BBX 5 8 1 0
BITMAP
70
88
88
A8
A8
88
88
70
ENDCHAR
STARTCHAR one
ENCODING 49
SWIDTH 1000 0
DWIDTH 7 0
BBX 5 8 1 0
BITMAP
20
E0
20
20
20
20
20
F8
ENDCHAR
STARTCHAR two
ENCODING 50
SWIDTH 1000 0
DWIDTH 7 0
BBX 5 8 1 0
BITMAP
70
88
08
10
20
40
80
F8
ENDCHAR
STARTCHAR three
ENCODING 51
SWIDTH 1000 0
DWIDTH 7 0
BBX 5 8 1 0
BITMAP
70
88
08
30
08
08
88
70
ENDCHAR
STARTCHAR four
ENCODING 52
SWIDTH 1000 0
DWIDTH 7 0
BBX 5 8 1 0
BITMAP
08
18
28
48
88
F8
08
08
ENDCHAR
STARTCHAR five
ENCODING 53
SWIDTH 1000 0
DWIDTH 7 0
BBX 5 8 1 0
BITMAP
F8
80
80
F0
08
08
88
70
ENDCHAR
STARTCHAR six
ENCODING 54
SWIDTH 1000 0
DWIDTH 7 0
BBX 5 8 1 0
BITMAP
30
40
80
F0
88
88
88
70
ENDCHAR
STARTCHAR seven
ENCODING 55
SWIDTH 1000 0
DWIDTH 7 0
BBX 5 8 1 0
BITMAP
F8
08
10
10
20
20
20
20
ENDCHAR
STARTCHAR eight
ENCODING 56
SWIDTH 1000 0
DWIDTH 7 0
BBX 5 8 1 0
BITMAP
70
88
88
70
88
88
88
70
ENDCHAR
STARTCHAR nine
ENCODING 57
SWIDTH 1000 0
DWIDTH 7 0
BBX 5 8 1 0
BITMAP
70
88
88
88
78
08
10
60
ENDCHAR
STARTCHAR colon
ENCODING 58
SWIDTH 1000 0
DWIDTH 7 0
BBX 1 6 3 0
BITMAP
80
80
00
00
80
80
ENDCHAR
STARTCHAR semicolon
ENCODING 59
SWIDTH 1000 0
DWIDTH 7 0
BBX 2 7 2 -1
BITMAP
40
40
00
00
40
40
80
ENDCHAR
STARTCHAR less
ENCODING 60
SWIDTH 1000 0
DWIDTH 7 0
BBX 5 5 1 1
BITMAP
18
60
80
60
18
ENDCHAR
STARTCHAR equal
ENCODING 61
SWIDTH 1000 0
DWIDTH 7 0
BBX 5 3 1 2
BITMAP
F8
00
F8
ENDCHAR
STARTCHAR greater
ENCODING 62
SWIDTH 538 0
DWIDTH 7 0
BBX 5 5 1 1
BITMAP
C0
30
08
30
C0
ENDCHAR
STARTCHAR question
ENCODING 63
SWIDTH 1000 0
DWIDTH 7 0
BBX 5 8 1 0
BITMAP
70
88
08
10
20
20
00
20
ENDCHAR
STARTCHAR at
ENCODING 64
SWIDTH 1000 0
DWIDTH 7 0
BBX 7 9 0 -1
BITMAP
38
44
9A
AA
AA
AA
94
40
3C
ENDCHAR
STARTCHAR A
ENCODING 65
SWIDTH 1000 0
DWIDTH 7 0
BBX 5 8 1 0
BITMAP
70
88
88
88
F8
88
88
88
ENDCHAR
STARTCHAR B
ENCODING 66
SWIDTH 1000 0
DWIDTH 7 0
BBX 5 8 1 0
BITMAP
F0
88
88
F0
88
88
88
F0
ENDCHAR
STARTCHAR C
ENCODING 67
SWIDTH 1000 0
DWIDTH 7 0
BBX 5 8 1 0
BITMAP
70
88
80
80
80
80
88
70
ENDCHAR
STARTCHAR D
ENCODING 68
SWIDTH 1000 0
DWIDTH 7 0
BBX 5 8 1 0
BITMAP
F0
88
88
88
88
88
88
F0
ENDCHAR
STARTCHAR E
ENCODING 69
SWIDTH 1000 0
DWIDTH 7 0
BBX 5 8 1 0
BITMAP
F8
80
80
F0
80
80
80
F8
ENDCHAR
STARTCHAR F
ENCODING 70
SWIDTH 1000 0
DWIDTH 7 0
BBX 5 8 1 0
BITMAP
F8
80
80
F0
80
80
80
80
ENDCHAR
STARTCHAR G
ENCODING 71
SWIDTH 1000 0
DWIDTH 7 0
BBX 5 8 1 0
BITMAP
70
88
80
80
98
88
88
70
ENDCHAR
STARTCHAR H
ENCODING 72
SWIDTH 1000 0
DWIDTH 7 0
BBX 5 8 1 0
BITMAP
88
88
88
F8
88
88
88
88
ENDCHAR
STARTCHAR I
ENCODING 73
SWIDTH 1000 0
DWIDTH 7 0
BBX 3 8 2 0
BITMAP
E0
40
40
40
40
40
40
E0
ENDCHAR
STARTCHAR J
ENCODING 74
SWIDTH 1000 0
DWIDTH 7 0
BBX 5 8 1 0
BITMAP
38
10
10
10
10
10
90
60
ENDCHAR
STARTCHAR K
ENCODING 75
SWIDTH 1000 0
DWIDTH 7 0
BBX 5 8 1 0
BITMAP
88
90
A0
C0
A0
90
88
88
ENDCHAR
STARTCHAR L
ENCODING 76
SWIDTH 1000 0
DWIDTH 7 0
BBX 5 8 1 0
BITMAP
80
80
80
80
80
80
80
F8
ENDCHAR
STARTCHAR M
ENCODING 77
SWIDTH 1000 0
DWIDTH 7 0
BBX 5 8 1 0
BITMAP
88
D8
A8
A8
88
88
88
88
ENDCHAR
STARTCHAR N
ENCODING 78
SWIDTH 1000 0
DWIDTH 7 0
BBX 5 8 1 0
BITMAP
88
C8
C8
A8
98
98
88
88
ENDCHAR
STARTCHAR O
ENCODING 79
SWIDTH 1000 0
DWIDTH 7 0
BBX 5 8 1 0
BITMAP
70
88
88
88
88
88
88
70
ENDCHAR
STARTCHAR P
ENCODING 80
SWIDTH 1000 0
DWIDTH 7 0
BBX 5 8 1 0
BITMAP
F0
88
88
88
F0
80
80
80
ENDCHAR
STARTCHAR Q
ENCODING 81
SWIDTH 1000 0
DWIDTH 7 0
BBX 5 9 1 -1
BITMAP
70
88
88
88
88
88
A8
70
08
ENDCHAR
STARTCHAR R
ENCODING 82
SWIDTH 1000 0
DWIDTH 7 0
BBX 5 8 1 0
BITMAP
F0
88
88
88
F0
90
88
88
ENDCHAR
STARTCHAR S
ENCODING 83
SWIDTH 1000 0
DWIDTH 7 0
BBX 5 8 1 0
BITMAP
70
88
80
60
10
08
88
70
ENDCHAR
STARTCHAR T
ENCODING 84
SWIDTH 1000 0
DWIDTH 7 0
BBX 5 8 1 0
BITMAP
F8
20
20
20
20
20
20
20
ENDCHAR
STARTCHAR U
ENCODING 85
SWIDTH 1000 0
DWIDTH 7 0
BBX 5 8 1 0
BITMAP
88
88
88
88
88
88
88
70
ENDCHAR
STARTCHAR V
ENCODING 86
SWIDTH 1000 0
DWIDTH 7 0
BBX 5 8 1 0
BITMAP
88
88
88
50
50
50
20
20
ENDCHAR
STARTCHAR W
ENCODING 87
SWIDTH 1000 0
DWIDTH 7 0
BBX 5 8 1 0
BITMAP
88
88
88
88
A8
A8
D8
88
ENDCHAR
STARTCHAR X
ENCODING 88
SWIDTH 1000 0
DWIDTH 7 0
BBX 5 8 1 0
BITMAP
88
88
50
20
20
50
88
88
ENDCHAR
STARTCHAR Y
ENCODING 89
SWIDTH 1000 0
DWIDTH 7 0
BBX 5 8 1 0
BITMAP
88
88
50
50
20
20
20
20
ENDCHAR
STARTCHAR Z
ENCODING 90
SWIDTH 1000 0
DWIDTH 7 0
BBX 5 8 1 0
BITMAP
F8
08
10
20
40
80
80
F8
ENDCHAR
STARTCHAR bracketleft
ENCODING 91
SWIDTH 1000 0
DWIDTH 7 0
BBX 2 9 2 -1
BITMAP
C0
80
80
80
80
80
80
80
C0
ENDCHAR
STARTCHAR backslash
ENCODING 92
SWIDTH 538 0
DWIDTH 7 0
BBX 3 9 2 0
BITMAP
80
80
80
40
40
40
20
20
20
ENDCHAR
STARTCHAR bracketright
ENCODING 93
SWIDTH 1000 0
DWIDTH 7 0
BBX 2 9 3 -1
BITMAP
C0
40
40
40
40
40
40
40
C0
ENDCHAR
STARTCHAR asciicircum
ENCODING 94
SWIDTH 538 0
DWIDTH 7 0
BBX 5 3 1 6
BITMAP
20
50
88
ENDCHAR
STARTCHAR underscore
ENCODING 95
SWIDTH 538 0
DWIDTH 7 0
BBX 5 1 1 -1
BITMAP
F8
ENDCHAR
STARTCHAR grave
ENCODING 96
SWIDTH 538 0
DWIDTH 7 0
BBX 2 2 2 7
BITMAP
80
40
ENDCHAR
STARTCHAR a
ENCODING 97
SWIDTH 538 0
DWIDTH 7 0
BBX 5 6 1 0
BITMAP
70
08
78
88
88
78
ENDCHAR
STARTCHAR b
ENCODING 98
SWIDTH 538 0
DWIDTH 7 0
BBX 5 9 1 0
BITMAP
80
80
80
F0
88
88
88
88
F0
ENDCHAR
STARTCHAR c
ENCODING 99
SWIDTH 538 0
DWIDTH 7 0
BBX 5 6 1 0
BITMAP
70
88
80
80
88
70
ENDCHAR
STARTCHAR d
ENCODING 100
SWIDTH 538 0
DWIDTH 7 0
BBX 5 9 1 0
BITMAP
08
08
08
78
88
88
88
88
78
ENDCHAR
STARTCHAR e
ENCODING 101
SWIDTH 538 0
DWIDTH 7 0
BBX 5 6 1 0
BITMAP
70
88
F8
80
88
70
ENDCHAR
STARTCHAR f
ENCODING 102
SWIDTH 538 0
DWIDTH 7 0
BBX 5 9 1 0
BITMAP
38
40
40
F0
40
40
40
40
40
ENDCHAR
STARTCHAR g
ENCODING 103
SWIDTH 538 0
DWIDTH 7 0
BBX 5 9 1 -3
BITMAP
78
88
88
88
88
78
08
08
70
ENDCHAR
STARTCHAR h
ENCODING 104
SWIDTH 538 0
DWIDTH 7 0
BBX 5 9 1 0
BITMAP
80
80
80
F0
88
88
88
88
88
ENDCHAR
STARTCHAR i
ENCODING 105
SWIDTH 538 0
DWIDTH 7 0
BBX 2 9 2 0
BITMAP
40
40
00
C0
40
40
40
40
40
ENDCHAR
STARTCHAR j
ENCODING 106
SWIDTH 538 0
DWIDTH 7 0
BBX 4 12 0 -3
BITMAP
10
10
00
30
10
10
10
10
10
10
90
60
ENDCHAR
STARTCHAR k
ENCODING 107
SWIDTH 1000 0
DWIDTH 7 0
BBX 5 9 1 0
BITMAP
80
80
80
88
90
A0
E0
90
88
ENDCHAR
STARTCHAR l
ENCODING 108
SWIDTH 1000 0
DWIDTH 7 0
BBX 2 9 2 0
BITMAP
C0
40
40
40
40
40
40
40
40
ENDCHAR
STARTCHAR m
ENCODING 109
SWIDTH 1000 0
DWIDTH 7 0
BBX 5 6 1 0
BITMAP
D0
A8
A8
A8
A8
A8
ENDCHAR
STARTCHAR n
ENCODING 110
SWIDTH 1000 0
DWIDTH 7 0
BBX 5 6 1 0
BITMAP
F0
88
88
88
88
88
ENDCHAR
STARTCHAR o
ENCODING 111
SWIDTH 1000 0
DWIDTH 7 0
BBX 5 6 1 0
BITMAP
70
88
88
88
88
70
ENDCHAR
STARTCHAR p
ENCODING 112
SWIDTH 1000 0
DWIDTH 7 0
BBX 5 9 1 -3
BITMAP
F0
88
88
88
88
F0
80
80
80
ENDCHAR
STARTCHAR q
ENCODING 113
SWIDTH 1000 0
DWIDTH 7 0
BBX 5 9 1 -3
BITMAP
78
88
88
88
88
78
08
08
08
ENDCHAR
STARTCHAR r
ENCODING 114
SWIDTH 1000 0
DWIDTH 7 0
BBX 5 6 1 0
BITMAP
B0
C8
80
80
80
80
ENDCHAR
STARTCHAR s
ENCODING 115
SWIDTH 1000 0
DWIDTH 7 0
BBX 5 6 1 0
BITMAP
78
80
60
10
08
F0
ENDCHAR
STARTCHAR t
ENCODING 116
SWIDTH 1000 0
DWIDTH 7 0
BBX 5 8 1 0
BITMAP
40
40
F8
40
40
40
40
38
ENDCHAR
STARTCHAR u
ENCODING 117
SWIDTH 1000 0
DWIDTH 7 0
BBX 5 6 1 0
BITMAP
88
88
88
88
88
78
ENDCHAR
STARTCHAR v
ENCODING 118
SWIDTH 1000 0
DWIDTH 7 0
BBX 5 6 1 0
BITMAP
88
88
50
50
20
20
ENDCHAR
STARTCHAR w
ENCODING 119
SWIDTH 1000 0
DWIDTH 7 0
BBX 7 6 0 0
BITMAP
82
92
92
AA
44
44
ENDCHAR
STARTCHAR x
ENCODING 120
SWIDTH 1000 0
DWIDTH 7 0
BBX 5 6 1 0
BITMAP
88
50
20
20
50
88
ENDCHAR
STARTCHAR y
ENCODING 121
SWIDTH 1000 0
DWIDTH 7 0
BBX 5 9 1 -3
BITMAP
88
88
88
50
50
20
20
40
80
ENDCHAR
STARTCHAR z
ENCODING 122
SWIDTH 1000 0
DWIDTH 7 0
BBX 5 6 1 0
BITMAP
F8
08
10
20
40
F8
ENDCHAR
STARTCHAR braceleft
ENCODING 123
SWIDTH 1000 0
DWIDTH 7 0
BBX 4 11 1 -2
BITMAP
30
40
40
40
40
80
40
40
40
40
30
ENDCHAR
STARTCHAR bar
ENCODING 124
SWIDTH 1000 0
DWIDTH 7 0
BBX 1 11 3 -2
BITMAP
80
80
80
80
80
80
80
80
80
80
80
ENDCHAR
STARTCHAR braceright
ENCODING 125
SWIDTH 1000 0
DWIDTH 7 0
BBX 4 11 2 -2
BITMAP
C0
20
20
20
20
10
20
20
20
20
C0
ENDCHAR
STARTCHAR asciitilde
ENCODING 126
SWIDTH 1000 0
DWIDTH 7 0
BBX 6 2 1 3
BITMAP
64
98
ENDCHAR
STARTCHAR uni00A0
ENCODING 160
SWIDTH 538 0
DWIDTH 7 0
BBX 1 1 0 0
BITMAP
00
ENDCHAR
STARTCHAR exclamdown
ENCODING 161
SWIDTH 538 0
DWIDTH 7 0
BBX 1 8 3 -2
BITMAP
80
00
80
80
80
80
80
80
ENDCHAR
STARTCHAR cent
ENCODING 162
SWIDTH 538 0
DWIDTH 7 0
BBX 5 9 1 -1
BITMAP
20
20
70
A8
A0
A8
70
20
20
ENDCHAR
STARTCHAR sterling
ENCODING 163
SWIDTH 538 0
DWIDTH 7 0
BBX 5 8 1 0
BITMAP
30
48
40
40
F0
40
40
F8
ENDCHAR
STARTCHAR currency
ENCODING 164
SWIDTH 538 0
DWIDTH 7 0
BBX 5 5 1 2
BITMAP
88
70
50
70
88
ENDCHAR
STARTCHAR yen
ENCODING 165
SWIDTH 538 0
DWIDTH 7 0
BBX 5 8 1 0
BITMAP
88
88
50
50
F8
20
F8
20
ENDCHAR
STARTCHAR brokenbar
ENCODING 166
SWIDTH 538 0
DWIDTH 7 0
BBX 1 11 3 -2
BITMAP
80
80
80
80
80
00
80
80
80
80
80
ENDCHAR
STARTCHAR section
ENCODING 167
SWIDTH 538 0
DWIDTH 7 0
BBX 4 7 2 0
BITMAP
70
80
60
90
60
10
E0
ENDCHAR
STARTCHAR dieresis
ENCODING 168
SWIDTH 538 0
DWIDTH 7 0
BBX 3 1 2 7
BITMAP
A0
ENDCHAR
STARTCHAR copyright
ENCODING 169
SWIDTH 538 0
DWIDTH 7 0
BBX 7 8 0 0
BITMAP
38
44
9A
A2
A2
9A
44
38
ENDCHAR
STARTCHAR ordfeminine
ENCODING 170
SWIDTH 538 0
DWIDTH 7 0
BBX 5 6 1 3
BITMAP
60
10
70
90
70
F8
ENDCHAR
STARTCHAR guillemotleft
ENCODING 171
SWIDTH 538 0
DWIDTH 7 0
BBX 5 5 1 0
BITMAP
28
50
A0
50
28
ENDCHAR
STARTCHAR logicalnot
ENCODING 172
SWIDTH 538 0
DWIDTH 7 0
BBX 5 3 1 2
BITMAP
F8
08
08
ENDCHAR
STARTCHAR uni00AD
ENCODING 173
SWIDTH 538 0
DWIDTH 7 0
BBX 3 1 2 3
BITMAP
E0
ENDCHAR
STARTCHAR registered
ENCODING 174
SWIDTH 538 0
DWIDTH 7 0
BBX 7 8 0 1
BITMAP
38
44
B2
AA
B2
AA
44
38
ENDCHAR
STARTCHAR macron
ENCODING 175
SWIDTH 538 0
DWIDTH 7 0
BBX 3 1 2 7
BITMAP
E0
ENDCHAR
STARTCHAR degree
ENCODING 176
SWIDTH 538 0
DWIDTH 7 0
BBX 4 4 1 4
BITMAP
60
90
90
60
ENDCHAR
STARTCHAR plusminus
ENCODING 177
SWIDTH 538 0
DWIDTH 7 0
BBX 5 7 1 0
BITMAP
20
20
F8
20
20
00
F8
ENDCHAR
STARTCHAR uni00B2
ENCODING 178
SWIDTH 538 0
DWIDTH 7 0
BBX 4 5 1 4
BITMAP
E0
10
20
40
F0
ENDCHAR
STARTCHAR uni00B3
ENCODING 179
SWIDTH 538 0
DWIDTH 7 0
BBX 4 5 1 4
BITMAP
E0
10
60
10
E0
ENDCHAR
STARTCHAR acute
ENCODING 180
SWIDTH 538 0
DWIDTH 7 0
BBX 3 3 2 6
BITMAP
20
40
80
ENDCHAR
STARTCHAR mu
ENCODING 181
SWIDTH 538 0
DWIDTH 7 0
BBX 5 8 1 -2
BITMAP
90
90
90
90
90
E8
80
80
ENDCHAR
STARTCHAR paragraph
ENCODING 182
SWIDTH 538 0
DWIDTH 7 0
BBX 5 8 1 0
BITMAP
78
A8
A8
A8
68
28
28
28
ENDCHAR
STARTCHAR periodcentered
ENCODING 183
SWIDTH 538 0
DWIDTH 7 0
BBX 1 2 3 3
BITMAP
80
80
ENDCHAR
STARTCHAR cedilla
ENCODING 184
SWIDTH 538 0
DWIDTH 7 0
BBX 3 3 2 -3
BITMAP
40
20
C0
ENDCHAR
STARTCHAR uni00B9
ENCODING 185
SWIDTH 538 0
DWIDTH 7 0
BBX 3 5 2 4
BITMAP
40
C0
40
40
E0
ENDCHAR
STARTCHAR ordmasculine
ENCODING 186
SWIDTH 538 0
DWIDTH 7 0
BBX 4 5 1 4
BITMAP
60
90
90
90
60
ENDCHAR
STARTCHAR guillemotright
ENCODING 187
SWIDTH 538 0
DWIDTH 7 0
BBX 5 5 1 0
BITMAP
A0
50
28
50
A0
ENDCHAR
STARTCHAR onequarter
ENCODING 188
SWIDTH 538 0
DWIDTH 7 0
BBX 7 10 0 0
BITMAP
04
44
C8
48
50
52
26
2A
5E
42
ENDCHAR
STARTCHAR onehalf
ENCODING 189
SWIDTH 538 0
DWIDTH 7 0
BBX 7 10 0 0
BITMAP
04
44
C8
48
50
5C
22
24
48
4E
ENDCHAR
STARTCHAR threequarters
ENCODING 190
SWIDTH 538 0
DWIDTH 7 0
BBX 7 10 0 0
BITMAP
04
C4
28
68
30
D2
26
2A
5E
42
ENDCHAR
STARTCHAR questiondown
ENCODING 191
SWIDTH 538 0
DWIDTH 7 0
BBX 5 8 1 -2
BITMAP
20
00
20
20
40
80
88
70
ENDCHAR
STARTCHAR Agrave
ENCODING 192
SWIDTH 538 0
DWIDTH 7 0
BBX 5 10 1 0
BITMAP
40
20
70
88
88
88
F8
88
88
88
ENDCHAR
STARTCHAR Aacute
ENCODING 193
SWIDTH 538 0
DWIDTH 7 0
BBX 5 10 1 0
BITMAP
10
20
70
88
88
88
F8
88
88
88
ENDCHAR
STARTCHAR Acircumflex
ENCODING 194
SWIDTH 538 0
DWIDTH 7 0
BBX 5 10 1 0
BITMAP
20
50
70
88
88
88
F8
88
88
88
ENDCHAR
STARTCHAR Atilde
ENCODING 195
SWIDTH 538 0
DWIDTH 7 0
BBX 5 10 1 0
BITMAP
68
B0
70
88
88
88
F8
88
88
88
ENDCHAR
STARTCHAR Adieresis
ENCODING 196
SWIDTH 538 0
DWIDTH 7 0
BBX 5 10 1 0
BITMAP
50
00
70
88
88
88
F8
88
88
88
ENDCHAR
STARTCHAR Aring
ENCODING 197
SWIDTH 538 0
DWIDTH 7 0
BBX 5 10 1 0
BITMAP
20
50
20
70
88
88
F8
88
88
88
ENDCHAR
STARTCHAR AE
ENCODING 198
SWIDTH 538 0
DWIDTH 7 0
BBX 7 8 0 0
BITMAP
3E
50
50
5C
70
90
90
9E
ENDCHAR
STARTCHAR Ccedilla
ENCODING 199
SWIDTH 538 0
DWIDTH 7 0
BBX 5 11 1 -3
BITMAP
70
88
80
80
80
80
88
70
20
10
60
ENDCHAR
STARTCHAR Egrave
ENCODING 200
SWIDTH 538 0
DWIDTH 7 0
BBX 5 10 1 0
BITMAP
40
20
F8
80
80
F0
80
80
80
F8
ENDCHAR
STARTCHAR Eacute
ENCODING 201
SWIDTH 538 0
DWIDTH 7 0
BBX 5 10 1 0
BITMAP
10
20
F8
80
80
F0
80
80
80
F8
ENDCHAR
STARTCHAR Ecircumflex
ENCODING 202
SWIDTH 538 0
DWIDTH 7 0
BBX 5 10 1 0
BITMAP
20
50
F8
80
80
F0
80
80
80
F8
ENDCHAR
STARTCHAR Edieresis
ENCODING 203
SWIDTH 538 0
DWIDTH 7 0
BBX 5 10 1 0
BITMAP
50
00
F8
80
80
F0
80
80
80
F8
ENDCHAR
STARTCHAR Igrave
ENCODING 204
SWIDTH 538 0
DWIDTH 7 0
BBX 3 10 2 0
BITMAP
80
40
E0
40
40
40
40
40
40
E0
ENDCHAR
STARTCHAR Iacute
ENCODING 205
SWIDTH 538 0
DWIDTH 7 0
BBX 3 10 2 0
BITMAP
20
40
E0
40
40
40
40
40
40
E0
ENDCHAR
STARTCHAR Icircumflex
ENCODING 206
SWIDTH 352 0
DWIDTH 7 0
BBX 3 10 2 0
BITMAP
40
A0
E0
40
40
40
40
40
40
E0
ENDCHAR
STARTCHAR Idieresis
ENCODING 207
SWIDTH 538 0
DWIDTH 7 0
BBX 3 10 2 0
BITMAP
A0
00
E0
40
40
40
40
40
40
E0
ENDCHAR
STARTCHAR Eth
ENCODING 208
SWIDTH 538 0
DWIDTH 7 0
BBX 6 8 0 0
BITMAP
78
44
44
F4
44
44
44
78
ENDCHAR
STARTCHAR Ntilde
ENCODING 209
SWIDTH 538 0
DWIDTH 7 0
BBX 5 10 1 0
BITMAP
68
B0
88
C8
C8
A8
A8
98
98
88
ENDCHAR
STARTCHAR Ograve
ENCODING 210
SWIDTH 538 0
DWIDTH 7 0
BBX 5 10 1 0
BITMAP
40
20
70
88
88
88
88
88
88
70
ENDCHAR
STARTCHAR Oacute
ENCODING 211
SWIDTH 538 0
DWIDTH 7 0
BBX 5 10 1 0
BITMAP
10
20
70
88
88
88
88
88
88
70
ENDCHAR
STARTCHAR Ocircumflex
ENCODING 212
SWIDTH 538 0
DWIDTH 7 0
BBX 5 10 1 0
BITMAP
20
50
70
88
88
88
88
88
88
70
ENDCHAR
STARTCHAR Otilde
ENCODING 213
SWIDTH 538 0
DWIDTH 7 0
BBX 5 10 1 0
BITMAP
68
B0
70
88
88
88
88
88
88
70
ENDCHAR
STARTCHAR Odieresis
ENCODING 214
SWIDTH 538 0
DWIDTH 7 0
BBX 5 10 1 0
BITMAP
50
00
70
88
88
88
88
88
88
70
ENDCHAR
STARTCHAR multiply
ENCODING 215
SWIDTH 538 0
DWIDTH 7 0
BBX 5 5 1 1
BITMAP
88
50
20
50
88
ENDCHAR
STARTCHAR Oslash
ENCODING 216
SWIDTH 538 0
DWIDTH 7 0
BBX 7 8 0 0
BITMAP
3A
44
4C
54
54
64
44
B8
ENDCHAR
STARTCHAR Ugrave
ENCODING 217
SWIDTH 538 0
DWIDTH 7 0
BBX 5 10 1 0
BITMAP
40
20
00
88
88
88
88
88
88
70
ENDCHAR
STARTCHAR Uacute
ENCODING 218
SWIDTH 538 0
DWIDTH 7 0
BBX 5 10 1 0
BITMAP
10
20
00
88
88
88
88
88
88
70
ENDCHAR
STARTCHAR Ucircumflex
ENCODING 219
SWIDTH 538 0
DWIDTH 7 0
BBX 5 10 1 0
BITMAP
20
50
88
88
88
88
88
88
88
70
ENDCHAR
STARTCHAR Udieresis
ENCODING 220
SWIDTH 538 0
DWIDTH 7 0
BBX 5 10 1 0
BITMAP
50
00
88
88
88
88
88
88
88
70
ENDCHAR
STARTCHAR Yacute
ENCODING 221
SWIDTH 538 0
DWIDTH 7 0
BBX 5 10 1 0
BITMAP
10
20
88
88
50
50
20
20
20
20
ENDCHAR
STARTCHAR Thorn
ENCODING 222
SWIDTH 538 0
DWIDTH 7 0
BBX 5 8 1 0
BITMAP
80
80
F0
88
88
F0
80
80
ENDCHAR
STARTCHAR germandbls
ENCODING 223
SWIDTH 538 0
DWIDTH 7 0
BBX 5 9 1 0
BITMAP
60
90
90
A0
A0
90
88
88
B0
ENDCHAR
STARTCHAR agrave
ENCODING 224
SWIDTH 538 0
DWIDTH 7 0
BBX 5 9 1 0
BITMAP
40
20
00
70
08
78
88
88
78
ENDCHAR
STARTCHAR aacute
ENCODING 225
SWIDTH 538 0
DWIDTH 7 0
BBX 5 9 1 0
BITMAP
10
20
00
70
08
78
88
88
78
ENDCHAR
STARTCHAR acircumflex
ENCODING 226
SWIDTH 538 0
DWIDTH 7 0
BBX 5 9 1 0
BITMAP
20
50
00
70
08
78
88
88
78
ENDCHAR
STARTCHAR atilde
ENCODING 227
SWIDTH 538 0
DWIDTH 7 0
BBX 5 9 1 0
BITMAP
68
B0
00
70
08
78
88
88
78
ENDCHAR
STARTCHAR adieresis
ENCODING 228
SWIDTH 538 0
DWIDTH 7 0
BBX 5 8 1 0
BITMAP
50
00
70
08
78
88
88
78
ENDCHAR
STARTCHAR aring
ENCODING 229
SWIDTH 538 0
DWIDTH 7 0
BBX 5 9 1 0
BITMAP
20
50
20
70
08
78
88
88
78
ENDCHAR
STARTCHAR ae
ENCODING 230
SWIDTH 538 0
DWIDTH 7 0
BBX 7 6 0 0
BITMAP
7C
12
7E
90
92
7C
ENDCHAR
STARTCHAR ccedilla
ENCODING 231
SWIDTH 538 0
DWIDTH 7 0
BBX 5 9 1 -3
BITMAP
70
88
80
80
88
70
20
10
60
ENDCHAR
STARTCHAR egrave
ENCODING 232
SWIDTH 538 0
DWIDTH 7 0
BBX 5 9 1 0
BITMAP
40
20
00
70
88
F8
80
88
70
ENDCHAR
STARTCHAR eacute
ENCODING 233
SWIDTH 538 0
DWIDTH 7 0
BBX 5 9 1 0
BITMAP
10
20
00
70
88
F8
80
88
70
ENDCHAR
STARTCHAR ecircumflex
ENCODING 234
SWIDTH 538 0
DWIDTH 7 0
BBX 5 9 1 0
BITMAP
20
50
00
70
88
F8
80
88
70
ENDCHAR
STARTCHAR edieresis
ENCODING 235
SWIDTH 538 0
DWIDTH 7 0
BBX 5 8 1 0
BITMAP
50
00
70
88
F8
80
88
70
ENDCHAR
STARTCHAR igrave
ENCODING 236
SWIDTH 538 0
DWIDTH 7 0
BBX 2 9 2 0
BITMAP
80
40
00
C0
40
40
40
40
40
ENDCHAR
STARTCHAR iacute
ENCODING 237
SWIDTH 538 0
DWIDTH 7 0
BBX 3 9 2 0
BITMAP
20
40
00
C0
40
40
40
40
40
ENDCHAR
STARTCHAR icircumflex
ENCODING 238
SWIDTH 538 0
DWIDTH 7 0
BBX 3 9 2 0
BITMAP
40
A0
00
C0
40
40
40
40
40
ENDCHAR
STARTCHAR idieresis
ENCODING 239
SWIDTH 538 0
DWIDTH 7 0
BBX 3 8 2 0
BITMAP
A0
00
C0
40
40
40
40
40
ENDCHAR
STARTCHAR eth
ENCODING 240
SWIDTH 538 0
DWIDTH 7 0
BBX 5 9 1 0
BITMAP
50
20
50
08
78
88
88
88
70
ENDCHAR
STARTCHAR ntilde
ENCODING 241
SWIDTH 538 0
DWIDTH 7 0
BBX 5 9 1 0
BITMAP
68
B0
00
F0
88
88
88
88
88
ENDCHAR
STARTCHAR ograve
ENCODING 242
SWIDTH 538 0
DWIDTH 7 0
BBX 5 9 1 0
BITMAP
40
20
00
70
88
88
88
88
70
ENDCHAR
STARTCHAR oacute
ENCODING 243
SWIDTH 538 0
DWIDTH 7 0
BBX 5 9 1 0
BITMAP
10
20
00
70
88
88
88
88
70
ENDCHAR
STARTCHAR ocircumflex
ENCODING 244
SWIDTH 538 0
DWIDTH 7 0
BBX 5 9 1 0
BITMAP
20
50
00
70
88
88
88
88
70
ENDCHAR
STARTCHAR otilde
ENCODING 245
SWIDTH 538 0
DWIDTH 7 0
BBX 5 9 1 0
BITMAP
68
B0
00
70
88
88
88
88
70
ENDCHAR
STARTCHAR odieresis
ENCODING 246
SWIDTH 538 0
DWIDTH 7 0
BBX 5 8 1 0
BITMAP
50
00
70
88
88
88
88
70
ENDCHAR
STARTCHAR divide
ENCODING 247
SWIDTH 538 0
DWIDTH 7 0
BBX 5 7 1 0
BITMAP
20
20
00
F8
00
20
20
ENDCHAR
STARTCHAR oslash
ENCODING 248
SWIDTH 538 0
DWIDTH 7 0
BBX 5 6 1 0
BITMAP
78
98
A8
A8
C8
F0
ENDCHAR
STARTCHAR ugrave
ENCODING 249
SWIDTH 538 0
DWIDTH 7 0
BBX 5 9 1 0
BITMAP
40
20
00
88
88
88
88
88
78
ENDCHAR
STARTCHAR uacute
ENCODING 250
SWIDTH 538 0
DWIDTH 7 0
BBX 5 9 1 0
BITMAP
10
20
00
88
88
88
88
88
78
ENDCHAR
STARTCHAR ucircumflex
ENCODING 251
SWIDTH 538 0
DWIDTH 7 0
BBX 5 9 1 0
BITMAP
20
50
00
88
88
88
88
88
78
ENDCHAR
STARTCHAR udieresis
ENCODING 252
SWIDTH 538 0
DWIDTH 7 0
BBX 5 8 1 0
BITMAP
50
00
88
88
88
88
88
78
ENDCHAR
STARTCHAR yacute
ENCODING 253
SWIDTH 538 0
DWIDTH 7 0
BBX 5 11 1 -3
BITMAP
10
20
88
88
88
50
50
20
20
40
80
ENDCHAR
STARTCHAR thorn
ENCODING 254
SWIDTH 538 0
DWIDTH 7 0
BBX 5 12 1 -3
BITMAP
80
80
80
F0
88
88
88
88
F0
80
80
80
ENDCHAR
STARTCHAR ydieresis
ENCODING 255
SWIDTH 538 0
DWIDTH 7 0
BBX 5 11 1 -3
BITMAP
50
00
88
88
88
50
50
20
20
40
80
ENDCHAR
STARTCHAR Amacron
ENCODING 256
SWIDTH 538 0
DWIDTH 7 0
BBX 5 10 1 0
BITMAP
70
00
70
88
88
88
F8
88
88
88
ENDCHAR
STARTCHAR amacron
ENCODING 257
SWIDTH 538 0
DWIDTH 7 0
BBX 5 8 1 0
BITMAP
70
00
70
08
78
88
88
78
ENDCHAR
STARTCHAR Abreve
ENCODING 258
SWIDTH 538 0
DWIDTH 7 0
BBX 5 10 1 0
BITMAP
50
70
70
88
88
88
F8
88
88
88
ENDCHAR
STARTCHAR abreve
ENCODING 259
SWIDTH 538 0
DWIDTH 7 0
BBX 5 9 1 0
BITMAP
50
70
00
70
08
78
88
88
78
ENDCHAR
STARTCHAR Aogonek
ENCODING 260
SWIDTH 538 0
DWIDTH 7 0
BBX 5 11 1 -3
BITMAP
70
88
88
88
F8
88
88
88
10
20
30
ENDCHAR
STARTCHAR aogonek
ENCODING 261
SWIDTH 538 0
DWIDTH 7 0
BBX 5 9 1 -3
BITMAP
70
08
78
88
88
78
08
10
18
ENDCHAR
STARTCHAR Cacute
ENCODING 262
SWIDTH 538 0
DWIDTH 7 0
BBX 5 10 1 0
BITMAP
10
20
70
88
80
80
80
80
88
70
ENDCHAR
STARTCHAR cacute
ENCODING 263
SWIDTH 538 0
DWIDTH 7 0
BBX 5 9 1 0
BITMAP
10
20
00
70
88
80
80
88
70
ENDCHAR
STARTCHAR Ccircumflex
ENCODING 264
SWIDTH 538 0
DWIDTH 7 0
BBX 5 10 1 0
BITMAP
20
50
70
88
80
80
80
80
88
70
ENDCHAR
STARTCHAR ccircumflex
ENCODING 265
SWIDTH 538 0
DWIDTH 7 0
BBX 5 9 1 0
BITMAP
20
50
00
70
88
80
80
88
70
ENDCHAR
STARTCHAR Cdotaccent
ENCODING 266
SWIDTH 538 0
DWIDTH 7 0
BBX 5 10 1 0
BITMAP
20
00
70
88
80
80
80
80
88
70
ENDCHAR
STARTCHAR cdotaccent
ENCODING 267
SWIDTH 538 0
DWIDTH 7 0
BBX 5 8 1 0
BITMAP
20
00
70
88
80
80
88
70
ENDCHAR
STARTCHAR Ccaron
ENCODING 268
SWIDTH 538 0
DWIDTH 7 0
BBX 5 10 1 0
BITMAP
50
20
70
88
80
80
80
80
88
70
ENDCHAR
STARTCHAR ccaron
ENCODING 269
SWIDTH 538 0
DWIDTH 7 0
BBX 5 9 1 0
BITMAP
50
20
00
70
88
80
80
88
70
ENDCHAR
STARTCHAR Dcaron
ENCODING 270
SWIDTH 538 0
DWIDTH 7 0
BBX 5 10 1 0
BITMAP
50
20
F0
88
88
88
88
88
88
F0
ENDCHAR
STARTCHAR dcaron
ENCODING 271
SWIDTH 538 0
DWIDTH 7 0
BBX 7 9 0 0
BITMAP
0A
0A
0C
78
88
88
88
88
78
ENDCHAR
STARTCHAR Dcroat
ENCODING 272
SWIDTH 538 0
DWIDTH 7 0
BBX 6 8 0 0
BITMAP
78
44
44
F4
44
44
44
78
ENDCHAR
STARTCHAR dcroat
ENCODING 273
SWIDTH 538 0
DWIDTH 7 0
BBX 6 9 1 0
BITMAP
08
3C
08
78
88
88
88
88
78
ENDCHAR
STARTCHAR Emacron
ENCODING 274
SWIDTH 538 0
DWIDTH 7 0
BBX 5 10 1 0
BITMAP
70
00
F8
80
80
F0
80
80
80
F8
ENDCHAR
STARTCHAR emacron
ENCODING 275
SWIDTH 538 0
DWIDTH 7 0
BBX 5 8 1 0
BITMAP
70
00
70
88
F8
80
88
70
ENDCHAR
STARTCHAR Ebreve
ENCODING 276
SWIDTH 538 0
DWIDTH 7 0
BBX 5 10 1 0
BITMAP
48
30
F8
80
80
F0
80
80
80
F8
ENDCHAR
STARTCHAR ebreve
ENCODING 277
SWIDTH 538 0
DWIDTH 7 0
BBX 5 9 1 0
BITMAP
48
30
00
70
88
F8
80
88
70
ENDCHAR
STARTCHAR Edotaccent
ENCODING 278
SWIDTH 538 0
DWIDTH 7 0
BBX 5 10 1 0
BITMAP
20
00
F8
80
80
F0
80
80
80
F8
ENDCHAR
STARTCHAR edotaccent
ENCODING 279
SWIDTH 538 0
DWIDTH 7 0
BBX 5 8 1 0
BITMAP
20
00
70
88
F8
80
88
70
ENDCHAR
STARTCHAR Eogonek
ENCODING 280
SWIDTH 538 0
DWIDTH 7 0
BBX 5 11 1 -3
BITMAP
F8
80
80
F0
80
80
80
F8
08
10
18
ENDCHAR
STARTCHAR eogonek
ENCODING 281
SWIDTH 538 0
DWIDTH 7 0
BBX 5 9 1 -3
BITMAP
70
88
F8
80
88
70
10
20
30
ENDCHAR
STARTCHAR Ecaron
ENCODING 282
SWIDTH 538 0
DWIDTH 7 0
BBX 5 10 1 0
BITMAP
50
20
F8
80
80
F0
80
80
80
F8
ENDCHAR
STARTCHAR ecaron
ENCODING 283
SWIDTH 538 0
DWIDTH 7 0
BBX 5 9 1 0
BITMAP
50
20
00
70
88
F8
80
88
70
ENDCHAR
STARTCHAR Gcircumflex
ENCODING 284
SWIDTH 538 0
DWIDTH 7 0
BBX 5 10 1 0
BITMAP
20
50
70
88
80
80
98
88
88
70
ENDCHAR
STARTCHAR gcircumflex
ENCODING 285
SWIDTH 538 0
DWIDTH 7 0
BBX 5 12 1 -3
BITMAP
20
50
00
78
88
88
88
88
78
08
88
70
ENDCHAR
STARTCHAR Gbreve
ENCODING 286
SWIDTH 538 0
DWIDTH 7 0
BBX 5 10 1 0
BITMAP
50
70
70
88
80
80
98
88
88
70
ENDCHAR
STARTCHAR gbreve
ENCODING 287
SWIDTH 538 0
DWIDTH 7 0
BBX 5 12 1 -3
BITMAP
50
70
00
78
88
88
88
88
78
08
88
70
ENDCHAR
STARTCHAR Gdotaccent
ENCODING 288
SWIDTH 538 0
DWIDTH 7 0
BBX 5 10 1 0
BITMAP
20
00
70
88
80
80
98
88
88
70
ENDCHAR
STARTCHAR gdotaccent
ENCODING 289
SWIDTH 538 0
DWIDTH 7 0
BBX 5 11 1 -3
BITMAP
10
00
78
88
88
88
88
78
08
08
70
ENDCHAR
STARTCHAR uni0122
ENCODING 290
SWIDTH 538 0
DWIDTH 7 0
BBX 5 10 1 -2
BITMAP
70
88
80
80
98
88
88
70
20
40
ENDCHAR
STARTCHAR uni0123
ENCODING 291
SWIDTH 538 0
DWIDTH 7 0
BBX 5 12 1 -3
BITMAP
30
40
20
70
88
88
88
88
78
08
08
70
ENDCHAR
STARTCHAR Hcircumflex
ENCODING 292
SWIDTH 538 0
DWIDTH 7 0
BBX 5 10 1 0
BITMAP
20
50
88
88
88
88
F8
88
88
88
ENDCHAR
STARTCHAR hcircumflex
ENCODING 293
SWIDTH 538 0
DWIDTH 7 0
BBX 5 10 1 0
BITMAP
20
D0
80
80
F0
88
88
88
88
88
ENDCHAR
STARTCHAR Hbar
ENCODING 294
SWIDTH 538 0
DWIDTH 7 0
BBX 7 8 0 0
BITMAP
44
FE
44
7C
44
44
44
44
ENDCHAR
STARTCHAR hbar
ENCODING 295
SWIDTH 538 0
DWIDTH 7 0
BBX 6 9 0 0
BITMAP
40
F0
40
78
44
44
44
44
44
ENDCHAR
STARTCHAR Itilde
ENCODING 296
SWIDTH 538 0
DWIDTH 7 0
BBX 5 10 1 0
BITMAP
68
B0
70
20
20
20
20
20
20
70
ENDCHAR
STARTCHAR itilde
ENCODING 297
SWIDTH 538 0
DWIDTH 7 0
BBX 5 9 1 0
BITMAP
68
B0
00
60
20
20
20
20
20
ENDCHAR
STARTCHAR Imacron
ENCODING 298
SWIDTH 538 0
DWIDTH 7 0
BBX 3 10 2 0
BITMAP
E0
00
E0
40
40
40
40
40
40
E0
ENDCHAR
STARTCHAR imacron
ENCODING 299
SWIDTH 538 0
DWIDTH 7 0
BBX 4 8 1 0
BITMAP
F0
00
60
20
20
20
20
20
ENDCHAR
STARTCHAR Ibreve
ENCODING 300
SWIDTH 538 0
DWIDTH 7 0
BBX 5 10 1 0
BITMAP
88
70
70
20
20
20
20
20
20
70
ENDCHAR
STARTCHAR ibreve
ENCODING 301
SWIDTH 538 0
DWIDTH 7 0
BBX 4 9 1 0
BITMAP
90
60
00
60
20
20
20
20
20
ENDCHAR
STARTCHAR Iogonek
ENCODING 302
SWIDTH 538 0
DWIDTH 7 0
BBX 3 11 2 -3
BITMAP
E0
40
40
40
40
40
40
E0
40
80
C0
ENDCHAR
STARTCHAR iogonek
ENCODING 303
SWIDTH 538 0
DWIDTH 7 0
BBX 2 11 2 -3
BITMAP
40
00
C0
40
40
40
40
40
40
80
C0
ENDCHAR
STARTCHAR Idotaccent
ENCODING 304
SWIDTH 538 0
DWIDTH 7 0
BBX 3 10 2 0
BITMAP
40
00
E0
40
40
40
40
40
40
E0
ENDCHAR
STARTCHAR dotlessi
ENCODING 305
SWIDTH 538 0
DWIDTH 7 0
BBX 2 6 2 0
BITMAP
C0
40
40
40
40
40
ENDCHAR
STARTCHAR IJ
ENCODING 306
SWIDTH 538 0
DWIDTH 7 0
BBX 7 8 0 0
BITMAP
EE
44
44
44
44
44
54
E8
ENDCHAR
STARTCHAR ij
ENCODING 307
SWIDTH 538 0
DWIDTH 7 0
BBX 5 12 1 -3
BITMAP
48
48
00
D8
48
48
48
48
48
08
48
30
ENDCHAR
STARTCHAR Jcircumflex
ENCODING 308
SWIDTH 538 0
DWIDTH 7 0
BBX 5 10 1 0
BITMAP
10
28
38
10
10
10
10
10
90
60
ENDCHAR
STARTCHAR jcircumflex
ENCODING 309
SWIDTH 538 0
DWIDTH 7 0
BBX 5 11 1 -3
BITMAP
10
28
00
38
10
10
10
10
10
10
E0
ENDCHAR
STARTCHAR uni0136
ENCODING 310
SWIDTH 538 0
DWIDTH 7 0
BBX 5 11 1 -3
BITMAP
88
90
A0
C0
A0
90
88
88
20
10
60
ENDCHAR
STARTCHAR uni0137
ENCODING 311
SWIDTH 538 0
DWIDTH 7 0
BBX 5 12 1 -3
BITMAP
80
80
80
88
90
A0
E0
90
88
20
10
60
ENDCHAR
STARTCHAR kgreenlandic
ENCODING 312
SWIDTH 538 0
DWIDTH 7 0
BBX 5 6 1 0
BITMAP
88
90
A0
E0
90
88
ENDCHAR
STARTCHAR Lacute
ENCODING 313
SWIDTH 538 0
DWIDTH 7 0
BBX 5 10 1 0
BITMAP
40
80
80
80
80
80
80
80
80
F8
ENDCHAR
STARTCHAR lacute
ENCODING 314
SWIDTH 538 0
DWIDTH 7 0
BBX 3 10 2 0
BITMAP
20
40
C0
40
40
40
40
40
40
40
ENDCHAR
STARTCHAR uni013B
ENCODING 315
SWIDTH 538 0
DWIDTH 7 0
BBX 5 11 1 -3
BITMAP
80
80
80
80
80
80
80
F8
20
10
60
ENDCHAR
STARTCHAR uni013C
ENCODING 316
SWIDTH 538 0
DWIDTH 7 0
BBX 3 12 2 -3
BITMAP
C0
40
40
40
40
40
40
40
40
40
20
C0
ENDCHAR
STARTCHAR Lcaron
ENCODING 317
SWIDTH 538 0
DWIDTH 7 0
BBX 5 8 1 0
BITMAP
90
90
A0
80
80
80
80
F8
ENDCHAR
STARTCHAR lcaron
ENCODING 318
SWIDTH 538 0
DWIDTH 7 0
BBX 5 9 2 0
BITMAP
C8
48
50
40
40
40
40
40
40
ENDCHAR
STARTCHAR Ldot
ENCODING 319
SWIDTH 538 0
DWIDTH 7 0
BBX 5 8 1 0
BITMAP
80
80
80
88
88
80
80
F8
ENDCHAR
STARTCHAR ldot
ENCODING 320
SWIDTH 538 0
DWIDTH 7 0
BBX 4 9 2 0
BITMAP
C0
40
40
40
50
50
40
40
40
ENDCHAR
STARTCHAR Lslash
ENCODING 321
SWIDTH 538 0
DWIDTH 7 0
BBX 6 9 0 0
BITMAP
40
40
40
50
60
C0
40
40
7C
ENDCHAR
STARTCHAR lslash
ENCODING 322
SWIDTH 538 0
DWIDTH 7 0
BBX 3 9 2 0
BITMAP
C0
40
40
40
60
C0
40
40
40
ENDCHAR
STARTCHAR Nacute
ENCODING 323
SWIDTH 538 0
DWIDTH 7 0
BBX 5 10 1 0
BITMAP
10
20
88
C8
C8
A8
A8
98
98
88
ENDCHAR
STARTCHAR nacute
ENCODING 324
SWIDTH 538 0
DWIDTH 7 0
BBX 5 9 1 0
BITMAP
10
20
00
F0
88
88
88
88
88
ENDCHAR
STARTCHAR uni0145
ENCODING 325
SWIDTH 538 0
DWIDTH 7 0
BBX 5 11 1 -3
BITMAP
88
C8
C8
A8
A8
98
98
88
20
10
60
ENDCHAR
STARTCHAR uni0146
ENCODING 326
SWIDTH 538 0
DWIDTH 7 0
BBX 5 9 1 -3
BITMAP
F0
88
88
88
88
88
20
10
60
ENDCHAR
STARTCHAR Ncaron
ENCODING 327
SWIDTH 538 0
DWIDTH 7 0
BBX 5 10 1 0
BITMAP
50
20
88
C8
C8
A8
A8
98
98
88
ENDCHAR
STARTCHAR ncaron
ENCODING 328
SWIDTH 538 0
DWIDTH 7 0
BBX 5 9 1 0
BITMAP
50
20
00
F0
88
88
88
88
88
ENDCHAR
STARTCHAR napostrophe
ENCODING 329
SWIDTH 538 0
DWIDTH 7 0
BBX 7 9 0 0
BITMAP
40
40
80
3C
22
22
22
22
22
ENDCHAR
STARTCHAR Eng
ENCODING 330
SWIDTH 538 0
DWIDTH 7 0
BBX 5 10 1 -2
BITMAP
88
C8
C8
A8
A8
98
98
88
08
30
ENDCHAR
STARTCHAR eng
ENCODING 331
SWIDTH 538 0
DWIDTH 7 0
BBX 5 9 1 -3
BITMAP
F0
88
88
88
88
88
08
08
30
ENDCHAR
STARTCHAR Omacron
ENCODING 332
SWIDTH 538 0
DWIDTH 7 0
BBX 5 10 1 0
BITMAP
70
00
70
88
88
88
88
88
88
70
ENDCHAR
STARTCHAR omacron
ENCODING 333
SWIDTH 538 0
DWIDTH 7 0
BBX 5 8 1 0
BITMAP
70
00
70
88
88
88
88
70
ENDCHAR
STARTCHAR Obreve
ENCODING 334
SWIDTH 538 0
DWIDTH 7 0
BBX 5 10 1 0
BITMAP
88
70
70
88
88
88
88
88
88
70
ENDCHAR
STARTCHAR obreve
ENCODING 335
SWIDTH 538 0
DWIDTH 7 0
BBX 5 9 1 0
BITMAP
88
70
00
70
88
88
88
88
70
ENDCHAR
STARTCHAR Ohungarumlaut
ENCODING 336
SWIDTH 538 0
DWIDTH 7 0
BBX 5 10 1 0
BITMAP
28
50
70
88
88
88
88
88
88
70
ENDCHAR
STARTCHAR ohungarumlaut
ENCODING 337
SWIDTH 538 0
DWIDTH 7 0
BBX 5 9 1 0
BITMAP
28
50
00
70
88
88
88
88
70
ENDCHAR
STARTCHAR OE
ENCODING 338
SWIDTH 538 0
DWIDTH 7 0
BBX 7 8 0 0
BITMAP
7E
90
90
9C
90
90
90
7E
ENDCHAR
STARTCHAR oe
ENCODING 339
SWIDTH 538 0
DWIDTH 7 0
BBX 7 6 0 0
BITMAP
6C
92
9E
90
92
6C
ENDCHAR
STARTCHAR Racute
ENCODING 340
SWIDTH 538 0
DWIDTH 7 0
BBX 5 10 1 0
BITMAP
10
20
F0
88
88
88
F0
90
88
88
ENDCHAR
STARTCHAR racute
ENCODING 341
SWIDTH 538 0
DWIDTH 7 0
BBX 5 9 1 0
BITMAP
10
20
00
B0
C8
80
80
80
80
ENDCHAR
STARTCHAR uni0156
ENCODING 342
SWIDTH 538 0
DWIDTH 7 0
BBX 5 11 1 -3
BITMAP
F0
88
88
88
F0
90
88
88
20
10
60
ENDCHAR
STARTCHAR uni0157
ENCODING 343
SWIDTH 538 0
DWIDTH 7 0
BBX 6 9 0 -3
BITMAP
58
64
40
40
40
40
40
20
C0
ENDCHAR
STARTCHAR Rcaron
ENCODING 344
SWIDTH 538 0
DWIDTH 7 0
BBX 5 10 1 0
BITMAP
50
20
F0
88
88
88
F0
90
88
88
ENDCHAR
STARTCHAR rcaron
ENCODING 345
SWIDTH 538 0
DWIDTH 7 0
BBX 5 9 1 0
BITMAP
50
20
00
B0
C8
80
80
80
80
ENDCHAR
STARTCHAR Sacute
ENCODING 346
SWIDTH 538 0
DWIDTH 7 0
BBX 5 10 1 0
BITMAP
10
20
70
88
80
60
10
08
88
70
ENDCHAR
STARTCHAR sacute
ENCODING 347
SWIDTH 538 0
DWIDTH 7 0
BBX 5 9 1 0
BITMAP
10
20
00
78
80
60
10
08
F0
ENDCHAR
STARTCHAR Scircumflex
ENCODING 348
SWIDTH 538 0
DWIDTH 7 0
BBX 5 10 1 0
BITMAP
20
50
70
88
80
60
10
08
88
70
ENDCHAR
STARTCHAR scircumflex
ENCODING 349
SWIDTH 538 0
DWIDTH 7 0
BBX 5 9 1 0
BITMAP
20
50
00
78
80
60
10
08
F0
ENDCHAR
STARTCHAR Scedilla
ENCODING 350
SWIDTH 538 0
DWIDTH 7 0
BBX 5 11 1 -3
BITMAP
70
88
80
60
10
08
88
70
20
10
60
ENDCHAR
STARTCHAR scedilla
ENCODING 351
SWIDTH 538 0
DWIDTH 7 0
BBX 5 9 1 -3
BITMAP
78
80
60
10
08
F0
20
10
60
ENDCHAR
STARTCHAR Scaron
ENCODING 352
SWIDTH 538 0
DWIDTH 7 0
BBX 5 10 1 0
BITMAP
50
20
70
88
80
60
10
08
88
70
ENDCHAR
STARTCHAR scaron
ENCODING 353
SWIDTH 538 0
DWIDTH 7 0
BBX 5 9 1 0
BITMAP
50
20
00
78
80
60
10
08
F0
ENDCHAR
STARTCHAR uni0162
ENCODING 354
SWIDTH 538 0
DWIDTH 7 0
BBX 5 11 1 -3
BITMAP
F8
20
20
20
20
20
20
20
20
10
60
ENDCHAR
STARTCHAR uni0163
ENCODING 355
SWIDTH 538 0
DWIDTH 7 0
BBX 4 11 2 -3
BITMAP
80
80
F0
80
80
80
80
70
20
10
60
ENDCHAR
STARTCHAR Tcaron
ENCODING 356
SWIDTH 538 0
DWIDTH 7 0
BBX 5 10 1 0
BITMAP
50
20
F8
20
20
20
20
20
20
20
ENDCHAR
STARTCHAR tcaron
ENCODING 357
SWIDTH 538 0
DWIDTH 7 0
BBX 4 10 2 0
BITMAP
10
10
A0
80
F0
80
80
80
80
70
ENDCHAR
STARTCHAR Tbar
ENCODING 358
SWIDTH 538 0
DWIDTH 7 0
BBX 5 8 1 0
BITMAP
F8
20
20
20
70
20
20
20
ENDCHAR
STARTCHAR tbar
ENCODING 359
SWIDTH 538 0
DWIDTH 7 0
BBX 5 8 1 0
BITMAP
40
40
78
40
F8
40
40
38
ENDCHAR
STARTCHAR Utilde
ENCODING 360
SWIDTH 538 0
DWIDTH 7 0
BBX 5 10 1 0
BITMAP
68
B0
00
88
88
88
88
88
88
70
ENDCHAR
STARTCHAR utilde
ENCODING 361
SWIDTH 538 0
DWIDTH 7 0
BBX 5 9 1 0
BITMAP
68
B0
00
88
88
88
88
88
70
ENDCHAR
STARTCHAR Umacron
ENCODING 362
SWIDTH 538 0
DWIDTH 7 0
BBX 5 10 1 0
BITMAP
70
00
88
88
88
88
88
88
88
70
ENDCHAR
STARTCHAR umacron
ENCODING 363
SWIDTH 538 0
DWIDTH 7 0
BBX 5 8 1 0
BITMAP
70
00
88
88
88
88
88
78
ENDCHAR
STARTCHAR Ubreve
ENCODING 364
SWIDTH 538 0
DWIDTH 7 0
BBX 5 10 1 0
BITMAP
50
70
88
88
88
88
88
88
88
70
ENDCHAR
STARTCHAR ubreve
ENCODING 365
SWIDTH 538 0
DWIDTH 7 0
BBX 5 9 1 0
BITMAP
50
70
00
88
88
88
88
88
70
ENDCHAR
STARTCHAR Uring
ENCODING 366
SWIDTH 538 0
DWIDTH 7 0
BBX 5 10 1 0
BITMAP
20
50
A8
88
88
88
88
88
88
70
ENDCHAR
STARTCHAR uring
ENCODING 367
SWIDTH 538 0
DWIDTH 7 0
BBX 5 9 1 0
BITMAP
20
50
20
88
88
88
88
88
70
ENDCHAR
STARTCHAR Uhungarumlaut
ENCODING 368
SWIDTH 538 0
DWIDTH 7 0
BBX 5 10 1 0
BITMAP
28
50
88
88
88
88
88
88
88
70
ENDCHAR
STARTCHAR uhungarumlaut
ENCODING 369
SWIDTH 538 0
DWIDTH 7 0
BBX 5 9 1 0
BITMAP
28
50
00
88
88
88
88
88
70
ENDCHAR
STARTCHAR Uogonek
ENCODING 370
SWIDTH 538 0
DWIDTH 7 0
BBX 5 11 1 -3
BITMAP
88
88
88
88
88
88
88
70
10
20
30
ENDCHAR
STARTCHAR uogonek
ENCODING 371
SWIDTH 538 0
DWIDTH 7 0
BBX 5 9 1 -3
BITMAP
88
88
88
88
88
78
08
10
18
ENDCHAR
STARTCHAR Wcircumflex
ENCODING 372
SWIDTH 538 0
DWIDTH 7 0
BBX 5 10 1 0
BITMAP
20
50
88
88
88
88
A8
A8
D8
88
ENDCHAR
STARTCHAR wcircumflex
ENCODING 373
SWIDTH 538 0
DWIDTH 7 0
BBX 7 9 0 0
BITMAP
10
28
00
82
92
92
AA
44
44
ENDCHAR
STARTCHAR Ycircumflex
ENCODING 374
SWIDTH 538 0
DWIDTH 7 0
BBX 5 10 1 0
BITMAP
20
50
88
88
50
50
20
20
20
20
ENDCHAR
STARTCHAR ycircumflex
ENCODING 375
SWIDTH 538 0
DWIDTH 7 0
BBX 5 12 1 -3
BITMAP
20
50
00
88
88
88
50
50
20
20
40
80
ENDCHAR
STARTCHAR Ydieresis
ENCODING 376
SWIDTH 538 0
DWIDTH 7 0
BBX 5 10 1 0
BITMAP
50
00
88
88
50
50
20
20
20
20
ENDCHAR
STARTCHAR Zacute
ENCODING 377
SWIDTH 538 0
DWIDTH 7 0
BBX 5 10 1 0
BITMAP
10
20
F8
08
10
20
40
80
80
F8
ENDCHAR
STARTCHAR zacute
ENCODING 378
SWIDTH 538 0
DWIDTH 7 0
BBX 5 9 1 0
BITMAP
10
20
00
F8
10
20
40
80
F8
ENDCHAR
STARTCHAR Zdotaccent
ENCODING 379
SWIDTH 538 0
DWIDTH 7 0
BBX 5 10 1 0
BITMAP
20
00
F8
08
10
20
40
80
80
F8
ENDCHAR
STARTCHAR zdotaccent
ENCODING 380
SWIDTH 538 0
DWIDTH 7 0
BBX 5 8 1 0
BITMAP
20
00
F8
10
20
40
80
F8
ENDCHAR
STARTCHAR Zcaron
ENCODING 381
SWIDTH 538 0
DWIDTH 7 0
BBX 5 10 1 0
BITMAP
50
20
F8
08
10
20
40
80
80
F8
ENDCHAR
STARTCHAR zcaron
ENCODING 382
SWIDTH 538 0
DWIDTH 7 0
BBX 5 9 1 0
BITMAP
50
20
00
F8
10
20
40
80
F8
ENDCHAR
STARTCHAR longs
ENCODING 383
SWIDTH 538 0
DWIDTH 7 0
BBX 5 8 1 0
BITMAP
38
40
40
40
C0
40
40
40
ENDCHAR
STARTCHAR uni0180
ENCODING 384
SWIDTH 538 0
DWIDTH 7 0
BBX 6 9 0 0
BITMAP
40
F0
40
78
44
44
44
44
78
ENDCHAR
STARTCHAR uni0181
ENCODING 385
SWIDTH 538 0
DWIDTH 7 0
BBX 7 8 0 0
BITMAP
7C
A2
A2
3C
22
22
22
3C
ENDCHAR
STARTCHAR uni0182
ENCODING 386
SWIDTH 538 0
DWIDTH 7 0
BBX 5 8 1 0
BITMAP
F8
80
80
F0
88
88
88
F0
ENDCHAR
STARTCHAR uni0183
ENCODING 387
SWIDTH 538 0
DWIDTH 7 0
BBX 5 9 1 0
BITMAP
F8
80
80
F0
88
88
88
88
F0
ENDCHAR
STARTCHAR uni0184
ENCODING 388
SWIDTH 538 0
DWIDTH 7 0
BBX 6 8 0 0
BITMAP
40
C0
40
78
44
44
44
78
ENDCHAR
STARTCHAR uni0185
ENCODING 389
SWIDTH 538 0
DWIDTH 7 0
BBX 6 9 0 0
BITMAP
40
C0
40
78
44
44
44
44
78
ENDCHAR
STARTCHAR uni0186
ENCODING 390
SWIDTH 538 0
DWIDTH 7 0
BBX 5 8 1 0
BITMAP
70
88
08
08
08
08
88
70
ENDCHAR
STARTCHAR uni0187
ENCODING 391
SWIDTH 538 0
DWIDTH 7 0
BBX 6 10 1 0
BITMAP
04
08
78
80
80
80
80
80
88
70
ENDCHAR
STARTCHAR uni0188
ENCODING 392
SWIDTH 538 0
DWIDTH 7 0
BBX 6 8 1 0
BITMAP
04
08
78
80
80
80
88
70
ENDCHAR
STARTCHAR uni0189
ENCODING 393
SWIDTH 538 0
DWIDTH 7 0
BBX 6 8 0 0
BITMAP
78
44
44
F4
44
44
44
78
ENDCHAR
STARTCHAR uni018A
ENCODING 394
SWIDTH 538 0
DWIDTH 7 0
BBX 7 8 0 0
BITMAP
7C
A2
A2
22
22
22
22
3C
ENDCHAR
STARTCHAR uni018B
ENCODING 395
SWIDTH 538 0
DWIDTH 7 0
BBX 5 8 1 0
BITMAP
F8
08
08
78
88
88
88
78
ENDCHAR
STARTCHAR uni018C
ENCODING 396
SWIDTH 538 0
DWIDTH 7 0
BBX 5 9 1 0
BITMAP
F8
08
08
78
88
88
88
88
78
ENDCHAR
STARTCHAR uni018D
ENCODING 397
SWIDTH 538 0
DWIDTH 7 0
BBX 5 8 1 -2
BITMAP
70
88
88
88
50
20
10
60
ENDCHAR
STARTCHAR uni018E
ENCODING 398
SWIDTH 538 0
DWIDTH 7 0
BBX 5 8 1 0
BITMAP
F8
08
08
78
08
08
08
F8
ENDCHAR
STARTCHAR uni018F
ENCODING 399
SWIDTH 538 0
DWIDTH 7 0
BBX 6 8 1 0
BITMAP
78
84
04
04
FC
84
84
78
ENDCHAR
STARTCHAR uni0190
ENCODING 400
SWIDTH 538 0
DWIDTH 7 0
BBX 5 8 1 0
BITMAP
70
88
80
60
80
80
88
70
ENDCHAR
STARTCHAR uni0191
ENCODING 401
SWIDTH 538 0
DWIDTH 7 0
BBX 7 10 0 -2
BITMAP
3E
20
20
3C
20
20
20
20
20
C0
ENDCHAR
STARTCHAR florin
ENCODING 402
SWIDTH 538 0
DWIDTH 7 0
BBX 6 12 0 -3
BITMAP
1C
20
20
78
20
20
20
20
20
20
20
C0
ENDCHAR
STARTCHAR uni0193
ENCODING 403
SWIDTH 538 0
DWIDTH 7 0
BBX 6 10 1 0
BITMAP
04
08
78
88
80
80
98
88
88
70
ENDCHAR
STARTCHAR uni0194
ENCODING 404
SWIDTH 538 0
DWIDTH 7 0
BBX 5 11 1 -3
BITMAP
88
88
88
50
50
50
20
20
20
50
20
ENDCHAR
STARTCHAR uni0195
ENCODING 405
SWIDTH 538 0
DWIDTH 7 0
BBX 7 9 0 0
BITMAP
80
80
80
E2
92
92
92
92
8C
ENDCHAR
STARTCHAR uni0196
ENCODING 406
SWIDTH 538 0
DWIDTH 7 0
BBX 4 8 1 0
BITMAP
C0
40
40
40
40
40
40
30
ENDCHAR
STARTCHAR uni0197
ENCODING 407
SWIDTH 538 0
DWIDTH 7 0
BBX 3 8 2 0
BITMAP
E0
40
40
E0
40
40
40
E0
ENDCHAR
STARTCHAR uni0198
ENCODING 408
SWIDTH 538 0
DWIDTH 7 0
BBX 5 8 1 0
BITMAP
98
A0
C0
C0
A0
90
88
88
ENDCHAR
STARTCHAR uni0199
ENCODING 409
SWIDTH 538 0
DWIDTH 7 0
BBX 5 9 1 0
BITMAP
60
80
80
88
90
E0
A0
90
88
ENDCHAR
STARTCHAR uni019A
ENCODING 410
SWIDTH 538 0
DWIDTH 7 0
BBX 3 9 1 0
BITMAP
C0
40
40
40
E0
40
40
40
40
ENDCHAR
STARTCHAR uni019B
ENCODING 411
SWIDTH 538 0
DWIDTH 7 0
BBX 5 9 1 0
BITMAP
40
50
20
60
A0
50
50
88
88
ENDCHAR
STARTCHAR uni019C
ENCODING 412
SWIDTH 538 0
DWIDTH 7 0
BBX 7 8 0 0
BITMAP
92
92
92
92
92
92
92
6E
ENDCHAR
STARTCHAR uni019D
ENCODING 413
SWIDTH 538 0
DWIDTH 7 0
BBX 6 10 0 -2
BITMAP
44
64
64
54
54
4C
4C
44
40
80
ENDCHAR
STARTCHAR uni019E
ENCODING 414
SWIDTH 538 0
DWIDTH 7 0
BBX 5 9 1 -3
BITMAP
F0
88
88
88
88
88
08
08
08
ENDCHAR
STARTCHAR uni019F
ENCODING 415
SWIDTH 538 0
DWIDTH 7 0
BBX 5 8 1 0
BITMAP
70
88
88
F8
88
88
88
70
ENDCHAR
STARTCHAR Ohorn
ENCODING 416
SWIDTH 538 0
DWIDTH 7 0
BBX 6 9 0 0
BITMAP
04
7C
88
88
88
88
88
88
70
ENDCHAR
STARTCHAR ohorn
ENCODING 417
SWIDTH 538 0
DWIDTH 7 0
BBX 6 8 1 0
BITMAP
04
04
78
88
88
88
88
70
ENDCHAR
STARTCHAR uni01A2
ENCODING 418
SWIDTH 538 0
DWIDTH 7 0
BBX 7 10 0 -2
BITMAP
7E
8A
8A
8A
8A
8A
8A
7A
02
02
ENDCHAR
STARTCHAR uni01A3
ENCODING 419
SWIDTH 538 0
DWIDTH 7 0
BBX 6 9 1 -3
BITMAP
7C
94
94
94
94
74
04
04
04
ENDCHAR
STARTCHAR uni01A4
ENCODING 420
SWIDTH 538 0
DWIDTH 7 0
BBX 7 8 0 0
BITMAP
7C
A2
A2
22
3C
20
20
20
ENDCHAR
STARTCHAR uni01A5
ENCODING 421
SWIDTH 538 0
DWIDTH 7 0
BBX 5 12 1 -3
BITMAP
60
80
80
F0
88
88
88
88
F0
80
80
80
ENDCHAR
STARTCHAR uni01A6
ENCODING 422
SWIDTH 538 0
DWIDTH 7 0
BBX 5 10 1 -2
BITMAP
80
F0
88
88
88
F0
90
88
08
08
ENDCHAR
STARTCHAR uni01A7
ENCODING 423
SWIDTH 538 0
DWIDTH 7 0
BBX 5 8 1 0
BITMAP
70
88
08
30
40
80
88
70
ENDCHAR
STARTCHAR uni01A8
ENCODING 424
SWIDTH 538 0
DWIDTH 7 0
BBX 5 6 1 0
BITMAP
F0
08
30
40
80
78
ENDCHAR
STARTCHAR uni01A9
ENCODING 425
SWIDTH 538 0
DWIDTH 7 0
BBX 6 8 1 0
BITMAP
FC
40
20
10
10
20
40
FC
ENDCHAR
STARTCHAR uni01AA
ENCODING 426
SWIDTH 538 0
DWIDTH 7 0
BBX 5 12 1 -3
BITMAP
40
A0
60
20
20
20
20
20
20
20
20
18
ENDCHAR
STARTCHAR uni01AB
ENCODING 427
SWIDTH 538 0
DWIDTH 7 0
BBX 4 11 1 -3
BITMAP
80
80
F0
80
80
80
80
70
10
10
60
ENDCHAR
STARTCHAR uni01AC
ENCODING 428
SWIDTH 538 0
DWIDTH 7 0
BBX 6 8 1 0
BITMAP
7C
90
90
10
10
10
10
10
ENDCHAR
STARTCHAR uni01AD
ENCODING 429
SWIDTH 538 0
DWIDTH 7 0
BBX 4 9 1 0
BITMAP
60
80
80
F0
80
80
80
80
70
ENDCHAR
STARTCHAR uni01AE
ENCODING 430
SWIDTH 538 0
DWIDTH 7 0
BBX 5 10 1 -2
BITMAP
F8
20
20
20
20
20
20
20
20
18
ENDCHAR
STARTCHAR Uhorn
ENCODING 431
SWIDTH 538 0
DWIDTH 7 0
BBX 7 10 0 0
BITMAP
02
02
8C
88
88
88
88
88
88
70
ENDCHAR
STARTCHAR uhorn
ENCODING 432
SWIDTH 538 0
DWIDTH 7 0
BBX 7 8 0 0
BITMAP
02
02
8C
88
88
88
88
70
ENDCHAR
STARTCHAR uni01B1
ENCODING 433
SWIDTH 538 0
DWIDTH 7 0
BBX 7 8 0 0
BITMAP
EE
28
44
82
82
82
44
38
ENDCHAR
STARTCHAR uni01B2
ENCODING 434
SWIDTH 538 0
DWIDTH 7 0
BBX 6 8 1 0
BITMAP
88
84
84
84
84
84
88
70
ENDCHAR
STARTCHAR uni01B3
ENCODING 435
SWIDTH 538 0
DWIDTH 7 0
BBX 7 8 0 0
BITMAP
86
88
88
50
50
20
20
20
ENDCHAR
STARTCHAR uni01B4
ENCODING 436
SWIDTH 538 0
DWIDTH 7 0
BBX 7 9 0 -3
BITMAP
86
88
88
50
50
20
20
40
80
ENDCHAR
STARTCHAR uni01B5
ENCODING 437
SWIDTH 538 0
DWIDTH 7 0
BBX 5 8 1 0
BITMAP
F8
08
10
F8
40
80
80
F8
ENDCHAR
STARTCHAR uni01B6
ENCODING 438
SWIDTH 538 0
DWIDTH 7 0
BBX 5 6 1 0
BITMAP
F8
10
78
20
40
F8
ENDCHAR
STARTCHAR uni01B7
ENCODING 439
SWIDTH 538 0
DWIDTH 7 0
BBX 5 8 1 0
BITMAP
F8
08
10
30
08
08
88
70
ENDCHAR
STARTCHAR uni01B8
ENCODING 440
SWIDTH 538 0
DWIDTH 7 0
BBX 5 8 1 0
BITMAP
F8
80
40
60
80
80
88
70
ENDCHAR
STARTCHAR uni01B9
ENCODING 441
SWIDTH 538 0
DWIDTH 7 0
BBX 5 8 1 -2
BITMAP
F8
80
40
20
40
80
88
70
ENDCHAR
STARTCHAR uni01BA
ENCODING 442
SWIDTH 538 0
DWIDTH 7 0
BBX 5 9 1 -3
BITMAP
F8
08
10
30
08
08
70
80
70
ENDCHAR
STARTCHAR uni01BB
ENCODING 443
SWIDTH 538 0
DWIDTH 7 0
BBX 5 8 1 0
BITMAP
70
88
08
10
F8
40
80
F8
ENDCHAR
STARTCHAR uni01BC
ENCODING 444
SWIDTH 538 0
DWIDTH 7 0
BBX 6 8 1 0
BITMAP
FC
40
40
78
04
04
44
38
ENDCHAR
STARTCHAR uni01BD
ENCODING 445
SWIDTH 538 0
DWIDTH 7 0
BBX 6 6 1 0
BITMAP
FC
40
78
04
44
38
ENDCHAR
STARTCHAR uni01BE
ENCODING 446
SWIDTH 538 0
DWIDTH 7 0
BBX 5 9 1 0
BITMAP
40
40
E0
40
40
30
08
88
70
ENDCHAR
STARTCHAR uni01BF
ENCODING 447
SWIDTH 538 0
DWIDTH 7 0
BBX 5 9 1 -3
BITMAP
B0
C8
88
88
90
A0
C0
80
80
ENDCHAR
STARTCHAR uni01C0
ENCODING 448
SWIDTH 538 0
DWIDTH 7 0
BBX 1 11 3 -3
BITMAP
80
80
80
80
80
80
80
80
80
80
80
ENDCHAR
STARTCHAR uni01C1
ENCODING 449
SWIDTH 538 0
DWIDTH 7 0
BBX 3 11 2 -3
BITMAP
A0
A0
A0
A0
A0
A0
A0
A0
A0
A0
A0
ENDCHAR
STARTCHAR uni01C2
ENCODING 450
SWIDTH 538 0
DWIDTH 7 0
BBX 3 9 2 0
BITMAP
40
40
40
E0
40
E0
40
40
40
ENDCHAR
STARTCHAR uni01C3
ENCODING 451
SWIDTH 538 0
DWIDTH 7 0
BBX 1 8 3 0
BITMAP
80
80
80
80
80
80
00
80
ENDCHAR
STARTCHAR uni01C4
ENCODING 452
SWIDTH 538 0
DWIDTH 7 0
BBX 7 10 0 0
BITMAP
0A
04
00
EE
92
94
94
98
90
FE
ENDCHAR
STARTCHAR uni01C5
ENCODING 453
SWIDTH 538 0
DWIDTH 7 0
BBX 7 9 0 0
BITMAP
0A
E4
90
9E
92
94
98
90
FE
ENDCHAR
STARTCHAR uni01C6
ENCODING 454
SWIDTH 538 0
DWIDTH 7 0
BBX 7 9 0 0
BITMAP
0A
14
10
7E
92
94
98
90
7E
ENDCHAR
STARTCHAR uni01C7
ENCODING 455
SWIDTH 538 0
DWIDTH 7 0
BBX 6 10 1 -2
BITMAP
8C
84
84
84
84
84
84
F4
04
38
ENDCHAR
STARTCHAR uni01C8
ENCODING 456
SWIDTH 538 0
DWIDTH 7 0
BBX 6 12 0 -3
BITMAP
04
84
80
8C
84
84
84
84
F4
04
24
18
ENDCHAR
STARTCHAR uni01C9
ENCODING 457
SWIDTH 538 0
DWIDTH 7 0
BBX 5 12 1 -3
BITMAP
C8
48
40
58
48
48
48
48
48
08
48
30
ENDCHAR
STARTCHAR uni01CA
ENCODING 458
SWIDTH 538 0
DWIDTH 7 0
BBX 7 10 0 -2
BITMAP
96
D2
D2
B2
B2
92
92
92
02
1C
ENDCHAR
STARTCHAR uni01CB
ENCODING 459
SWIDTH 538 0
DWIDTH 7 0
BBX 7 12 0 -3
BITMAP
02
92
90
D6
D2
B2
B2
92
92
02
12
0C
ENDCHAR
STARTCHAR uni01CC
ENCODING 460
SWIDTH 538 0
DWIDTH 7 0
BBX 7 12 0 -3
BITMAP
02
02
00
E6
92
92
92
92
92
02
12
0C
ENDCHAR
STARTCHAR uni01CD
ENCODING 461
SWIDTH 538 0
DWIDTH 7 0
BBX 5 10 1 0
BITMAP
50
20
70
88
88
88
F8
88
88
88
ENDCHAR
STARTCHAR uni01CE
ENCODING 462
SWIDTH 538 0
DWIDTH 7 0
BBX 5 9 1 0
BITMAP
50
20
00
70
08
78
88
88
78
ENDCHAR
STARTCHAR uni01CF
ENCODING 463
SWIDTH 538 0
DWIDTH 7 0
BBX 3 10 2 0
BITMAP
A0
40
E0
40
40
40
40
40
40
E0
ENDCHAR
STARTCHAR uni01D0
ENCODING 464
SWIDTH 538 0
DWIDTH 7 0
BBX 3 9 2 0
BITMAP
A0
40
00
C0
40
40
40
40
40
ENDCHAR
STARTCHAR uni01D1
ENCODING 465
SWIDTH 538 0
DWIDTH 7 0
BBX 5 10 1 0
BITMAP
50
20
70
88
88
88
88
88
88
70
ENDCHAR
STARTCHAR uni01D2
ENCODING 466
SWIDTH 538 0
DWIDTH 7 0
BBX 5 9 1 0
BITMAP
50
20
00
70
88
88
88
88
70
ENDCHAR
STARTCHAR uni01D3
ENCODING 467
SWIDTH 538 0
DWIDTH 7 0
BBX 5 10 1 0
BITMAP
50
20
88
88
88
88
88
88
88
70
ENDCHAR
STARTCHAR uni01D4
ENCODING 468
SWIDTH 538 0
DWIDTH 7 0
BBX 5 9 1 0
BITMAP
50
20
00
88
88
88
88
88
78
ENDCHAR
STARTCHAR uni01D5
ENCODING 469
SWIDTH 538 0
DWIDTH 7 0
BBX 5 10 1 0
BITMAP
70
00
50
88
88
88
88
88
88
70
ENDCHAR
STARTCHAR uni01D6
ENCODING 470
SWIDTH 538 0
DWIDTH 7 0
BBX 5 10 1 0
BITMAP
70
00
50
00
88
88
88
88
88
78
ENDCHAR
STARTCHAR uni01D7
ENCODING 471
SWIDTH 538 0
DWIDTH 7 0
BBX 5 10 1 0
BITMAP
10
20
50
88
88
88
88
88
88
70
ENDCHAR
STARTCHAR uni01D8
ENCODING 472
SWIDTH 538 0
DWIDTH 7 0
BBX 5 10 1 0
BITMAP
10
20
50
00
88
88
88
88
88
78
ENDCHAR
STARTCHAR uni01D9
ENCODING 473
SWIDTH 538 0
DWIDTH 7 0
BBX 5 10 1 0
BITMAP
50
20
50
88
88
88
88
88
88
70
ENDCHAR
STARTCHAR uni01DA
ENCODING 474
SWIDTH 538 0
DWIDTH 7 0
BBX 5 10 1 0
BITMAP
50
20
50
00
88
88
88
88
88
78
ENDCHAR
STARTCHAR uni01DB
ENCODING 475
SWIDTH 538 0
DWIDTH 7 0
BBX 5 10 1 0
BITMAP
40
20
50
88
88
88
88
88
88
70
ENDCHAR
STARTCHAR uni01DC
ENCODING 476
SWIDTH 538 0
DWIDTH 7 0
BBX 5 10 1 0
BITMAP
40
20
50
00
88
88
88
88
88
78
ENDCHAR
STARTCHAR uni01DD
ENCODING 477
SWIDTH 538 0
DWIDTH 7 0
BBX 5 6 1 0
BITMAP
70
88
08
F8
88
70
ENDCHAR
STARTCHAR uni01DE
ENCODING 478
SWIDTH 538 0
DWIDTH 7 0
BBX 5 10 1 0
BITMAP
70
00
50
70
88
88
F8
88
88
88
ENDCHAR
STARTCHAR uni01DF
ENCODING 479
SWIDTH 538 0
DWIDTH 7 0
BBX 5 10 1 0
BITMAP
70
00
50
00
70
08
78
88
88
78
ENDCHAR
STARTCHAR uni01E0
ENCODING 480
SWIDTH 538 0
DWIDTH 7 0
BBX 5 10 1 0
BITMAP
70
00
20
70
88
88
F8
88
88
88
ENDCHAR
STARTCHAR uni01E1
ENCODING 481
SWIDTH 538 0
DWIDTH 7 0
BBX 5 10 1 0
BITMAP
70
00
20
00
70
08
78
88
88
78
ENDCHAR
STARTCHAR uni01E2
ENCODING 482
SWIDTH 538 0
DWIDTH 7 0
BBX 7 10 0 0
BITMAP
38
00
3E
50
50
5C
70
90
90
9E
ENDCHAR
STARTCHAR uni01E3
ENCODING 483
SWIDTH 538 0
DWIDTH 7 0
BBX 7 8 0 0
BITMAP
38
00
7C
12
7E
90
92
7C
ENDCHAR
STARTCHAR uni01E4
ENCODING 484
SWIDTH 538 0
DWIDTH 7 0
BBX 6 8 1 0
BITMAP
70
88
80
98
88
BC
88
70
ENDCHAR
STARTCHAR uni01E5
ENCODING 485
SWIDTH 538 0
DWIDTH 7 0
BBX 6 9 1 -3
BITMAP
78
88
88
88
78
08
3C
08
70
ENDCHAR
STARTCHAR Gcaron
ENCODING 486
SWIDTH 538 0
DWIDTH 7 0
BBX 5 10 1 0
BITMAP
50
20
70
88
80
80
98
88
88
70
ENDCHAR
STARTCHAR gcaron
ENCODING 487
SWIDTH 538 0
DWIDTH 7 0
BBX 5 12 1 -3
BITMAP
50
20
00
78
88
88
88
88
78
08
08
F0
ENDCHAR
STARTCHAR uni01E8
ENCODING 488
SWIDTH 538 0
DWIDTH 7 0
BBX 5 10 1 0
BITMAP
50
20
88
90
A0
C0
A0
90
88
88
ENDCHAR
STARTCHAR uni01E9
ENCODING 489
SWIDTH 538 0
DWIDTH 7 0
BBX 5 10 1 0
BITMAP
28
90
80
80
88
90
A0
E0
90
88
ENDCHAR
STARTCHAR uni01EA
ENCODING 490
SWIDTH 538 0
DWIDTH 7 0
BBX 5 11 1 -3
BITMAP
70
88
88
88
88
88
88
70
10
20
30
ENDCHAR
STARTCHAR uni01EB
ENCODING 491
SWIDTH 538 0
DWIDTH 7 0
BBX 5 9 1 -3
BITMAP
70
88
88
88
88
70
10
20
30
ENDCHAR
STARTCHAR uni01EC
ENCODING 492
SWIDTH 538 0
DWIDTH 7 0
BBX 5 13 1 -3
BITMAP
70
00
70
88
88
88
88
88
88
70
10
20
30
ENDCHAR
STARTCHAR uni01ED
ENCODING 493
SWIDTH 538 0
DWIDTH 7 0
BBX 5 11 1 -3
BITMAP
70
00
70
88
88
88
88
70
10
20
30
ENDCHAR
STARTCHAR uni01EE
ENCODING 494
SWIDTH 538 0
DWIDTH 7 0
BBX 5 10 1 0
BITMAP
50
20
F8
08
10
30
08
08
88
70
ENDCHAR
STARTCHAR uni01EF
ENCODING 495
SWIDTH 538 0
DWIDTH 7 0
BBX 5 11 1 -2
BITMAP
50
20
00
F8
08
10
30
08
08
88
70
ENDCHAR
STARTCHAR uni01F0
ENCODING 496
SWIDTH 538 0
DWIDTH 7 0
BBX 5 12 0 -3
BITMAP
28
10
00
30
10
10
10
10
10
10
90
60
ENDCHAR
STARTCHAR uni01F1
ENCODING 497
SWIDTH 538 0
DWIDTH 7 0
BBX 7 8 0 0
BITMAP
EE
92
94
94
98
98
90
FE
ENDCHAR
STARTCHAR uni01F2
ENCODING 498
SWIDTH 538 0
DWIDTH 7 0
BBX 7 8 0 0
BITMAP
E0
90
9E
92
94
94
98
EE
ENDCHAR
STARTCHAR uni01F3
ENCODING 499
SWIDTH 538 0
DWIDTH 7 0
BBX 7 9 0 0
BITMAP
10
10
10
7E
92
94
94
98
7E
ENDCHAR
STARTCHAR uni01F4
ENCODING 500
SWIDTH 538 0
DWIDTH 7 0
BBX 5 10 1 0
BITMAP
10
20
70
88
80
80
98
88
88
70
ENDCHAR
STARTCHAR uni01F5
ENCODING 501
SWIDTH 538 0
DWIDTH 7 0
BBX 5 12 1 -3
BITMAP
10
20
00
78
88
88
88
88
78
08
08
70
ENDCHAR
STARTCHAR uni01F6
ENCODING 502
SWIDTH 538 0
DWIDTH 7 0
BBX 7 8 0 0
BITMAP
90
90
92
F2
92
92
92
8C
ENDCHAR
STARTCHAR uni01F7
ENCODING 503
SWIDTH 538 0
DWIDTH 7 0
BBX 5 10 1 -2
BITMAP
B0
C8
88
88
88
90
A0
C0
80
80
ENDCHAR
STARTCHAR uni01F8
ENCODING 504
SWIDTH 1000 0
DWIDTH 7 0
BBX 5 10 1 0
BITMAP
40
20
88
C8
C8
A8
A8
98
98
88
ENDCHAR
STARTCHAR uni01F9
ENCODING 505
SWIDTH 1000 0
DWIDTH 7 0
BBX 5 9 1 0
BITMAP
40
20
00
F0
88
88
88
88
88
ENDCHAR
STARTCHAR Aringacute
ENCODING 506
SWIDTH 538 0
DWIDTH 7 0
BBX 5 11 1 0
BITMAP
10
20
50
20
70
88
88
F8
88
88
88
ENDCHAR
STARTCHAR aringacute
ENCODING 507
SWIDTH 538 0
DWIDTH 7 0
BBX 5 10 1 0
BITMAP
10
20
50
20
70
08
78
88
88
78
ENDCHAR
STARTCHAR AEacute
ENCODING 508
SWIDTH 538 0
DWIDTH 7 0
BBX 7 10 0 0
BITMAP
08
10
3E
50
50
5C
70
90
90
9E
ENDCHAR
STARTCHAR aeacute
ENCODING 509
SWIDTH 538 0
DWIDTH 7 0
BBX 7 9 0 0
BITMAP
08
10
00
7C
12
7E
90
92
7C
ENDCHAR
STARTCHAR Oslashacute
ENCODING 510
SWIDTH 538 0
DWIDTH 7 0
BBX 5 10 1 0
BITMAP
10
20
70
88
98
A8
A8
C8
88
70
ENDCHAR
STARTCHAR oslashacute
ENCODING 511
SWIDTH 538 0
DWIDTH 7 0
BBX 5 9 1 0
BITMAP
10
20
00
78
98
A8
A8
C8
F0
ENDCHAR
STARTCHAR uni0200
ENCODING 512
SWIDTH 538 0
DWIDTH 7 0
BBX 5 10 1 0
BITMAP
A0
50
70
88
88
F8
88
88
88
88
ENDCHAR
STARTCHAR uni0201
ENCODING 513
SWIDTH 538 0
DWIDTH 7 0
BBX 5 9 1 0
BITMAP
A0
50
00
70
08
78
88
88
78
ENDCHAR
STARTCHAR uni0202
ENCODING 514
SWIDTH 538 0
DWIDTH 7 0
BBX 5 10 1 0
BITMAP
70
50
70
88
88
F8
88
88
88
88
ENDCHAR
STARTCHAR uni0203
ENCODING 515
SWIDTH 538 0
DWIDTH 7 0
BBX 5 9 1 0
BITMAP
70
50
00
70
08
78
88
88
78
ENDCHAR
STARTCHAR uni0204
ENCODING 516
SWIDTH 538 0
DWIDTH 7 0
BBX 5 10 1 0
BITMAP
A0
50
F8
80
80
F0
80
80
80
F8
ENDCHAR
STARTCHAR uni0205
ENCODING 517
SWIDTH 538 0
DWIDTH 7 0
BBX 5 9 1 0
BITMAP
A0
50
00
70
88
F8
80
88
70
ENDCHAR
STARTCHAR uni0206
ENCODING 518
SWIDTH 538 0
DWIDTH 7 0
BBX 5 10 1 0
BITMAP
70
50
F8
80
80
F0
80
80
80
F8
ENDCHAR
STARTCHAR uni0207
ENCODING 519
SWIDTH 538 0
DWIDTH 7 0
BBX 5 9 1 0
BITMAP
70
50
00
70
88
F8
80
88
70
ENDCHAR
STARTCHAR uni0208
ENCODING 520
SWIDTH 538 0
DWIDTH 7 0
BBX 4 10 1 0
BITMAP
A0
50
70
20
20
20
20
20
20
70
ENDCHAR
STARTCHAR uni0209
ENCODING 521
SWIDTH 538 0
DWIDTH 7 0
BBX 4 9 1 0
BITMAP
A0
50
00
60
20
20
20
20
20
ENDCHAR
STARTCHAR uni020A
ENCODING 522
SWIDTH 538 0
DWIDTH 7 0
BBX 3 10 2 0
BITMAP
E0
A0
E0
40
40
40
40
40
40
E0
ENDCHAR
STARTCHAR uni020B
ENCODING 523
SWIDTH 538 0
DWIDTH 7 0
BBX 3 9 2 0
BITMAP
E0
A0
00
C0
40
40
40
40
40
ENDCHAR
STARTCHAR uni020C
ENCODING 524
SWIDTH 538 0
DWIDTH 7 0
BBX 5 10 1 0
BITMAP
A0
50
70
88
88
88
88
88
88
70
ENDCHAR
STARTCHAR uni020D
ENCODING 525
SWIDTH 538 0
DWIDTH 7 0
BBX 5 9 1 0
BITMAP
A0
50
00
70
88
88
88
88
70
ENDCHAR
STARTCHAR uni020E
ENCODING 526
SWIDTH 538 0
DWIDTH 7 0
BBX 5 10 1 0
BITMAP
70
50
70
88
88
88
88
88
88
70
ENDCHAR
STARTCHAR uni020F
ENCODING 527
SWIDTH 538 0
DWIDTH 7 0
BBX 5 9 1 0
BITMAP
70
50
00
70
88
88
88
88
70
ENDCHAR
STARTCHAR uni0210
ENCODING 528
SWIDTH 538 0
DWIDTH 7 0
BBX 5 10 1 0
BITMAP
A0
50
F0
88
88
88
F0
90
88
88
ENDCHAR
STARTCHAR uni0211
ENCODING 529
SWIDTH 538 0
DWIDTH 7 0
BBX 5 9 1 0
BITMAP
A0
50
00
B0
C8
80
80
80
80
ENDCHAR
STARTCHAR uni0212
ENCODING 530
SWIDTH 538 0
DWIDTH 7 0
BBX 5 10 1 0
BITMAP
70
50
F0
88
88
88
F0
90
88
88
ENDCHAR
STARTCHAR uni0213
ENCODING 531
SWIDTH 538 0
DWIDTH 7 0
BBX 5 9 1 0
BITMAP
70
50
00
B0
C8
80
80
80
80
ENDCHAR
STARTCHAR uni0214
ENCODING 532
SWIDTH 538 0
DWIDTH 7 0
BBX 5 10 1 0
BITMAP
A0
50
00
88
88
88
88
88
88
70
ENDCHAR
STARTCHAR uni0215
ENCODING 533
SWIDTH 538 0
DWIDTH 7 0
BBX 5 9 1 0
BITMAP
A0
50
00
88
88
88
88
88
78
ENDCHAR
STARTCHAR uni0216
ENCODING 534
SWIDTH 538 0
DWIDTH 7 0
BBX 5 10 1 0
BITMAP
70
50
88
88
88
88
88
88
88
70
ENDCHAR
STARTCHAR uni0217
ENCODING 535
SWIDTH 538 0
DWIDTH 7 0
BBX 5 9 1 0
BITMAP
70
50
00
88
88
88
88
88
78
ENDCHAR
STARTCHAR uni0218
ENCODING 536
SWIDTH 538 0
DWIDTH 7 0
BBX 5 11 1 -3
BITMAP
70
88
80
60
10
08
88
70
30
10
20
ENDCHAR
STARTCHAR uni0219
ENCODING 537
SWIDTH 538 0
DWIDTH 7 0
BBX 5 9 1 -3
BITMAP
78
80
60
10
08
F0
30
10
20
ENDCHAR
STARTCHAR uni021A
ENCODING 538
SWIDTH 538 0
DWIDTH 7 0
BBX 5 11 1 -3
BITMAP
F8
20
20
20
20
20
20
20
20
20
40
ENDCHAR
STARTCHAR uni021B
ENCODING 539
SWIDTH 538 0
DWIDTH 7 0
BBX 4 11 2 -3
BITMAP
80
80
F0
80
80
80
80
70
60
20
40
ENDCHAR
STARTCHAR uni021C
ENCODING 540
SWIDTH 538 0
DWIDTH 7 0
BBX 5 8 1 0
BITMAP
70
88
08
70
10
08
88
70
ENDCHAR
STARTCHAR uni021D
ENCODING 541
SWIDTH 538 0
DWIDTH 7 0
BBX 5 9 1 -3
BITMAP
70
88
08
70
10
08
08
88
70
ENDCHAR
STARTCHAR uni021E
ENCODING 542
SWIDTH 538 0
DWIDTH 7 0
BBX 5 10 1 0
BITMAP
50
20
88
88
88
F8
88
88
88
88
ENDCHAR
STARTCHAR uni021F
ENCODING 543
SWIDTH 538 0
DWIDTH 7 0
BBX 5 10 1 0
BITMAP
50
A0
80
80
F0
88
88
88
88
88
ENDCHAR
STARTCHAR uni0220
ENCODING 544
SWIDTH 538 0
DWIDTH 7 0
BBX 5 11 1 -3
BITMAP
B0
C8
88
88
88
88
88
88
08
08
08
ENDCHAR
STARTCHAR uni0221
ENCODING 545
SWIDTH 538 0
DWIDTH 7 0
BBX 6 12 1 -3
BITMAP
08
08
08
78
88
88
88
88
78
10
10
0C
ENDCHAR
STARTCHAR uni0222
ENCODING 546
SWIDTH 538 0
DWIDTH 7 0
BBX 5 8 1 0
BITMAP
50
88
88
70
88
88
88
70
ENDCHAR
STARTCHAR uni0223
ENCODING 547
SWIDTH 538 0
DWIDTH 7 0
BBX 5 9 1 0
BITMAP
50
88
88
70
88
88
88
88
70
ENDCHAR
STARTCHAR uni0224
ENCODING 548
SWIDTH 538 0
DWIDTH 7 0
BBX 5 10 1 -2
BITMAP
F8
08
10
20
40
80
80
F8
08
10
ENDCHAR
STARTCHAR uni0225
ENCODING 549
SWIDTH 538 0
DWIDTH 7 0
BBX 5 8 1 -2
BITMAP
F8
10
20
40
80
F8
08
10
ENDCHAR
STARTCHAR uni0226
ENCODING 550
SWIDTH 538 0
DWIDTH 7 0
BBX 5 10 1 0
BITMAP
20
00
70
88
88
F8
88
88
88
88
ENDCHAR
STARTCHAR uni0227
ENCODING 551
SWIDTH 538 0
DWIDTH 7 0
BBX 5 8 1 0
BITMAP
20
00
70
08
78
88
88
78
ENDCHAR
STARTCHAR uni0228
ENCODING 552
SWIDTH 538 0
DWIDTH 7 0
BBX 5 11 1 -3
BITMAP
F8
80
80
F0
80
80
80
F8
20
10
60
ENDCHAR
STARTCHAR uni0229
ENCODING 553
SWIDTH 538 0
DWIDTH 7 0
BBX 5 9 1 -3
BITMAP
70
88
F8
80
88
70
20
10
60
ENDCHAR
STARTCHAR uni022A
ENCODING 554
SWIDTH 538 0
DWIDTH 7 0
BBX 5 10 1 0
BITMAP
70
00
50
70
88
88
88
88
88
70
ENDCHAR
STARTCHAR uni022B
ENCODING 555
SWIDTH 538 0
DWIDTH 7 0
BBX 5 10 1 0
BITMAP
70
00
50
00
70
88
88
88
88
70
ENDCHAR
STARTCHAR uni022C
ENCODING 556
SWIDTH 538 0
DWIDTH 7 0
BBX 5 10 1 0
BITMAP
F8
68
B0
70
88
88
88
88
88
70
ENDCHAR
STARTCHAR uni022D
ENCODING 557
SWIDTH 538 0
DWIDTH 7 0
BBX 5 10 1 0
BITMAP
70
00
68
90
70
88
88
88
88
70
ENDCHAR
STARTCHAR uni022E
ENCODING 558
SWIDTH 538 0
DWIDTH 7 0
BBX 5 10 1 0
BITMAP
20
00
70
88
88
88
88
88
88
70
ENDCHAR
STARTCHAR uni022F
ENCODING 559
SWIDTH 538 0
DWIDTH 7 0
BBX 5 8 1 0
BITMAP
20
00
70
88
88
88
88
70
ENDCHAR
STARTCHAR uni0230
ENCODING 560
SWIDTH 538 0
DWIDTH 7 0
BBX 5 10 1 0
BITMAP
70
20
70
88
88
88
88
88
88
70
ENDCHAR
STARTCHAR uni0231
ENCODING 561
SWIDTH 538 0
DWIDTH 7 0
BBX 5 10 1 0
BITMAP
70
00
20
00
70
88
88
88
88
70
ENDCHAR
STARTCHAR uni0232
ENCODING 562
SWIDTH 538 0
DWIDTH 7 0
BBX 5 10 1 0
BITMAP
70
00
88
88
50
50
20
20
20
20
ENDCHAR
STARTCHAR uni0233
ENCODING 563
SWIDTH 538 0
DWIDTH 7 0
BBX 5 11 1 -3
BITMAP
70
00
88
88
88
50
50
20
20
40
40
ENDCHAR
STARTCHAR uni0234
ENCODING 564
SWIDTH 538 0
DWIDTH 7 0
BBX 5 10 1 -1
BITMAP
C0
40
40
40
40
40
50
68
30
20
ENDCHAR
STARTCHAR uni0235
ENCODING 565
SWIDTH 538 0
DWIDTH 7 0
BBX 7 6 0 0
BITMAP
F0
88
88
8C
8A
94
ENDCHAR
STARTCHAR uni0236
ENCODING 566
SWIDTH 538 0
DWIDTH 7 0
BBX 4 9 2 -1
BITMAP
80
80
F0
80
80
A0
D0
60
40
ENDCHAR
STARTCHAR uni0237
ENCODING 567
SWIDTH 538 0
DWIDTH 7 0
BBX 4 9 0 -3
BITMAP
30
10
10
10
10
10
10
90
60
ENDCHAR
STARTCHAR uni0238
ENCODING 568
SWIDTH 538 0
DWIDTH 7 0
BBX 7 8 0 0
BITMAP
10
10
7C
92
92
92
92
6C
ENDCHAR
STARTCHAR uni0239
ENCODING 569
SWIDTH 538 0
DWIDTH 7 0
BBX 7 8 0 -2
BITMAP
6C
92
92
92
92
7C
10
10
ENDCHAR
STARTCHAR uni023A
ENCODING 570
SWIDTH 538 0
DWIDTH 7 0
BBX 5 9 1 0
BITMAP
08
78
98
A8
F8
A8
C8
C8
88
ENDCHAR
STARTCHAR uni023B
ENCODING 571
SWIDTH 538 0
DWIDTH 7 0
BBX 5 10 1 -1
BITMAP
08
78
98
90
A0
A0
C0
C8
F0
80
ENDCHAR
STARTCHAR uni023C
ENCODING 572
SWIDTH 538 0
DWIDTH 7 0
BBX 5 10 1 -2
BITMAP
08
08
70
98
90
A0
A8
70
40
40
ENDCHAR
STARTCHAR uni023D
ENCODING 573
SWIDTH 538 0
DWIDTH 7 0
BBX 6 8 0 0
BITMAP
40
40
40
F0
40
40
40
7C
ENDCHAR
STARTCHAR uni023E
ENCODING 574
SWIDTH 538 0
DWIDTH 7 0
BBX 6 9 1 0
BITMAP
04
F8
28
30
30
60
60
A0
A0
ENDCHAR
STARTCHAR uni023F
ENCODING 575
SWIDTH 538 0
DWIDTH 7 0
BBX 6 9 1 -3
BITMAP
78
80
60
10
08
F0
40
24
18
ENDCHAR
STARTCHAR uni0240
ENCODING 576
SWIDTH 538 0
DWIDTH 7 0
BBX 7 9 0 -3
BITMAP
7C
08
10
20
40
C0
20
12
0C
ENDCHAR
STARTCHAR uni0241
ENCODING 577
SWIDTH 538 0
DWIDTH 7 0
BBX 5 8 1 0
BITMAP
70
88
08
30
20
20
20
20
ENDCHAR
STARTCHAR uni0242
ENCODING 578
SWIDTH 538 0
DWIDTH 7 0
BBX 5 6 1 0
BITMAP
70
88
08
30
20
20
ENDCHAR
STARTCHAR uni0243
ENCODING 579
SWIDTH 538 0
DWIDTH 7 0
BBX 6 8 0 0
BITMAP
78
44
44
78
44
F4
44
78
ENDCHAR
STARTCHAR uni0244
ENCODING 580
SWIDTH 538 0
DWIDTH 7 0
BBX 7 8 0 0
BITMAP
44
44
44
FE
44
44
44
38
ENDCHAR
STARTCHAR uni0245
ENCODING 581
SWIDTH 538 0
DWIDTH 7 0
BBX 5 8 1 0
BITMAP
20
20
50
50
50
88
88
88
ENDCHAR
STARTCHAR uni0246
ENCODING 582
SWIDTH 538 0
DWIDTH 7 0
BBX 5 10 1 -1
BITMAP
08
F8
90
A0
F0
A0
C0
C0
F8
80
ENDCHAR
STARTCHAR uni0247
ENCODING 583
SWIDTH 538 0
DWIDTH 7 0
BBX 5 9 1 -1
BITMAP
20
20
70
A8
F8
A0
A8
70
20
ENDCHAR
STARTCHAR uni0248
ENCODING 584
SWIDTH 538 0
DWIDTH 7 0
BBX 5 8 1 0
BITMAP
38
10
10
38
10
10
90
60
ENDCHAR
STARTCHAR uni0249
ENCODING 585
SWIDTH 538 0
DWIDTH 7 0
BBX 5 12 0 -3
BITMAP
10
10
00
30
10
10
78
10
10
10
90
60
ENDCHAR
STARTCHAR uni024A
ENCODING 586
SWIDTH 538 0
DWIDTH 7 0
BBX 6 10 1 -2
BITMAP
78
88
88
88
88
88
88
78
08
04
ENDCHAR
STARTCHAR uni024B
ENCODING 587
SWIDTH 538 0
DWIDTH 7 0
BBX 6 8 1 -2
BITMAP
78
88
88
88
88
78
08
04
ENDCHAR
STARTCHAR uni024C
ENCODING 588
SWIDTH 538 0
DWIDTH 7 0
BBX 6 8 0 0
BITMAP
78
44
44
F8
48
44
44
44
ENDCHAR
STARTCHAR uni024D
ENCODING 589
SWIDTH 538 0
DWIDTH 7 0
BBX 6 6 0 0
BITMAP
58
64
40
E0
40
40
ENDCHAR
STARTCHAR uni024E
ENCODING 590
SWIDTH 538 0
DWIDTH 7 0
BBX 7 8 0 0
BITMAP
44
FE
44
28
28
10
10
10
ENDCHAR
STARTCHAR uni024F
ENCODING 591
SWIDTH 538 0
DWIDTH 7 0
BBX 7 9 0 -3
BITMAP
44
44
FE
28
28
10
10
20
40
ENDCHAR
STARTCHAR uni0250
ENCODING 592
SWIDTH 538 0
DWIDTH 7 0
BBX 5 6 1 0
BITMAP
F0
88
88
F0
80
70
ENDCHAR
STARTCHAR uni0251
ENCODING 593
SWIDTH 538 0
DWIDTH 7 0
BBX 5 6 1 0
BITMAP
78
88
88
88
98
68
ENDCHAR
STARTCHAR uni0252
ENCODING 594
SWIDTH 538 0
DWIDTH 7 0
BBX 5 6 1 0
BITMAP
B0
C8
88
88
88
F0
ENDCHAR
STARTCHAR uni0253
ENCODING 595
SWIDTH 538 0
DWIDTH 7 0
BBX 5 9 1 0
BITMAP
60
90
80
F0
88
88
88
88
F0
ENDCHAR
STARTCHAR uni0254
ENCODING 596
SWIDTH 538 0
DWIDTH 7 0
BBX 5 6 1 0
BITMAP
70
88
08
08
88
70
ENDCHAR
STARTCHAR uni0255
ENCODING 597
SWIDTH 538 0
DWIDTH 7 0
BBX 5 6 1 0
BITMAP
78
80
98
A8
C8
B0
ENDCHAR
STARTCHAR uni0256
ENCODING 598
SWIDTH 538 0
DWIDTH 7 0
BBX 7 12 0 -3
BITMAP
08
08
08
78
88
88
88
88
78
08
08
06
ENDCHAR
STARTCHAR uni0257
ENCODING 599
SWIDTH 538 0
DWIDTH 7 0
BBX 7 9 0 0
BITMAP
06
08
08
78
88
88
88
88
78
ENDCHAR
STARTCHAR uni0258
ENCODING 600
SWIDTH 538 0
DWIDTH 7 0
BBX 5 6 1 0
BITMAP
70
88
F8
08
88
70
ENDCHAR
STARTCHAR uni0259
ENCODING 601
SWIDTH 538 0
DWIDTH 7 0
BBX 5 6 1 0
BITMAP
70
88
08
F8
88
70
ENDCHAR
STARTCHAR uni025A
ENCODING 602
SWIDTH 538 0
DWIDTH 7 0
BBX 7 6 0 0
BITMAP
70
88
1C
6A
88
70
ENDCHAR
STARTCHAR uni025B
ENCODING 603
SWIDTH 538 0
DWIDTH 7 0
BBX 5 6 1 0
BITMAP
70
88
60
80
88
70
ENDCHAR
STARTCHAR uni025C
ENCODING 604
SWIDTH 538 0
DWIDTH 7 0
BBX 5 6 1 0
BITMAP
70
88
30
08
88
70
ENDCHAR
STARTCHAR uni025D
ENCODING 605
SWIDTH 538 0
DWIDTH 7 0
BBX 7 6 0 0
BITMAP
70
8C
32
08
88
70
ENDCHAR
STARTCHAR uni025E
ENCODING 606
SWIDTH 538 0
DWIDTH 7 0
BBX 5 6 1 0
BITMAP
70
88
B0
88
88
70
ENDCHAR
STARTCHAR uni025F
ENCODING 607
SWIDTH 538 0
DWIDTH 7 0
BBX 5 9 1 -3
BITMAP
30
10
10
38
10
10
10
90
60
ENDCHAR
STARTCHAR uni0260
ENCODING 608
SWIDTH 538 0
DWIDTH 7 0
BBX 7 12 0 -3
BITMAP
06
08
08
78
88
88
88
88
78
08
08
70
ENDCHAR
STARTCHAR uni0261
ENCODING 609
SWIDTH 538 0
DWIDTH 7 0
BBX 5 9 1 -3
BITMAP
78
88
88
88
88
78
08
08
70
ENDCHAR
STARTCHAR uni0262
ENCODING 610
SWIDTH 538 0
DWIDTH 7 0
BBX 5 6 1 0
BITMAP
78
80
98
88
88
78
ENDCHAR
STARTCHAR uni0263
ENCODING 611
SWIDTH 538 0
DWIDTH 7 0
BBX 5 8 1 -2
BITMAP
88
88
50
50
20
20
50
20
ENDCHAR
STARTCHAR uni0264
ENCODING 612
SWIDTH 538 0
DWIDTH 7 0
BBX 5 6 1 0
BITMAP
88
50
20
20
50
20
ENDCHAR
STARTCHAR uni0265
ENCODING 613
SWIDTH 538 0
DWIDTH 7 0
BBX 5 9 1 -3
BITMAP
88
88
88
88
88
78
08
08
08
ENDCHAR
STARTCHAR uni0266
ENCODING 614
SWIDTH 538 0
DWIDTH 7 0
BBX 5 9 1 0
BITMAP
60
80
80
F0
88
88
88
88
88
ENDCHAR
STARTCHAR uni0267
ENCODING 615
SWIDTH 538 0
DWIDTH 7 0
BBX 5 12 1 -3
BITMAP
60
80
80
F0
88
88
88
88
88
08
08
30
ENDCHAR
STARTCHAR uni0268
ENCODING 616
SWIDTH 538 0
DWIDTH 7 0
BBX 3 8 2 0
BITMAP
40
00
C0
40
E0
40
40
40
ENDCHAR
STARTCHAR uni0269
ENCODING 617
SWIDTH 538 0
DWIDTH 7 0
BBX 4 6 2 0
BITMAP
C0
40
40
40
40
30
ENDCHAR
STARTCHAR uni026A
ENCODING 618
SWIDTH 538 0
DWIDTH 7 0
BBX 3 6 2 0
BITMAP
E0
40
40
40
40
E0
ENDCHAR
STARTCHAR uni026B
ENCODING 619
SWIDTH 538 0
DWIDTH 7 0
BBX 5 9 1 0
BITMAP
60
20
20
20
68
B0
20
20
20
ENDCHAR
STARTCHAR uni026C
ENCODING 620
SWIDTH 538 0
DWIDTH 7 0
BBX 4 9 1 0
BITMAP
60
20
20
60
A0
70
20
20
20
ENDCHAR
STARTCHAR uni026D
ENCODING 621
SWIDTH 538 0
DWIDTH 7 0
BBX 4 12 2 -3
BITMAP
C0
40
40
40
40
40
40
40
40
40
40
30
ENDCHAR
STARTCHAR uni026E
ENCODING 622
SWIDTH 538 0
DWIDTH 7 0
BBX 6 11 0 -2
BITMAP
C0
40
40
7C
44
48
50
48
44
04
38
ENDCHAR
STARTCHAR uni026F
ENCODING 623
SWIDTH 538 0
DWIDTH 7 0
BBX 5 6 1 0
BITMAP
A8
A8
A8
A8
A8
58
ENDCHAR
STARTCHAR uni0270
ENCODING 624
SWIDTH 538 0
DWIDTH 7 0
BBX 5 8 1 -2
BITMAP
A8
A8
A8
A8
A8
78
08
08
ENDCHAR
STARTCHAR uni0271
ENCODING 625
SWIDTH 538 0
DWIDTH 7 0
BBX 5 9 1 -3
BITMAP
F0
A8
A8
A8
A8
A8
08
08
30
ENDCHAR
STARTCHAR uni0272
ENCODING 626
SWIDTH 538 0
DWIDTH 7 0
BBX 7 9 0 -3
BITMAP
3C
22
22
22
22
22
20
20
C0
ENDCHAR
STARTCHAR uni0273
ENCODING 627
SWIDTH 538 0
DWIDTH 7 0
BBX 7 9 0 -3
BITMAP
F0
88
88
88
88
88
08
08
06
ENDCHAR
STARTCHAR uni0274
ENCODING 628
SWIDTH 538 0
DWIDTH 7 0
BBX 5 6 1 0
BITMAP
88
C8
A8
A8
98
88
ENDCHAR
STARTCHAR uni0275
ENCODING 629
SWIDTH 538 0
DWIDTH 7 0
BBX 5 6 1 0
BITMAP
70
88
F8
88
88
70
ENDCHAR
STARTCHAR uni0276
ENCODING 630
SWIDTH 538 0
DWIDTH 7 0
BBX 7 6 0 0
BITMAP
6E
98
8E
88
98
6E
ENDCHAR
STARTCHAR uni0277
ENCODING 631
SWIDTH 538 0
DWIDTH 7 0
BBX 7 6 0 0
BITMAP
38
44
82
92
92
6C
ENDCHAR
STARTCHAR uni0278
ENCODING 632
SWIDTH 538 0
DWIDTH 7 0
BBX 7 12 0 -3
BITMAP
30
10
10
10
7C
92
92
92
7C
10
10
10
ENDCHAR
STARTCHAR uni0279
ENCODING 633
SWIDTH 538 0
DWIDTH 7 0
BBX 5 6 1 0
BITMAP
08
08
08
08
98
68
ENDCHAR
STARTCHAR uni027A
ENCODING 634
SWIDTH 538 0
DWIDTH 7 0
BBX 5 9 1 0
BITMAP
08
08
08
08
08
08
08
98
68
ENDCHAR
STARTCHAR uni027B
ENCODING 635
SWIDTH 538 0
DWIDTH 7 0
BBX 6 9 1 -3
BITMAP
08
08
08
08
98
68
08
08
04
ENDCHAR
STARTCHAR uni027C
ENCODING 636
SWIDTH 538 0
DWIDTH 7 0
BBX 5 9 1 -3
BITMAP
B0
C8
80
80
80
80
80
80
80
ENDCHAR
STARTCHAR uni027D
ENCODING 637
SWIDTH 538 0
DWIDTH 7 0
BBX 5 9 1 -3
BITMAP
B0
C8
80
80
80
80
80
80
60
ENDCHAR
STARTCHAR uni027E
ENCODING 638
SWIDTH 538 0
DWIDTH 7 0
BBX 4 6 1 0
BITMAP
70
80
80
80
80
80
ENDCHAR
STARTCHAR uni027F
ENCODING 639
SWIDTH 538 0
DWIDTH 7 0
BBX 4 9 1 -3
BITMAP
E0
10
10
10
10
10
10
10
10
ENDCHAR
STARTCHAR uni0280
ENCODING 640
SWIDTH 538 0
DWIDTH 7 0
BBX 5 6 1 0
BITMAP
F0
88
F0
90
88
88
ENDCHAR
STARTCHAR uni0281
ENCODING 641
SWIDTH 538 0
DWIDTH 7 0
BBX 5 6 1 0
BITMAP
88
88
90
F0
88
F0
ENDCHAR
STARTCHAR uni0282
ENCODING 642
SWIDTH 538 0
DWIDTH 7 0
BBX 5 9 1 -3
BITMAP
78
80
60
10
08
F0
80
80
60
ENDCHAR
STARTCHAR uni0283
ENCODING 643
SWIDTH 538 0
DWIDTH 7 0
BBX 5 12 1 -3
BITMAP
18
20
20
20
20
20
20
20
20
20
20
C0
ENDCHAR
STARTCHAR uni0284
ENCODING 644
SWIDTH 538 0
DWIDTH 7 0
BBX 5 12 1 -3
BITMAP
18
20
20
20
20
70
20
20
20
20
20
C0
ENDCHAR
STARTCHAR uni0285
ENCODING 645
SWIDTH 538 0
DWIDTH 7 0
BBX 5 9 1 -3
BITMAP
C0
20
20
20
20
20
20
20
18
ENDCHAR
STARTCHAR uni0286
ENCODING 646
SWIDTH 538 0
DWIDTH 7 0
BBX 4 10 1 -1
BITMAP
60
20
20
20
20
20
20
60
B0
40
ENDCHAR
STARTCHAR uni0287
ENCODING 647
SWIDTH 538 0
DWIDTH 7 0
BBX 4 8 1 0
BITMAP
E0
10
10
10
10
F0
10
10
ENDCHAR
STARTCHAR uni0288
ENCODING 648
SWIDTH 538 0
DWIDTH 7 0
BBX 4 11 2 -3
BITMAP
80
80
F0
80
80
80
80
80
80
80
70
ENDCHAR
STARTCHAR uni0289
ENCODING 649
SWIDTH 538 0
DWIDTH 7 0
BBX 7 6 0 0
BITMAP
44
44
FE
44
44
3C
ENDCHAR
STARTCHAR uni028A
ENCODING 650
SWIDTH 538 0
DWIDTH 7 0
BBX 5 6 1 0
BITMAP
D8
50
88
88
88
70
ENDCHAR
STARTCHAR uni028B
ENCODING 651
SWIDTH 538 0
DWIDTH 7 0
BBX 5 6 1 0
BITMAP
B0
88
88
88
90
60
ENDCHAR
STARTCHAR uni028C
ENCODING 652
SWIDTH 538 0
DWIDTH 7 0
BBX 5 6 1 0
BITMAP
20
20
50
50
88
88
ENDCHAR
STARTCHAR uni028D
ENCODING 653
SWIDTH 538 0
DWIDTH 7 0
BBX 7 6 0 0
BITMAP
44
44
AA
92
92
82
ENDCHAR
STARTCHAR uni028E
ENCODING 654
SWIDTH 538 0
DWIDTH 7 0
BBX 5 9 1 0
BITMAP
08
10
20
20
50
50
88
88
88
ENDCHAR
STARTCHAR uni028F
ENCODING 655
SWIDTH 538 0
DWIDTH 7 0
BBX 5 6 1 0
BITMAP
88
50
50
20
20
20
ENDCHAR
STARTCHAR uni0290
ENCODING 656
SWIDTH 538 0
DWIDTH 7 0
BBX 6 9 1 -3
BITMAP
F8
10
20
40
80
F8
08
08
04
ENDCHAR
STARTCHAR uni0291
ENCODING 657
SWIDTH 538 0
DWIDTH 7 0
BBX 6 7 0 -1
BITMAP
F8
08
10
28
54
F8
10
ENDCHAR
STARTCHAR uni0292
ENCODING 658
SWIDTH 538 0
DWIDTH 7 0
BBX 5 8 1 -2
BITMAP
F8
08
10
20
10
08
88
70
ENDCHAR
STARTCHAR uni0293
ENCODING 659
SWIDTH 538 0
DWIDTH 7 0
BBX 11 9 1 -3
BITMAP
FBE0
0A20
13E0
3200
0A20
6BE0
9000
6800
0800
ENDCHAR
STARTCHAR uni0294
ENCODING 660
SWIDTH 538 0
DWIDTH 7 0
BBX 5 8 1 0
BITMAP
70
88
08
08
10
20
20
20
ENDCHAR
STARTCHAR uni0295
ENCODING 661
SWIDTH 538 0
DWIDTH 7 0
BBX 5 8 1 0
BITMAP
70
88
80
80
40
20
20
20
ENDCHAR
STARTCHAR uni0296
ENCODING 662
SWIDTH 538 0
DWIDTH 7 0
BBX 5 8 1 0
BITMAP
20
20
20
10
08
08
88
70
ENDCHAR
STARTCHAR uni0297
ENCODING 663
SWIDTH 538 0
DWIDTH 7 0
BBX 5 9 1 -3
BITMAP
70
88
80
80
80
80
80
88
70
ENDCHAR
STARTCHAR uni0298
ENCODING 664
SWIDTH 538 0
DWIDTH 7 0
BBX 7 8 0 0
BITMAP
38
44
82
92
92
82
44
38
ENDCHAR
STARTCHAR uni0299
ENCODING 665
SWIDTH 538 0
DWIDTH 7 0
BBX 5 6 1 0
BITMAP
F0
88
F0
88
88
F0
ENDCHAR
STARTCHAR uni029A
ENCODING 666
SWIDTH 538 0
DWIDTH 7 0
BBX 5 6 1 0
BITMAP
70
88
68
88
88
70
ENDCHAR
STARTCHAR uni029B
ENCODING 667
SWIDTH 538 0
DWIDTH 7 0
BBX 6 8 1 0
BITMAP
0C
10
70
80
98
88
88
78
ENDCHAR
STARTCHAR uni029C
ENCODING 668
SWIDTH 538 0
DWIDTH 7 0
BBX 5 6 1 0
BITMAP
88
88
F8
88
88
88
ENDCHAR
STARTCHAR uni029D
ENCODING 669
SWIDTH 538 0
DWIDTH 7 0
BBX 4 11 1 -3
BITMAP
20
00
60
20
20
20
20
20
70
A0
40
ENDCHAR
STARTCHAR uni029E
ENCODING 670
SWIDTH 538 0
DWIDTH 7 0
BBX 5 9 1 -3
BITMAP
88
48
38
28
48
88
08
08
08
ENDCHAR
STARTCHAR uni029F
ENCODING 671
SWIDTH 538 0
DWIDTH 7 0
BBX 5 6 1 0
BITMAP
80
80
80
80
80
F8
ENDCHAR
STARTCHAR uni02A0
ENCODING 672
SWIDTH 538 0
DWIDTH 7 0
BBX 7 12 0 -3
BITMAP
06
08
08
78
88
88
88
88
78
08
08
08
ENDCHAR
STARTCHAR uni02A1
ENCODING 673
SWIDTH 538 0
DWIDTH 7 0
BBX 5 8 1 0
BITMAP
70
88
08
08
10
78
20
20
ENDCHAR
STARTCHAR uni02A2
ENCODING 674
SWIDTH 538 0
DWIDTH 7 0
BBX 5 8 1 0
BITMAP
70
88
80
80
40
F0
20
20
ENDCHAR
STARTCHAR uni02A3
ENCODING 675
SWIDTH 538 0
DWIDTH 7 0
BBX 7 9 0 0
BITMAP
20
20
20
7E
A2
A4
A8
B0
7E
ENDCHAR
STARTCHAR uni02A4
ENCODING 676
SWIDTH 538 0
DWIDTH 7 0
BBX 7 11 0 -2
BITMAP
10
10
10
7E
92
94
98
94
72
02
1C
ENDCHAR
STARTCHAR uni02A5
ENCODING 677
SWIDTH 538 0
DWIDTH 7 0
BBX 7 10 0 -1
BITMAP
20
20
20
7E
A4
A8
B4
AA
7C
08
ENDCHAR
STARTCHAR uni02A6
ENCODING 678
SWIDTH 538 0
DWIDTH 7 0
BBX 7 8 0 0
BITMAP
80
80
9E
E0
98
84
82
7C
ENDCHAR
STARTCHAR uni02A7
ENCODING 679
SWIDTH 538 0
DWIDTH 7 0
BBX 6 12 1 -3
BITMAP
0C
10
90
90
F0
90
90
90
70
10
10
60
ENDCHAR
STARTCHAR uni02A8
ENCODING 680
SWIDTH 538 0
DWIDTH 7 0
BBX 7 8 0 0
BITMAP
80
80
FC
92
90
9C
92
6C
ENDCHAR
STARTCHAR uni02A9
ENCODING 681
SWIDTH 538 0
DWIDTH 7 0
BBX 7 12 0 -3
BITMAP
30
40
40
FC
52
52
52
52
52
02
02
0C
ENDCHAR
STARTCHAR uni02AA
ENCODING 682
SWIDTH 538 0
DWIDTH 7 0
BBX 7 9 0 0
BITMAP
C0
40
40
5E
60
58
44
42
3C
ENDCHAR
STARTCHAR uni02AB
ENCODING 683
SWIDTH 538 0
DWIDTH 7 0
BBX 7 9 0 0
BITMAP
C0
40
40
7E
42
44
48
50
7E
ENDCHAR
STARTCHAR uni02AC
ENCODING 684
SWIDTH 538 0
DWIDTH 7 0
BBX 5 9 1 0
BITMAP
A8
A8
A8
50
00
88
A8
A8
50
ENDCHAR
STARTCHAR uni02AD
ENCODING 685
SWIDTH 538 0
DWIDTH 7 0
BBX 5 8 1 0
BITMAP
F8
88
88
00
00
F8
88
88
ENDCHAR
STARTCHAR uni02AE
ENCODING 686
SWIDTH 538 0
DWIDTH 7 0
BBX 6 9 0 -3
BITMAP
C4
44
44
44
44
3C
04
04
04
ENDCHAR
STARTCHAR uni02AF
ENCODING 687
SWIDTH 538 0
DWIDTH 7 0
BBX 7 9 0 -3
BITMAP
C4
44
44
44
44
3C
04
04
06
ENDCHAR
STARTCHAR uni02B0
ENCODING 688
SWIDTH 538 0
DWIDTH 7 0
BBX 3 6 2 3
BITMAP
80
80
E0
A0
A0
A0
ENDCHAR
STARTCHAR uni02B1
ENCODING 689
SWIDTH 538 0
DWIDTH 7 0
BBX 3 6 2 3
BITMAP
C0
80
E0
A0
A0
A0
ENDCHAR
STARTCHAR uni02B2
ENCODING 690
SWIDTH 538 0
DWIDTH 7 0
BBX 3 7 2 3
BITMAP
20
00
60
20
20
20
C0
ENDCHAR
STARTCHAR uni02B3
ENCODING 691
SWIDTH 538 0
DWIDTH 7 0
BBX 4 4 2 5
BITMAP
A0
D0
80
80
ENDCHAR
STARTCHAR uni02B4
ENCODING 692
SWIDTH 538 0
DWIDTH 7 0
BBX 4 4 1 5
BITMAP
10
10
B0
50
ENDCHAR
STARTCHAR uni02B5
ENCODING 693
SWIDTH 538 0
DWIDTH 7 0
BBX 5 6 1 3
BITMAP
10
10
B0
50
10
08
ENDCHAR
STARTCHAR uni02B6
ENCODING 694
SWIDTH 538 0
DWIDTH 7 0
BBX 4 6 2 3
BITMAP
90
A0
E0
90
90
E0
ENDCHAR
STARTCHAR uni02B7
ENCODING 695
SWIDTH 538 0
DWIDTH 7 0
BBX 5 5 1 4
BITMAP
88
A8
A8
A8
50
ENDCHAR
STARTCHAR uni02B8
ENCODING 696
SWIDTH 538 0
DWIDTH 7 0
BBX 3 5 2 4
BITMAP
A0
A0
40
40
80
ENDCHAR
STARTCHAR uni02B9
ENCODING 697
SWIDTH 538 0
DWIDTH 7 0
BBX 2 3 2 6
BITMAP
40
40
80
ENDCHAR
STARTCHAR uni02BA
ENCODING 698
SWIDTH 538 0
DWIDTH 7 0
BBX 4 3 1 6
BITMAP
50
50
A0
ENDCHAR
STARTCHAR uni02BB
ENCODING 699
SWIDTH 538 0
DWIDTH 7 0
BBX 2 3 2 6
BITMAP
40
40
80
ENDCHAR
STARTCHAR uni02BC
ENCODING 700
SWIDTH 538 0
DWIDTH 7 0
BBX 2 3 2 6
BITMAP
40
40
80
ENDCHAR
STARTCHAR uni02BD
ENCODING 701
SWIDTH 538 0
DWIDTH 7 0
BBX 2 3 2 6
BITMAP
80
80
40
ENDCHAR
STARTCHAR uni02BE
ENCODING 702
SWIDTH 538 0
DWIDTH 7 0
BBX 2 3 2 6
BITMAP
80
40
80
ENDCHAR
STARTCHAR uni02BF
ENCODING 703
SWIDTH 538 0
DWIDTH 7 0
BBX 2 3 2 6
BITMAP
40
80
40
ENDCHAR
STARTCHAR uni02C0
ENCODING 704
SWIDTH 538 0
DWIDTH 7 0
BBX 3 4 2 5
BITMAP
C0
20
40
40
ENDCHAR
STARTCHAR uni02C1
ENCODING 705
SWIDTH 538 0
DWIDTH 7 0
BBX 3 4 2 5
BITMAP
60
80
40
40
ENDCHAR
STARTCHAR uni02C2
ENCODING 706
SWIDTH 538 0
DWIDTH 7 0
BBX 5 5 1 4
BITMAP
18
60
80
60
18
ENDCHAR
STARTCHAR uni02C3
ENCODING 707
SWIDTH 538 0
DWIDTH 7 0
BBX 5 5 1 4
BITMAP
C0
30
08
30
C0
ENDCHAR
STARTCHAR uni02C4
ENCODING 708
SWIDTH 538 0
DWIDTH 7 0
BBX 5 5 1 4
BITMAP
20
50
50
88
88
ENDCHAR
STARTCHAR uni02C5
ENCODING 709
SWIDTH 538 0
DWIDTH 7 0
BBX 5 5 1 4
BITMAP
88
88
50
50
20
ENDCHAR
STARTCHAR circumflex
ENCODING 710
SWIDTH 538 0
DWIDTH 7 0
BBX 3 2 2 7
BITMAP
40
A0
ENDCHAR
STARTCHAR caron
ENCODING 711
SWIDTH 538 0
DWIDTH 7 0
BBX 3 2 2 7
BITMAP
A0
40
ENDCHAR
STARTCHAR uni02C8
ENCODING 712
SWIDTH 538 0
DWIDTH 7 0
BBX 1 4 3 5
BITMAP
80
80
80
80
ENDCHAR
STARTCHAR uni02C9
ENCODING 713
SWIDTH 538 0
DWIDTH 7 0
BBX 4 1 2 7
BITMAP
F0
ENDCHAR
STARTCHAR uni02CA
ENCODING 714
SWIDTH 538 0
DWIDTH 7 0
BBX 2 2 3 7
BITMAP
40
80
ENDCHAR
STARTCHAR uni02CB
ENCODING 715
SWIDTH 538 0
DWIDTH 7 0
BBX 2 2 2 7
BITMAP
80
40
ENDCHAR
STARTCHAR uni02CC
ENCODING 716
SWIDTH 538 0
DWIDTH 7 0
BBX 1 4 3 -3
BITMAP
80
80
80
80
ENDCHAR
STARTCHAR uni02CD
ENCODING 717
SWIDTH 538 0
DWIDTH 7 0
BBX 3 1 2 -2
BITMAP
E0
ENDCHAR
STARTCHAR uni02CE
ENCODING 718
SWIDTH 538 0
DWIDTH 7 0
BBX 2 2 3 -2
BITMAP
80
40
ENDCHAR
STARTCHAR uni02CF
ENCODING 719
SWIDTH 538 0
DWIDTH 7 0
BBX 2 2 2 -2
BITMAP
40
80
ENDCHAR
STARTCHAR uni02D0
ENCODING 720
SWIDTH 538 0
DWIDTH 7 0
BBX 3 6 2 0
BITMAP
E0
40
00
00
40
E0
ENDCHAR
STARTCHAR uni02D1
ENCODING 721
SWIDTH 538 0
DWIDTH 7 0
BBX 3 2 2 4
BITMAP
E0
40
ENDCHAR
STARTCHAR uni02D2
ENCODING 722
SWIDTH 538 0
DWIDTH 7 0
BBX 2 3 3 3
BITMAP
80
40
80
ENDCHAR
STARTCHAR uni02D3
ENCODING 723
SWIDTH 538 0
DWIDTH 7 0
BBX 2 3 2 3
BITMAP
40
80
40
ENDCHAR
STARTCHAR uni02D4
ENCODING 724
SWIDTH 538 0
DWIDTH 7 0
BBX 5 3 1 3
BITMAP
20
20
F8
ENDCHAR
STARTCHAR uni02D5
ENCODING 725
SWIDTH 538 0
DWIDTH 7 0
BBX 5 3 1 1
BITMAP
F8
20
20
ENDCHAR
STARTCHAR uni02D6
ENCODING 726
SWIDTH 538 0
DWIDTH 7 0
BBX 5 5 1 1
BITMAP
20
20
F8
20
20
ENDCHAR
STARTCHAR uni02D7
ENCODING 727
SWIDTH 538 0
DWIDTH 7 0
BBX 3 1 2 3
BITMAP
E0
ENDCHAR
STARTCHAR breve
ENCODING 728
SWIDTH 538 0
DWIDTH 7 0
BBX 3 2 2 7
BITMAP
A0
E0
ENDCHAR
STARTCHAR dotaccent
ENCODING 729
SWIDTH 538 0
DWIDTH 7 0
BBX 1 1 3 8
BITMAP
80
ENDCHAR
STARTCHAR ring
ENCODING 730
SWIDTH 538 0
DWIDTH 7 0
BBX 3 3 2 7
BITMAP
40
A0
40
ENDCHAR
STARTCHAR ogonek
ENCODING 731
SWIDTH 538 0
DWIDTH 7 0
BBX 2 3 3 -3
BITMAP
40
80
C0
ENDCHAR
STARTCHAR tilde
ENCODING 732
SWIDTH 538 0
DWIDTH 7 0
BBX 5 2 1 7
BITMAP
68
B0
ENDCHAR
STARTCHAR hungarumlaut
ENCODING 733
SWIDTH 538 0
DWIDTH 7 0
BBX 4 2 2 7
BITMAP
50
A0
ENDCHAR
STARTCHAR uni02DE
ENCODING 734
SWIDTH 538 0
DWIDTH 7 0
BBX 3 2 4 3
BITMAP
C0
20
ENDCHAR
STARTCHAR uni02DF
ENCODING 735
SWIDTH 538 0
DWIDTH 7 0
BBX 3 3 2 7
BITMAP
A0
40
A0
ENDCHAR
STARTCHAR uni02E0
ENCODING 736
SWIDTH 538 0
DWIDTH 7 0
BBX 5 6 1 0
BITMAP
88
88
50
20
50
20
ENDCHAR
STARTCHAR uni02E1
ENCODING 737
SWIDTH 538 0
DWIDTH 7 0
BBX 2 5 5 4
BITMAP
C0
40
40
40
40
ENDCHAR
STARTCHAR uni02E2
ENCODING 738
SWIDTH 538 0
DWIDTH 7 0
BBX 4 5 3 4
BITMAP
70
80
60
10
E0
ENDCHAR
STARTCHAR uni02E3
ENCODING 739
SWIDTH 538 0
DWIDTH 7 0
BBX 3 4 4 5
BITMAP
A0
40
40
A0
ENDCHAR
STARTCHAR uni02E4
ENCODING 740
SWIDTH 538 0
DWIDTH 7 0
BBX 3 5 4 4
BITMAP
60
80
60
20
20
ENDCHAR
STARTCHAR uni02E5
ENCODING 741
SWIDTH 538 0
DWIDTH 7 0
BBX 3 9 2 0
BITMAP
E0
20
20
20
20
20
20
20
20
ENDCHAR
STARTCHAR uni02E6
ENCODING 742
SWIDTH 538 0
DWIDTH 7 0
BBX 3 9 2 0
BITMAP
20
20
E0
20
20
20
20
20
20
ENDCHAR
STARTCHAR uni02E7
ENCODING 743
SWIDTH 538 0
DWIDTH 7 0
BBX 3 9 2 0
BITMAP
20
20
20
20
E0
20
20
20
20
ENDCHAR
STARTCHAR uni02E8
ENCODING 744
SWIDTH 538 0
DWIDTH 7 0
BBX 3 9 2 0
BITMAP
20
20
20
20
20
20
E0
20
20
ENDCHAR
STARTCHAR uni02E9
ENCODING 745
SWIDTH 538 0
DWIDTH 7 0
BBX 3 9 2 0
BITMAP
20
20
20
20
20
20
20
20
E0
ENDCHAR
STARTCHAR uni02EA
ENCODING 746
SWIDTH 538 0
DWIDTH 7 0
BBX 3 6 2 0
BITMAP
80
80
80
80
80
E0
ENDCHAR
STARTCHAR uni02EB
ENCODING 747
SWIDTH 538 0
DWIDTH 7 0
BBX 3 6 2 0
BITMAP
80
80
E0
80
80
80
ENDCHAR
STARTCHAR uni02EC
ENCODING 748
SWIDTH 538 0
DWIDTH 7 0
BBX 3 2 2 -2
BITMAP
A0
40
ENDCHAR
STARTCHAR uni02ED
ENCODING 749
SWIDTH 538 0
DWIDTH 7 0
BBX 4 3 2 7
BITMAP
F0
00
F0
ENDCHAR
STARTCHAR uni02EE
ENCODING 750
SWIDTH 538 0
DWIDTH 7 0
BBX 4 3 2 6
BITMAP
50
50
A0
ENDCHAR
STARTCHAR uni02EF
ENCODING 751
SWIDTH 538 0
DWIDTH 7 0
BBX 5 5 1 -2
BITMAP
88
88
50
50
20
ENDCHAR
STARTCHAR uni02F0
ENCODING 752
SWIDTH 538 0
DWIDTH 7 0
BBX 5 5 1 -2
BITMAP
20
50
50
88
88
ENDCHAR
STARTCHAR uni02F1
ENCODING 753
SWIDTH 538 0
DWIDTH 7 0
BBX 5 5 1 -3
BITMAP
18
60
80
60
18
ENDCHAR
STARTCHAR uni02F2
ENCODING 754
SWIDTH 538 0
DWIDTH 7 0
BBX 5 5 1 -3
BITMAP
C0
30
08
30
C0
ENDCHAR
STARTCHAR uni02F3
ENCODING 755
SWIDTH 538 0
DWIDTH 7 0
BBX 3 3 2 -3
BITMAP
40
A0
40
ENDCHAR
STARTCHAR uni02F4
ENCODING 756
SWIDTH 538 0
DWIDTH 7 0
BBX 2 2 2 1
BITMAP
80
40
ENDCHAR
STARTCHAR uni02F5
ENCODING 757
SWIDTH 538 0
DWIDTH 7 0
BBX 4 2 1 1
BITMAP
A0
50
ENDCHAR
STARTCHAR uni02F6
ENCODING 758
SWIDTH 538 0
DWIDTH 7 0
BBX 4 2 2 1
BITMAP
50
A0
ENDCHAR
STARTCHAR uni02F7
ENCODING 759
SWIDTH 1000 0
DWIDTH 7 0
BBX 5 2 1 -3
BITMAP
68
B0
ENDCHAR
STARTCHAR uni02F8
ENCODING 760
SWIDTH 538 0
DWIDTH 7 0
BBX 1 5 3 5
BITMAP
80
80
00
80
80
ENDCHAR
STARTCHAR uni02F9
ENCODING 761
SWIDTH 538 0
DWIDTH 7 0
BBX 3 3 2 6
BITMAP
E0
80
80
ENDCHAR
STARTCHAR uni02FA
ENCODING 762
SWIDTH 538 0
DWIDTH 7 0
BBX 3 3 2 6
BITMAP
E0
20
20
ENDCHAR
STARTCHAR uni02FB
ENCODING 763
SWIDTH 538 0
DWIDTH 7 0
BBX 3 3 2 -3
BITMAP
80
80
E0
ENDCHAR
STARTCHAR uni02FC
ENCODING 764
SWIDTH 538 0
DWIDTH 7 0
BBX 3 3 2 -3
BITMAP
20
20
E0
ENDCHAR
STARTCHAR uni02FD
ENCODING 765
SWIDTH 538 0
DWIDTH 7 0
BBX 5 2 1 -3
BITMAP
88
F8
ENDCHAR
STARTCHAR uni02FE
ENCODING 766
SWIDTH 538 0
DWIDTH 7 0
BBX 5 2 1 -3
BITMAP
80
F8
ENDCHAR
STARTCHAR uni02FF
ENCODING 767
SWIDTH 538 0
DWIDTH 7 0
BBX 5 3 1 -3
BITMAP
40
F8
40
ENDCHAR
STARTCHAR gravecomb
ENCODING 768
SWIDTH 538 0
DWIDTH 7 0
BBX 1 1 0 0
BITMAP
00
ENDCHAR
STARTCHAR acutecomb
ENCODING 769
SWIDTH 538 0
DWIDTH 7 0
BBX 1 1 0 0
BITMAP
00
ENDCHAR
STARTCHAR uni0302
ENCODING 770
SWIDTH 538 0
DWIDTH 7 0
BBX 1 1 0 0
BITMAP
00
ENDCHAR
STARTCHAR tildecomb
ENCODING 771
SWIDTH 538 0
DWIDTH 7 0
BBX 1 1 0 0
BITMAP
00
ENDCHAR
STARTCHAR uni0304
ENCODING 772
SWIDTH 538 0
DWIDTH 7 0
BBX 1 1 0 0
BITMAP
00
ENDCHAR
STARTCHAR uni0305
ENCODING 773
SWIDTH 538 0
DWIDTH 7 0
BBX 1 1 0 0
BITMAP
00
ENDCHAR
STARTCHAR uni0306
ENCODING 774
SWIDTH 538 0
DWIDTH 7 0
BBX 1 1 0 0
BITMAP
00
ENDCHAR
STARTCHAR uni0307
ENCODING 775
SWIDTH 538 0
DWIDTH 7 0
BBX 1 1 0 0
BITMAP
00
ENDCHAR
STARTCHAR uni0308
ENCODING 776
SWIDTH 538 0
DWIDTH 7 0
BBX 1 1 0 0
BITMAP
00
ENDCHAR
STARTCHAR hookabovecomb
ENCODING 777
SWIDTH 538 0
DWIDTH 7 0
BBX 1 1 0 0
BITMAP
00
ENDCHAR
STARTCHAR uni030A
ENCODING 778
SWIDTH 538 0
DWIDTH 7 0
BBX 1 1 0 0
BITMAP
00
ENDCHAR
STARTCHAR uni030B
ENCODING 779
SWIDTH 538 0
DWIDTH 7 0
BBX 1 1 0 0
BITMAP
00
ENDCHAR
STARTCHAR uni030C
ENCODING 780
SWIDTH 538 0
DWIDTH 7 0
BBX 1 1 0 0
BITMAP
00
ENDCHAR
STARTCHAR uni030D
ENCODING 781
SWIDTH 538 0
DWIDTH 7 0
BBX 1 1 0 0
BITMAP
00
ENDCHAR
STARTCHAR uni030E
ENCODING 782
SWIDTH 538 0
DWIDTH 7 0
BBX 1 1 0 0
BITMAP
00
ENDCHAR
STARTCHAR uni030F
ENCODING 783
SWIDTH 538 0
DWIDTH 7 0
BBX 1 1 0 0
BITMAP
00
ENDCHAR
STARTCHAR uni0310
ENCODING 784
SWIDTH 538 0
DWIDTH 7 0
BBX 1 1 0 0
BITMAP
00
ENDCHAR
STARTCHAR uni0311
ENCODING 785
SWIDTH 538 0
DWIDTH 7 0
BBX 1 1 0 0
BITMAP
00
ENDCHAR
STARTCHAR uni0312
ENCODING 786
SWIDTH 538 0
DWIDTH 7 0
BBX 1 1 0 0
BITMAP
00
ENDCHAR
STARTCHAR uni0313
ENCODING 787
SWIDTH 538 0
DWIDTH 7 0
BBX 1 1 0 0
BITMAP
00
ENDCHAR
STARTCHAR uni0314
ENCODING 788
SWIDTH 538 0
DWIDTH 7 0
BBX 1 1 0 0
BITMAP
00
ENDCHAR
STARTCHAR uni0315
ENCODING 789
SWIDTH 538 0
DWIDTH 7 0
BBX 1 1 0 0
BITMAP
00
ENDCHAR
STARTCHAR uni0316
ENCODING 790
SWIDTH 538 0
DWIDTH 7 0
BBX 1 1 0 0
BITMAP
00
ENDCHAR
STARTCHAR uni0317
ENCODING 791
SWIDTH 538 0
DWIDTH 7 0
BBX 1 1 0 0
BITMAP
00
ENDCHAR
STARTCHAR uni0318
ENCODING 792
SWIDTH 538 0
DWIDTH 7 0
BBX 1 1 0 0
BITMAP
00
ENDCHAR
STARTCHAR uni0319
ENCODING 793
SWIDTH 538 0
DWIDTH 7 0
BBX 1 1 0 0
BITMAP
00
ENDCHAR
STARTCHAR uni031A
ENCODING 794
SWIDTH 538 0
DWIDTH 7 0
BBX 1 1 0 0
BITMAP
00
ENDCHAR
STARTCHAR uni031B
ENCODING 795
SWIDTH 538 0
DWIDTH 7 0
BBX 1 1 0 0
BITMAP
00
ENDCHAR
STARTCHAR uni031C
ENCODING 796
SWIDTH 538 0
DWIDTH 7 0
BBX 1 1 0 0
BITMAP
00
ENDCHAR
STARTCHAR uni031D
ENCODING 797
SWIDTH 538 0
DWIDTH 7 0
BBX 1 1 0 0
BITMAP
00
ENDCHAR
STARTCHAR uni031E
ENCODING 798
SWIDTH 538 0
DWIDTH 7 0
BBX 1 1 0 0
BITMAP
00
ENDCHAR
STARTCHAR uni031F
ENCODING 799
SWIDTH 538 0
DWIDTH 7 0
BBX 1 1 0 0
BITMAP
00
ENDCHAR
STARTCHAR uni0320
ENCODING 800
SWIDTH 538 0
DWIDTH 7 0
BBX 1 1 0 0
BITMAP
00
ENDCHAR
STARTCHAR uni0321
ENCODING 801
SWIDTH 538 0
DWIDTH 7 0
BBX 1 1 0 0
BITMAP
00
ENDCHAR
STARTCHAR uni0322
ENCODING 802
SWIDTH 538 0
DWIDTH 7 0
BBX 1 1 0 0
BITMAP
00
ENDCHAR
STARTCHAR dotbelowcomb
ENCODING 803
SWIDTH 538 0
DWIDTH 7 0
BBX 1 1 0 0
BITMAP
00
ENDCHAR
STARTCHAR uni0324
ENCODING 804
SWIDTH 538 0
DWIDTH 7 0
BBX 1 1 0 0
BITMAP
00
ENDCHAR
STARTCHAR uni0325
ENCODING 805
SWIDTH 538 0
DWIDTH 7 0
BBX 1 1 0 0
BITMAP
00
ENDCHAR
STARTCHAR uni0326
ENCODING 806
SWIDTH 538 0
DWIDTH 7 0
BBX 1 1 0 0
BITMAP
00
ENDCHAR
STARTCHAR uni0327
ENCODING 807
SWIDTH 538 0
DWIDTH 7 0
BBX 1 1 0 0
BITMAP
00
ENDCHAR
STARTCHAR uni0328
ENCODING 808
SWIDTH 538 0
DWIDTH 7 0
BBX 1 1 0 0
BITMAP
00
ENDCHAR
STARTCHAR uni0329
ENCODING 809
SWIDTH 538 0
DWIDTH 7 0
BBX 1 1 0 0
BITMAP
00
ENDCHAR
STARTCHAR uni032A
ENCODING 810
SWIDTH 538 0
DWIDTH 7 0
BBX 1 1 0 0
BITMAP
00
ENDCHAR
STARTCHAR uni032B
ENCODING 811
SWIDTH 538 0
DWIDTH 7 0
BBX 1 1 0 0
BITMAP
00
ENDCHAR
STARTCHAR uni032C
ENCODING 812
SWIDTH 538 0
DWIDTH 7 0
BBX 1 1 0 0
BITMAP
00
ENDCHAR
STARTCHAR uni032D
ENCODING 813
SWIDTH 538 0
DWIDTH 7 0
BBX 1 1 0 0
BITMAP
00
ENDCHAR
STARTCHAR uni032E
ENCODING 814
SWIDTH 538 0
DWIDTH 7 0
BBX 1 1 0 0
BITMAP
00
ENDCHAR
STARTCHAR uni032F
ENCODING 815
SWIDTH 538 0
DWIDTH 7 0
BBX 1 1 0 0
BITMAP
00
ENDCHAR
STARTCHAR uni0330
ENCODING 816
SWIDTH 538 0
DWIDTH 7 0
BBX 1 1 0 0
BITMAP
00
ENDCHAR
STARTCHAR uni0331
ENCODING 817
SWIDTH 538 0
DWIDTH 7 0
BBX 1 1 0 0
BITMAP
00
ENDCHAR
STARTCHAR uni0332
ENCODING 818
SWIDTH 538 0
DWIDTH 7 0
BBX 1 1 0 0
BITMAP
00
ENDCHAR
STARTCHAR uni0333
ENCODING 819
SWIDTH 538 0
DWIDTH 7 0
BBX 1 1 0 0
BITMAP
00
ENDCHAR
STARTCHAR uni0334
ENCODING 820
SWIDTH 538 0
DWIDTH 7 0
BBX 1 1 0 0
BITMAP
00
ENDCHAR
STARTCHAR uni0335
ENCODING 821
SWIDTH 538 0
DWIDTH 7 0
BBX 1 1 0 0
BITMAP
00
ENDCHAR
STARTCHAR uni0336
ENCODING 822
SWIDTH 538 0
DWIDTH 7 0
BBX 1 1 0 0
BITMAP
00
ENDCHAR
STARTCHAR uni0337
ENCODING 823
SWIDTH 538 0
DWIDTH 7 0
BBX 1 1 0 0
BITMAP
00
ENDCHAR
STARTCHAR uni0338
ENCODING 824
SWIDTH 538 0
DWIDTH 7 0
BBX 1 1 0 0
BITMAP
00
ENDCHAR
STARTCHAR uni0339
ENCODING 825
SWIDTH 538 0
DWIDTH 7 0
BBX 1 1 0 0
BITMAP
00
ENDCHAR
STARTCHAR uni033A
ENCODING 826
SWIDTH 538 0
DWIDTH 7 0
BBX 1 1 0 0
BITMAP
00
ENDCHAR
STARTCHAR uni033B
ENCODING 827
SWIDTH 538 0
DWIDTH 7 0
BBX 1 1 0 0
BITMAP
00
ENDCHAR
STARTCHAR uni033C
ENCODING 828
SWIDTH 538 0
DWIDTH 7 0
BBX 1 1 0 0
BITMAP
00
ENDCHAR
STARTCHAR uni033D
ENCODING 829
SWIDTH 538 0
DWIDTH 7 0
BBX 1 1 0 0
BITMAP
00
ENDCHAR
STARTCHAR uni033E
ENCODING 830
SWIDTH 538 0
DWIDTH 7 0
BBX 1 1 0 0
BITMAP
00
ENDCHAR
STARTCHAR uni033F
ENCODING 831
SWIDTH 538 0
DWIDTH 7 0
BBX 1 1 0 0
BITMAP
00
ENDCHAR
STARTCHAR uni0340
ENCODING 832
SWIDTH 538 0
DWIDTH 7 0
BBX 1 1 0 0
BITMAP
00
ENDCHAR
STARTCHAR uni0341
ENCODING 833
SWIDTH 538 0
DWIDTH 7 0
BBX 1 1 0 0
BITMAP
00
ENDCHAR
STARTCHAR uni0342
ENCODING 834
SWIDTH 538 0
DWIDTH 7 0
BBX 1 1 0 0
BITMAP
00
ENDCHAR
STARTCHAR uni0343
ENCODING 835
SWIDTH 538 0
DWIDTH 7 0
BBX 1 1 0 0
BITMAP
00
ENDCHAR
STARTCHAR uni0344
ENCODING 836
SWIDTH 538 0
DWIDTH 7 0
BBX 1 1 0 0
BITMAP
00
ENDCHAR
STARTCHAR uni0345
ENCODING 837
SWIDTH 538 0
DWIDTH 7 0
BBX 1 1 0 0
BITMAP
00
ENDCHAR
STARTCHAR uni0346
ENCODING 838
SWIDTH 538 0
DWIDTH 7 0
BBX 1 1 0 0
BITMAP
00
ENDCHAR
STARTCHAR uni0347
ENCODING 839
SWIDTH 538 0
DWIDTH 7 0
BBX 1 1 0 0
BITMAP
00
ENDCHAR
STARTCHAR uni0348
ENCODING 840
SWIDTH 538 0
DWIDTH 7 0
BBX 1 1 0 0
BITMAP
00
ENDCHAR
STARTCHAR uni0349
ENCODING 841
SWIDTH 538 0
DWIDTH 7 0
BBX 1 1 0 0
BITMAP
00
ENDCHAR
STARTCHAR uni034A
ENCODING 842
SWIDTH 538 0
DWIDTH 7 0
BBX 1 1 0 0
BITMAP
00
ENDCHAR
STARTCHAR uni034B
ENCODING 843
SWIDTH 538 0
DWIDTH 7 0
BBX 1 1 0 0
BITMAP
00
ENDCHAR
STARTCHAR uni034C
ENCODING 844
SWIDTH 538 0
DWIDTH 7 0
BBX 1 1 0 0
BITMAP
00
ENDCHAR
STARTCHAR uni034D
ENCODING 845
SWIDTH 538 0
DWIDTH 7 0
BBX 1 1 0 0
BITMAP
00
ENDCHAR
STARTCHAR uni034E
ENCODING 846
SWIDTH 538 0
DWIDTH 7 0
BBX 1 1 0 0
BITMAP
00
ENDCHAR
STARTCHAR uni034F
ENCODING 847
SWIDTH 538 0
DWIDTH 7 0
BBX 1 1 0 0
BITMAP
00
ENDCHAR
STARTCHAR uni0350
ENCODING 848
SWIDTH 538 0
DWIDTH 7 0
BBX 1 1 0 0
BITMAP
00
ENDCHAR
STARTCHAR uni0351
ENCODING 849
SWIDTH 538 0
DWIDTH 7 0
BBX 1 1 0 0
BITMAP
00
ENDCHAR
STARTCHAR uni0352
ENCODING 850
SWIDTH 538 0
DWIDTH 7 0
BBX 1 1 0 0
BITMAP
00
ENDCHAR
STARTCHAR uni0353
ENCODING 851
SWIDTH 538 0
DWIDTH 7 0
BBX 1 1 0 0
BITMAP
00
ENDCHAR
STARTCHAR uni0354
ENCODING 852
SWIDTH 538 0
DWIDTH 7 0
BBX 1 1 0 0
BITMAP
00
ENDCHAR
STARTCHAR uni0355
ENCODING 853
SWIDTH 538 0
DWIDTH 7 0
BBX 1 1 0 0
BITMAP
00
ENDCHAR
STARTCHAR uni0356
ENCODING 854
SWIDTH 538 0
DWIDTH 7 0
BBX 1 1 0 0
BITMAP
00
ENDCHAR
STARTCHAR uni0357
ENCODING 855
SWIDTH 538 0
DWIDTH 7 0
BBX 1 1 0 0
BITMAP
00
ENDCHAR
STARTCHAR uni0358
ENCODING 856
SWIDTH 538 0
DWIDTH 7 0
BBX 1 1 0 0
BITMAP
00
ENDCHAR
STARTCHAR uni0359
ENCODING 857
SWIDTH 538 0
DWIDTH 7 0
BBX 1 1 0 0
BITMAP
00
ENDCHAR
STARTCHAR uni035A
ENCODING 858
SWIDTH 538 0
DWIDTH 7 0
BBX 1 1 0 0
BITMAP
00
ENDCHAR
STARTCHAR uni035B
ENCODING 859
SWIDTH 538 0
DWIDTH 7 0
BBX 1 1 0 0
BITMAP
00
ENDCHAR
STARTCHAR uni035C
ENCODING 860
SWIDTH 538 0
DWIDTH 7 0
BBX 1 1 0 0
BITMAP
00
ENDCHAR
STARTCHAR uni035D
ENCODING 861
SWIDTH 538 0
DWIDTH 7 0
BBX 1 1 0 0
BITMAP
00
ENDCHAR
STARTCHAR uni035E
ENCODING 862
SWIDTH 538 0
DWIDTH 7 0
BBX 1 1 0 0
BITMAP
00
ENDCHAR
STARTCHAR uni035F
ENCODING 863
SWIDTH 538 0
DWIDTH 7 0
BBX 1 1 0 0
BITMAP
00
ENDCHAR
STARTCHAR uni0360
ENCODING 864
SWIDTH 538 0
DWIDTH 7 0
BBX 1 1 0 0
BITMAP
00
ENDCHAR
STARTCHAR uni0361
ENCODING 865
SWIDTH 538 0
DWIDTH 7 0
BBX 1 1 0 0
BITMAP
00
ENDCHAR
STARTCHAR uni0362
ENCODING 866
SWIDTH 538 0
DWIDTH 7 0
BBX 1 1 0 0
BITMAP
00
ENDCHAR
STARTCHAR uni0363
ENCODING 867
SWIDTH 538 0
DWIDTH 7 0
BBX 1 1 0 0
BITMAP
00
ENDCHAR
STARTCHAR uni0364
ENCODING 868
SWIDTH 538 0
DWIDTH 7 0
BBX 1 1 0 0
BITMAP
00
ENDCHAR
STARTCHAR uni0365
ENCODING 869
SWIDTH 538 0
DWIDTH 7 0
BBX 1 1 0 0
BITMAP
00
ENDCHAR
STARTCHAR uni0366
ENCODING 870
SWIDTH 538 0
DWIDTH 7 0
BBX 1 1 0 0
BITMAP
00
ENDCHAR
STARTCHAR uni0367
ENCODING 871
SWIDTH 538 0
DWIDTH 7 0
BBX 1 1 0 0
BITMAP
00
ENDCHAR
STARTCHAR uni0368
ENCODING 872
SWIDTH 538 0
DWIDTH 7 0
BBX 1 1 0 0
BITMAP
00
ENDCHAR
STARTCHAR uni0369
ENCODING 873
SWIDTH 538 0
DWIDTH 7 0
BBX 1 1 0 0
BITMAP
00
ENDCHAR
STARTCHAR uni036A
ENCODING 874
SWIDTH 538 0
DWIDTH 7 0
BBX 1 1 0 0
BITMAP
00
ENDCHAR
STARTCHAR uni036B
ENCODING 875
SWIDTH 538 0
DWIDTH 7 0
BBX 1 1 0 0
BITMAP
00
ENDCHAR
STARTCHAR uni036C
ENCODING 876
SWIDTH 538 0
DWIDTH 7 0
BBX 1 1 0 0
BITMAP
00
ENDCHAR
STARTCHAR uni036D
ENCODING 877
SWIDTH 538 0
DWIDTH 7 0
BBX 1 1 0 0
BITMAP
00
ENDCHAR
STARTCHAR uni036E
ENCODING 878
SWIDTH 538 0
DWIDTH 7 0
BBX 1 1 0 0
BITMAP
00
ENDCHAR
STARTCHAR uni036F
ENCODING 879
SWIDTH 538 0
DWIDTH 7 0
BBX 1 1 0 0
BITMAP
00
ENDCHAR
STARTCHAR uni0370
ENCODING 880
SWIDTH 538 0
DWIDTH 7 0
BBX 4 8 1 0
BITMAP
80
80
80
F0
80
80
80
80
ENDCHAR
STARTCHAR uni0371
ENCODING 881
SWIDTH 538 0
DWIDTH 7 0
BBX 4 6 2 0
BITMAP
80
40
70
40
40
40
ENDCHAR
STARTCHAR uni0372
ENCODING 882
SWIDTH 538 0
DWIDTH 7 0
BBX 7 8 0 0
BITMAP
FE
92
92
10
10
10
10
10
ENDCHAR
STARTCHAR uni0373
ENCODING 883
SWIDTH 538 0
DWIDTH 7 0
BBX 5 9 1 0
BITMAP
F8
A8
A8
20
20
20
20
20
20
ENDCHAR
STARTCHAR uni0374
ENCODING 884
SWIDTH 538 0
DWIDTH 7 0
BBX 2 3 2 7
BITMAP
40
40
80
ENDCHAR
STARTCHAR uni0375
ENCODING 885
SWIDTH 538 0
DWIDTH 7 0
BBX 2 3 2 -3
BITMAP
40
40
80
ENDCHAR
STARTCHAR uni0376
ENCODING 886
SWIDTH 538 0
DWIDTH 7 0
BBX 5 8 1 0
BITMAP
88
98
98
A8
A8
C8
C8
88
ENDCHAR
STARTCHAR uni0377
ENCODING 887
SWIDTH 538 0
DWIDTH 7 0
BBX 5 6 1 0
BITMAP
88
98
A8
A8
C8
88
ENDCHAR
STARTCHAR uni037A
ENCODING 890
SWIDTH 538 0
DWIDTH 7 0
BBX 1 1 0 0
BITMAP
00
ENDCHAR
STARTCHAR uni037B
ENCODING 891
SWIDTH 538 0
DWIDTH 7 0
BBX 5 6 1 0
BITMAP
70
88
08
08
88
70
ENDCHAR
STARTCHAR uni037C
ENCODING 892
SWIDTH 538 0
DWIDTH 7 0
BBX 5 6 1 0
BITMAP
70
88
A0
80
88
70
ENDCHAR
STARTCHAR uni037D
ENCODING 893
SWIDTH 538 0
DWIDTH 7 0
BBX 5 6 1 0
BITMAP
70
88
28
08
88
70
ENDCHAR
STARTCHAR uni037E
ENCODING 894
SWIDTH 538 0
DWIDTH 7 0
BBX 2 6 2 -1
BITMAP
40
40
00
40
40
80
ENDCHAR
STARTCHAR uni037F
ENCODING 895
SWIDTH 538 0
DWIDTH 7 0
BBX 5 10 1 -2
BITMAP
38
10
10
10
10
10
10
10
90
60
ENDCHAR
STARTCHAR tonos
ENCODING 900
SWIDTH 538 0
DWIDTH 7 0
BBX 2 2 2 7
BITMAP
40
80
ENDCHAR
STARTCHAR dieresistonos
ENCODING 901
SWIDTH 538 0
DWIDTH 7 0
BBX 5 2 1 6
BITMAP
10
A8
ENDCHAR
STARTCHAR Alphatonos
ENCODING 902
SWIDTH 538 0
DWIDTH 7 0
BBX 7 9 0 0
BITMAP
40
5C
A2
22
3E
22
22
22
22
ENDCHAR
STARTCHAR anoteleia
ENCODING 903
SWIDTH 538 0
DWIDTH 7 0
BBX 1 2 3 3
BITMAP
80
80
ENDCHAR
STARTCHAR Epsilontonos
ENCODING 904
SWIDTH 538 0
DWIDTH 7 0
BBX 7 9 0 0
BITMAP
40
7E
A0
20
3C
20
20
20
3E
ENDCHAR
STARTCHAR Etatonos
ENCODING 905
SWIDTH 538 0
DWIDTH 7 0
BBX 7 9 0 0
BITMAP
40
62
A2
22
3E
22
22
22
22
ENDCHAR
STARTCHAR Iotatonos
ENCODING 906
SWIDTH 538 0
DWIDTH 7 0
BBX 6 9 0 0
BITMAP
40
5C
88
08
08
08
08
08
1C
ENDCHAR
STARTCHAR Omicrontonos
ENCODING 908
SWIDTH 538 0
DWIDTH 7 0
BBX 7 9 0 0
BITMAP
40
5C
A2
22
22
22
22
22
1C
ENDCHAR
STARTCHAR Upsilontonos
ENCODING 910
SWIDTH 538 0
DWIDTH 7 0
BBX 7 9 0 0
BITMAP
40
62
A2
14
14
08
08
08
08
ENDCHAR
STARTCHAR Omegatonos
ENCODING 911
SWIDTH 538 0
DWIDTH 7 0
BBX 7 10 0 0
BITMAP
40
40
B8
44
82
82
82
44
28
6C
ENDCHAR
STARTCHAR iotadieresistonos
ENCODING 912
SWIDTH 538 0
DWIDTH 7 0
BBX 5 10 1 0
BITMAP
10
20
A8
00
60
20
20
20
20
18
ENDCHAR
STARTCHAR Alpha
ENCODING 913
SWIDTH 538 0
DWIDTH 7 0
BBX 5 8 1 0
BITMAP
70
88
88
F8
88
88
88
88
ENDCHAR
STARTCHAR Beta
ENCODING 914
SWIDTH 538 0
DWIDTH 7 0
BBX 5 8 1 0
BITMAP
F0
88
88
F0
88
88
88
F0
ENDCHAR
STARTCHAR Gamma
ENCODING 915
SWIDTH 538 0
DWIDTH 7 0
BBX 5 8 1 0
BITMAP
F8
80
80
80
80
80
80
80
ENDCHAR
STARTCHAR uni0394
ENCODING 916
SWIDTH 538 0
DWIDTH 7 0
BBX 7 8 0 0
BITMAP
10
10
28
28
44
44
82
FE
ENDCHAR
STARTCHAR Epsilon
ENCODING 917
SWIDTH 538 0
DWIDTH 7 0
BBX 5 8 1 0
BITMAP
F8
80
80
F0
80
80
80
F8
ENDCHAR
STARTCHAR Zeta
ENCODING 918
SWIDTH 538 0
DWIDTH 7 0
BBX 5 8 1 0
BITMAP
F8
08
10
20
40
80
80
F8
ENDCHAR
STARTCHAR Eta
ENCODING 919
SWIDTH 538 0
DWIDTH 7 0
BBX 5 8 1 0
BITMAP
88
88
88
F8
88
88
88
88
ENDCHAR
STARTCHAR Theta
ENCODING 920
SWIDTH 538 0
DWIDTH 7 0
BBX 5 8 1 0
BITMAP
70
88
88
F8
88
88
88
70
ENDCHAR
STARTCHAR Iota
ENCODING 921
SWIDTH 538 0
DWIDTH 7 0
BBX 3 8 2 0
BITMAP
E0
40
40
40
40
40
40
E0
ENDCHAR
STARTCHAR Kappa
ENCODING 922
SWIDTH 538 0
DWIDTH 7 0
BBX 5 8 1 0
BITMAP
88
90
A0
C0
C0
A0
90
88
ENDCHAR
STARTCHAR Lambda
ENCODING 923
SWIDTH 538 0
DWIDTH 7 0
BBX 7 8 0 0
BITMAP
10
10
28
28
44
44
82
82
ENDCHAR
STARTCHAR Mu
ENCODING 924
SWIDTH 538 0
DWIDTH 7 0
BBX 5 8 1 0
BITMAP
88
D8
A8
A8
88
88
88
88
ENDCHAR
STARTCHAR Nu
ENCODING 925
SWIDTH 538 0
DWIDTH 7 0
BBX 5 8 1 0
BITMAP
88
C8
C8
A8
A8
98
98
88
ENDCHAR
STARTCHAR Xi
ENCODING 926
SWIDTH 538 0
DWIDTH 7 0
BBX 5 8 1 0
BITMAP
F8
00
00
70
00
00
00
F8
ENDCHAR
STARTCHAR Omicron
ENCODING 927
SWIDTH 538 0
DWIDTH 7 0
BBX 5 8 1 0
BITMAP
70
88
88
88
88
88
88
70
ENDCHAR
STARTCHAR Pi
ENCODING 928
SWIDTH 538 0
DWIDTH 7 0
BBX 5 8 1 0
BITMAP
F8
88
88
88
88
88
88
88
ENDCHAR
STARTCHAR Rho
ENCODING 929
SWIDTH 538 0
DWIDTH 7 0
BBX 5 8 1 0
BITMAP
F0
88
88
88
F0
80
80
80
ENDCHAR
STARTCHAR Sigma
ENCODING 931
SWIDTH 538 0
DWIDTH 7 0
BBX 6 8 1 0
BITMAP
FC
40
20
10
10
20
40
FC
ENDCHAR
STARTCHAR Tau
ENCODING 932
SWIDTH 538 0
DWIDTH 7 0
BBX 5 8 1 0
BITMAP
F8
20
20
20
20
20
20
20
ENDCHAR
STARTCHAR Upsilon
ENCODING 933
SWIDTH 538 0
DWIDTH 7 0
BBX 5 8 1 0
BITMAP
88
88
50
50
20
20
20
20
ENDCHAR
STARTCHAR Phi
ENCODING 934
SWIDTH 538 0
DWIDTH 7 0
BBX 7 8 0 0
BITMAP
10
7C
92
92
92
7C
10
10
ENDCHAR
STARTCHAR Chi
ENCODING 935
SWIDTH 538 0
DWIDTH 7 0
BBX 5 8 1 0
BITMAP
88
88
50
20
20
50
88
88
ENDCHAR
STARTCHAR Psi
ENCODING 936
SWIDTH 538 0
DWIDTH 7 0
BBX 7 8 0 0
BITMAP
92
92
92
92
7C
10
10
10
ENDCHAR
STARTCHAR uni03A9
ENCODING 937
SWIDTH 538 0
DWIDTH 7 0
BBX 7 8 0 0
BITMAP
38
44
82
82
82
44
28
EE
ENDCHAR
STARTCHAR Iotadieresis
ENCODING 938
SWIDTH 538 0
DWIDTH 7 0
BBX 3 10 2 0
BITMAP
A0
00
E0
40
40
40
40
40
40
E0
ENDCHAR
STARTCHAR Upsilondieresis
ENCODING 939
SWIDTH 538 0
DWIDTH 7 0
BBX 5 10 1 0
BITMAP
50
00
88
88
50
50
20
20
20
20
ENDCHAR
STARTCHAR alphatonos
ENCODING 940
SWIDTH 538 0
DWIDTH 7 0
BBX 5 9 1 0
BITMAP
10
20
00
68
90
90
90
90
68
ENDCHAR
STARTCHAR epsilontonos
ENCODING 941
SWIDTH 538 0
DWIDTH 7 0
BBX 5 9 1 0
BITMAP
10
20
00
70
88
60
80
88
70
ENDCHAR
STARTCHAR etatonos
ENCODING 942
SWIDTH 538 0
DWIDTH 7 0
BBX 5 12 1 -3
BITMAP
10
20
00
B0
48
48
48
48
48
08
08
08
ENDCHAR
STARTCHAR iotatonos
ENCODING 943
SWIDTH 538 0
DWIDTH 7 0
BBX 4 9 2 0
BITMAP
20
40
00
C0
40
40
40
40
30
ENDCHAR
STARTCHAR upsilondieresistonos
ENCODING 944
SWIDTH 538 0
DWIDTH 7 0
BBX 5 10 1 0
BITMAP
10
20
A8
00
90
48
48
48
48
30
ENDCHAR
STARTCHAR alpha
ENCODING 945
SWIDTH 538 0
DWIDTH 7 0
BBX 5 6 1 0
BITMAP
68
90
90
90
90
68
ENDCHAR
STARTCHAR beta
ENCODING 946
SWIDTH 538 0
DWIDTH 7 0
BBX 5 11 1 -3
BITMAP
70
88
88
B0
88
88
C8
B0
80
80
80
ENDCHAR
STARTCHAR gamma
ENCODING 947
SWIDTH 538 0
DWIDTH 7 0
BBX 5 8 1 -3
BITMAP
88
88
50
50
20
20
20
20
ENDCHAR
STARTCHAR delta
ENCODING 948
SWIDTH 538 0
DWIDTH 7 0
BBX 5 9 1 0
BITMAP
60
90
48
20
50
88
88
88
70
ENDCHAR
STARTCHAR epsilon
ENCODING 949
SWIDTH 538 0
DWIDTH 7 0
BBX 5 6 1 0
BITMAP
70
88
60
80
88
70
ENDCHAR
STARTCHAR zeta
ENCODING 950
SWIDTH 538 0
DWIDTH 7 0
BBX 6 12 1 -3
BITMAP
44
38
10
20
40
80
80
80
70
08
08
10
ENDCHAR
STARTCHAR eta
ENCODING 951
SWIDTH 538 0
DWIDTH 7 0
BBX 5 9 1 -3
BITMAP
B0
48
48
48
48
48
08
08
08
ENDCHAR
STARTCHAR theta
ENCODING 952
SWIDTH 538 0
DWIDTH 7 0
BBX 5 9 1 0
BITMAP
70
88
88
88
F8
88
88
88
70
ENDCHAR
STARTCHAR iota
ENCODING 953
SWIDTH 538 0
DWIDTH 7 0
BBX 4 6 2 0
BITMAP
C0
40
40
40
40
30
ENDCHAR
STARTCHAR kappa
ENCODING 954
SWIDTH 538 0
DWIDTH 7 0
BBX 6 6 0 0
BITMAP
84
48
58
68
48
84
ENDCHAR
STARTCHAR lambda
ENCODING 955
SWIDTH 538 0
DWIDTH 7 0
BBX 5 9 1 0
BITMAP
40
40
20
20
20
50
50
88
88
ENDCHAR
STARTCHAR uni03BC
ENCODING 956
SWIDTH 538 0
DWIDTH 7 0
BBX 5 9 1 -3
BITMAP
90
90
90
90
90
E8
80
80
80
ENDCHAR
STARTCHAR nu
ENCODING 957
SWIDTH 538 0
DWIDTH 7 0
BBX 5 6 1 0
BITMAP
88
88
48
50
20
20
ENDCHAR
STARTCHAR xi
ENCODING 958
SWIDTH 538 0
DWIDTH 7 0
BBX 6 13 0 -3
BITMAP
80
58
20
40
48
30
40
40
20
18
04
04
18
ENDCHAR
STARTCHAR omicron
ENCODING 959
SWIDTH 538 0
DWIDTH 7 0
BBX 5 6 1 0
BITMAP
70
88
88
88
88
70
ENDCHAR
STARTCHAR pi
ENCODING 960
SWIDTH 538 0
DWIDTH 7 0
BBX 7 6 0 0
BITMAP
7E
A4
24
24
24
24
ENDCHAR
STARTCHAR rho
ENCODING 961
SWIDTH 538 0
DWIDTH 7 0
BBX 5 9 1 -3
BITMAP
70
88
88
88
88
F0
80
80
80
ENDCHAR
STARTCHAR sigma1
ENCODING 962
SWIDTH 538 0
DWIDTH 7 0
BBX 5 8 1 -2
BITMAP
70
88
80
80
80
70
08
08
ENDCHAR
STARTCHAR sigma
ENCODING 963
SWIDTH 538 0
DWIDTH 7 0
BBX 6 6 1 0
BITMAP
7C
88
88
88
88
70
ENDCHAR
STARTCHAR tau
ENCODING 964
SWIDTH 538 0
DWIDTH 7 0
BBX 5 6 1 0
BITMAP
78
A0
20
20
20
18
ENDCHAR
STARTCHAR upsilon
ENCODING 965
SWIDTH 538 0
DWIDTH 7 0
BBX 5 6 1 0
BITMAP
90
48
48
48
48
30
ENDCHAR
STARTCHAR phi
ENCODING 966
SWIDTH 538 0
DWIDTH 7 0
BBX 5 8 1 -2
BITMAP
10
A8
A8
A8
A8
70
20
20
ENDCHAR
STARTCHAR chi
ENCODING 967
SWIDTH 538 0
DWIDTH 7 0
BBX 5 9 1 -3
BITMAP
88
50
50
20
20
20
50
50
88
ENDCHAR
STARTCHAR psi
ENCODING 968
SWIDTH 538 0
DWIDTH 7 0
BBX 6 12 0 -3
BITMAP
10
10
10
10
94
54
54
54
38
10
10
10
ENDCHAR
STARTCHAR omega
ENCODING 969
SWIDTH 538 0
DWIDTH 7 0
BBX 5 6 1 0
BITMAP
50
88
88
A8
A8
50
ENDCHAR
STARTCHAR iotadieresis
ENCODING 970
SWIDTH 538 0
DWIDTH 7 0
BBX 4 8 2 0
BITMAP
A0
00
C0
40
40
40
40
30
ENDCHAR
STARTCHAR upsilondieresis
ENCODING 971
SWIDTH 538 0
DWIDTH 7 0
BBX 5 8 1 0
BITMAP
50
00
90
48
48
48
48
30
ENDCHAR
STARTCHAR omicrontonos
ENCODING 972
SWIDTH 538 0
DWIDTH 7 0
BBX 5 9 1 0
BITMAP
10
20
00
70
88
88
88
88
70
ENDCHAR
STARTCHAR upsilontonos
ENCODING 973
SWIDTH 538 0
DWIDTH 7 0
BBX 5 9 1 0
BITMAP
10
20
00
90
48
48
48
48
30
ENDCHAR
STARTCHAR omegatonos
ENCODING 974
SWIDTH 538 0
DWIDTH 7 0
BBX 5 9 1 0
BITMAP
10
20
00
50
88
88
A8
A8
50
ENDCHAR
STARTCHAR uni03CF
ENCODING 975
SWIDTH 538 0
DWIDTH 7 0
BBX 5 9 1 -1
BITMAP
88
90
A0
C0
A0
90
88
88
10
ENDCHAR
STARTCHAR uni03D0
ENCODING 976
SWIDTH 538 0
DWIDTH 7 0
BBX 5 9 1 0
BITMAP
60
90
90
E0
80
B0
C8
88
70
ENDCHAR
STARTCHAR theta1
ENCODING 977
SWIDTH 538 0
DWIDTH 7 0
BBX 7 8 0 0
BITMAP
38
44
44
3E
84
44
44
38
ENDCHAR
STARTCHAR Upsilon1
ENCODING 978
SWIDTH 538 0
DWIDTH 7 0
BBX 5 8 1 0
BITMAP
88
88
50
50
20
20
20
20
ENDCHAR
STARTCHAR uni03D3
ENCODING 979
SWIDTH 538 0
DWIDTH 7 0
BBX 7 9 0 0
BITMAP
40
62
A2
14
14
08
08
08
08
ENDCHAR
STARTCHAR uni03D4
ENCODING 980
SWIDTH 538 0
DWIDTH 7 0
BBX 5 10 1 0
BITMAP
50
00
88
88
50
50
20
20
20
20
ENDCHAR
STARTCHAR phi1
ENCODING 981
SWIDTH 538 0
DWIDTH 7 0
BBX 7 12 0 -3
BITMAP
10
10
10
7C
92
92
92
92
7C
10
10
10
ENDCHAR
STARTCHAR omega1
ENCODING 982
SWIDTH 538 0
DWIDTH 7 0
BBX 5 6 1 0
BITMAP
F8
50
88
A8
A8
50
ENDCHAR
STARTCHAR uni03D7
ENCODING 983
SWIDTH 538 0
DWIDTH 7 0
BBX 6 9 0 -3
BITMAP
84
48
58
68
48
84
04
24
18
ENDCHAR
STARTCHAR uni03D8
ENCODING 984
SWIDTH 538 0
DWIDTH 7 0
BBX 5 8 1 0
BITMAP
70
88
88
88
88
70
20
20
ENDCHAR
STARTCHAR uni03D9
ENCODING 985
SWIDTH 538 0
DWIDTH 7 0
BBX 5 9 1 -3
BITMAP
70
88
88
88
88
70
20
20
20
ENDCHAR
STARTCHAR uni03DA
ENCODING 986
SWIDTH 538 0
DWIDTH 7 0
BBX 6 8 0 0
BITMAP
38
44
80
80
80
40
38
08
ENDCHAR
STARTCHAR uni03DB
ENCODING 987
SWIDTH 538 0
DWIDTH 7 0
BBX 6 9 1 -2
BITMAP
04
78
80
80
80
80
70
08
30
ENDCHAR
STARTCHAR uni03DC
ENCODING 988
SWIDTH 538 0
DWIDTH 7 0
BBX 5 8 1 0
BITMAP
F8
80
80
F0
90
80
80
80
ENDCHAR
STARTCHAR uni03DD
ENCODING 989
SWIDTH 538 0
DWIDTH 7 0
BBX 12 9 1 -3
BITMAP
79F0
4110
41F0
7900
4110
41F0
4000
4000
8000
ENDCHAR
STARTCHAR uni03DE
ENCODING 990
SWIDTH 538 0
DWIDTH 7 0
BBX 6 9 1 0
BITMAP
10
20
40
80
FC
08
10
20
40
ENDCHAR
STARTCHAR uni03DF
ENCODING 991
SWIDTH 538 0
DWIDTH 7 0
BBX 6 11 0 -2
BITMAP
60
20
40
40
9C
E8
08
10
10
10
0C
ENDCHAR
STARTCHAR uni03E0
ENCODING 992
SWIDTH 538 0
DWIDTH 7 0
BBX 5 9 1 0
BITMAP
70
28
48
98
A8
A8
A8
A8
A8
ENDCHAR
STARTCHAR uni03E1
ENCODING 993
SWIDTH 538 0
DWIDTH 7 0
BBX 6 11 0 -2
BITMAP
40
20
10
70
88
08
38
44
04
04
04
ENDCHAR
STARTCHAR uni03EE
ENCODING 1006
SWIDTH 538 0
DWIDTH 7 0
BBX 5 9 1 0
BITMAP
70
20
F8
A8
28
20
20
20
70
ENDCHAR
STARTCHAR uni03EF
ENCODING 1007
SWIDTH 538 0
DWIDTH 7 0
BBX 5 9 1 0
BITMAP
70
20
F8
A0
20
20
20
20
70
ENDCHAR
STARTCHAR uni03F0
ENCODING 1008
SWIDTH 538 0
DWIDTH 7 0
BBX 6 6 0 0
BITMAP
84
48
58
68
48
84
ENDCHAR
STARTCHAR uni03F1
ENCODING 1009
SWIDTH 538 0
DWIDTH 7 0
BBX 5 9 1 -3
BITMAP
70
88
88
88
88
F0
80
70
08
ENDCHAR
STARTCHAR uni03F2
ENCODING 1010
SWIDTH 538 0
DWIDTH 7 0
BBX 5 6 1 0
BITMAP
70
88
80
80
88
70
ENDCHAR
STARTCHAR uni03F3
ENCODING 1011
SWIDTH 538 0
DWIDTH 7 0
BBX 4 12 0 -3
BITMAP
10
10
00
30
10
10
10
10
10
10
90
60
ENDCHAR
STARTCHAR uni03F4
ENCODING 1012
SWIDTH 538 0
DWIDTH 7 0
BBX 5 8 1 0
BITMAP
70
88
88
F8
88
88
88
70
ENDCHAR
STARTCHAR uni03F5
ENCODING 1013
SWIDTH 538 0
DWIDTH 7 0
BBX 5 6 1 0
BITMAP
78
80
F0
80
80
78
ENDCHAR
STARTCHAR uni03F6
ENCODING 1014
SWIDTH 538 0
DWIDTH 7 0
BBX 5 6 1 0
BITMAP
F0
08
78
08
08
F0
ENDCHAR
STARTCHAR uni03F7
ENCODING 1015
SWIDTH 538 0
DWIDTH 7 0
BBX 5 8 1 0
BITMAP
80
F0
88
88
88
F0
80
80
ENDCHAR
STARTCHAR uni03F8
ENCODING 1016
SWIDTH 538 0
DWIDTH 7 0
BBX 5 12 1 -3
BITMAP
80
80
80
B0
C8
88
88
C8
B0
80
80
80
ENDCHAR
STARTCHAR uni03F9
ENCODING 1017
SWIDTH 538 0
DWIDTH 7 0
BBX 5 8 1 0
BITMAP
70
88
80
80
80
80
88
70
ENDCHAR
STARTCHAR uni03FA
ENCODING 1018
SWIDTH 538 0
DWIDTH 7 0
BBX 5 8 1 0
BITMAP
88
D8
D8
A8
A8
88
88
88
ENDCHAR
STARTCHAR uni03FB
ENCODING 1019
SWIDTH 538 0
DWIDTH 7 0
BBX 6 9 0 -3
BITMAP
44
6C
54
54
44
44
40
40
80
ENDCHAR
STARTCHAR uni03FC
ENCODING 1020
SWIDTH 538 0
DWIDTH 7 0
BBX 6 9 0 -3
BITMAP
38
44
44
44
44
78
40
F8
40
ENDCHAR
STARTCHAR uni03FD
ENCODING 1021
SWIDTH 538 0
DWIDTH 7 0
BBX 5 8 1 0
BITMAP
70
88
08
08
08
08
88
70
ENDCHAR
STARTCHAR uni03FE
ENCODING 1022
SWIDTH 538 0
DWIDTH 7 0
BBX 5 8 1 0
BITMAP
70
88
80
A0
A0
80
88
70
ENDCHAR
STARTCHAR uni03FF
ENCODING 1023
SWIDTH 538 0
DWIDTH 7 0
BBX 5 8 1 0
BITMAP
70
88
08
28
28
08
88
70
ENDCHAR
STARTCHAR uni0400
ENCODING 1024
SWIDTH 538 0
DWIDTH 7 0
BBX 5 10 1 0
BITMAP
40
20
F8
80
80
F0
80
80
80
F8
ENDCHAR
STARTCHAR uni0401
ENCODING 1025
SWIDTH 538 0
DWIDTH 7 0
BBX 5 10 1 0
BITMAP
50
00
F8
80
80
F0
80
80
80
F8
ENDCHAR
STARTCHAR uni0402
ENCODING 1026
SWIDTH 538 0
DWIDTH 7 0
BBX 7 8 0 0
BITMAP
F8
20
20
3C
22
22
22
2C
ENDCHAR
STARTCHAR uni0403
ENCODING 1027
SWIDTH 538 0
DWIDTH 7 0
BBX 5 10 1 0
BITMAP
10
20
F8
80
80
80
80
80
80
80
ENDCHAR
STARTCHAR uni0404
ENCODING 1028
SWIDTH 538 0
DWIDTH 7 0
BBX 5 8 1 0
BITMAP
70
88
80
F0
80
80
88
70
ENDCHAR
STARTCHAR uni0405
ENCODING 1029
SWIDTH 538 0
DWIDTH 7 0
BBX 5 8 1 0
BITMAP
70
88
80
60
10
08
88
70
ENDCHAR
STARTCHAR uni0406
ENCODING 1030
SWIDTH 538 0
DWIDTH 7 0
BBX 3 8 2 0
BITMAP
E0
40
40
40
40
40
40
E0
ENDCHAR
STARTCHAR uni0407
ENCODING 1031
SWIDTH 538 0
DWIDTH 7 0
BBX 3 10 2 0
BITMAP
A0
00
E0
40
40
40
40
40
40
E0
ENDCHAR
STARTCHAR uni0408
ENCODING 1032
SWIDTH 538 0
DWIDTH 7 0
BBX 5 8 1 0
BITMAP
38
10
10
10
10
10
90
60
ENDCHAR
STARTCHAR uni0409
ENCODING 1033
SWIDTH 538 0
DWIDTH 7 0
BBX 7 8 0 0
BITMAP
70
50
5C
52
52
52
92
9C
ENDCHAR
STARTCHAR uni040A
ENCODING 1034
SWIDTH 538 0
DWIDTH 7 0
BBX 7 8 0 0
BITMAP
90
90
90
FC
92
92
92
9C
ENDCHAR
STARTCHAR uni040B
ENCODING 1035
SWIDTH 538 0
DWIDTH 7 0
BBX 7 8 0 0
BITMAP
F8
20
20
3C
22
22
22
22
ENDCHAR
STARTCHAR uni040C
ENCODING 1036
SWIDTH 538 0
DWIDTH 7 0
BBX 5 10 1 0
BITMAP
10
20
88
90
A0
E0
90
88
88
88
ENDCHAR
STARTCHAR uni040D
ENCODING 1037
SWIDTH 538 0
DWIDTH 7 0
BBX 5 10 1 0
BITMAP
40
20
88
98
98
A8
A8
C8
C8
88
ENDCHAR
STARTCHAR uni040E
ENCODING 1038
SWIDTH 538 0
DWIDTH 7 0
BBX 7 10 0 0
BITMAP
48
30
82
44
44
28
28
10
90
60
ENDCHAR
STARTCHAR uni040F
ENCODING 1039
SWIDTH 538 0
DWIDTH 7 0
BBX 5 10 1 -2
BITMAP
88
88
88
88
88
88
88
F8
20
20
ENDCHAR
STARTCHAR uni0410
ENCODING 1040
SWIDTH 538 0
DWIDTH 7 0
BBX 5 8 1 0
BITMAP
70
88
88
F8
88
88
88
88
ENDCHAR
STARTCHAR uni0411
ENCODING 1041
SWIDTH 538 0
DWIDTH 7 0
BBX 5 9 1 0
BITMAP
F8
80
80
F0
88
88
88
88
F0
ENDCHAR
STARTCHAR uni0412
ENCODING 1042
SWIDTH 538 0
DWIDTH 7 0
BBX 5 8 1 0
BITMAP
F0
88
88
F0
88
88
88
F0
ENDCHAR
STARTCHAR uni0413
ENCODING 1043
SWIDTH 538 0
DWIDTH 7 0
BBX 5 8 1 0
BITMAP
F8
80
80
80
80
80
80
80
ENDCHAR
STARTCHAR uni0414
ENCODING 1044
SWIDTH 538 0
DWIDTH 7 0
BBX 7 9 0 -1
BITMAP
3C
24
24
24
24
24
44
7E
82
ENDCHAR
STARTCHAR uni0415
ENCODING 1045
SWIDTH 538 0
DWIDTH 7 0
BBX 5 8 1 0
BITMAP
F8
80
80
F0
80
80
80
F8
ENDCHAR
STARTCHAR uni0416
ENCODING 1046
SWIDTH 538 0
DWIDTH 7 0
BBX 7 8 0 0
BITMAP
92
92
54
38
54
92
92
92
ENDCHAR
STARTCHAR uni0417
ENCODING 1047
SWIDTH 538 0
DWIDTH 7 0
BBX 5 8 1 0
BITMAP
70
88
08
70
08
08
88
70
ENDCHAR
STARTCHAR uni0418
ENCODING 1048
SWIDTH 538 0
DWIDTH 7 0
BBX 5 8 1 0
BITMAP
88
88
98
A8
A8
C8
88
88
ENDCHAR
STARTCHAR uni0419
ENCODING 1049
SWIDTH 538 0
DWIDTH 7 0
BBX 5 10 1 0
BITMAP
50
70
88
88
98
A8
A8
C8
88
88
ENDCHAR
STARTCHAR uni041A
ENCODING 1050
SWIDTH 538 0
DWIDTH 7 0
BBX 5 8 1 0
BITMAP
88
90
A0
E0
90
88
88
88
ENDCHAR
STARTCHAR uni041B
ENCODING 1051
SWIDTH 538 0
DWIDTH 7 0
BBX 6 8 0 0
BITMAP
3C
24
24
24
24
44
44
84
ENDCHAR
STARTCHAR uni041C
ENCODING 1052
SWIDTH 538 0
DWIDTH 7 0
BBX 5 8 1 0
BITMAP
88
D8
A8
A8
88
88
88
88
ENDCHAR
STARTCHAR uni041D
ENCODING 1053
SWIDTH 538 0
DWIDTH 7 0
BBX 5 8 1 0
BITMAP
88
88
88
F8
88
88
88
88
ENDCHAR
STARTCHAR uni041E
ENCODING 1054
SWIDTH 538 0
DWIDTH 7 0
BBX 5 8 1 0
BITMAP
70
88
88
88
88
88
88
70
ENDCHAR
STARTCHAR uni041F
ENCODING 1055
SWIDTH 538 0
DWIDTH 7 0
BBX 5 8 1 0
BITMAP
F8
88
88
88
88
88
88
88
ENDCHAR
STARTCHAR uni0420
ENCODING 1056
SWIDTH 538 0
DWIDTH 7 0
BBX 5 8 1 0
BITMAP
F0
88
88
88
F0
80
80
80
ENDCHAR
STARTCHAR uni0421
ENCODING 1057
SWIDTH 538 0
DWIDTH 7 0
BBX 5 8 1 0
BITMAP
70
88
80
80
80
80
88
70
ENDCHAR
STARTCHAR uni0422
ENCODING 1058
SWIDTH 538 0
DWIDTH 7 0
BBX 5 8 1 0
BITMAP
F8
20
20
20
20
20
20
20
ENDCHAR
STARTCHAR uni0423
ENCODING 1059
SWIDTH 538 0
DWIDTH 7 0
BBX 7 8 0 0
BITMAP
82
44
44
28
28
10
90
60
ENDCHAR
STARTCHAR uni0424
ENCODING 1060
SWIDTH 538 0
DWIDTH 7 0
BBX 7 8 0 0
BITMAP
10
7C
92
92
92
92
7C
10
ENDCHAR
STARTCHAR uni0425
ENCODING 1061
SWIDTH 538 0
DWIDTH 7 0
BBX 5 8 1 0
BITMAP
88
88
50
20
20
50
88
88
ENDCHAR
STARTCHAR uni0426
ENCODING 1062
SWIDTH 538 0
DWIDTH 7 0
BBX 6 10 0 -2
BITMAP
88
88
88
88
88
88
88
FC
04
04
ENDCHAR
STARTCHAR uni0427
ENCODING 1063
SWIDTH 538 0
DWIDTH 7 0
BBX 5 8 1 0
BITMAP
88
88
88
88
78
08
08
08
ENDCHAR
STARTCHAR uni0428
ENCODING 1064
SWIDTH 538 0
DWIDTH 7 0
BBX 5 8 1 0
BITMAP
A8
A8
A8
A8
A8
A8
A8
F8
ENDCHAR
STARTCHAR uni0429
ENCODING 1065
SWIDTH 538 0
DWIDTH 7 0
BBX 6 9 0 -1
BITMAP
A8
A8
A8
A8
A8
A8
A8
FC
04
ENDCHAR
STARTCHAR uni042A
ENCODING 1066
SWIDTH 538 0
DWIDTH 7 0
BBX 7 8 0 0
BITMAP
E0
20
20
3C
22
22
22
3C
ENDCHAR
STARTCHAR uni042B
ENCODING 1067
SWIDTH 538 0
DWIDTH 7 0
BBX 7 8 0 0
BITMAP
82
82
82
FA
8A
8A
8A
F2
ENDCHAR
STARTCHAR uni042C
ENCODING 1068
SWIDTH 538 0
DWIDTH 7 0
BBX 5 8 1 0
BITMAP
80
80
80
F0
88
88
88
F0
ENDCHAR
STARTCHAR uni042D
ENCODING 1069
SWIDTH 538 0
DWIDTH 7 0
BBX 5 8 1 0
BITMAP
70
88
08
78
08
08
88
70
ENDCHAR
STARTCHAR uni042E
ENCODING 1070
SWIDTH 538 0
DWIDTH 7 0
BBX 7 8 0 0
BITMAP
9C
A2
A2
E2
A2
A2
A2
9C
ENDCHAR
STARTCHAR uni042F
ENCODING 1071
SWIDTH 538 0
DWIDTH 7 0
BBX 5 8 1 0
BITMAP
78
88
88
88
78
48
88
88
ENDCHAR
STARTCHAR uni0430
ENCODING 1072
SWIDTH 538 0
DWIDTH 7 0
BBX 5 6 1 0
BITMAP
70
08
78
88
88
78
ENDCHAR
STARTCHAR uni0431
ENCODING 1073
SWIDTH 538 0
DWIDTH 7 0
BBX 5 9 1 0
BITMAP
38
40
80
B0
C8
88
88
88
70
ENDCHAR
STARTCHAR uni0432
ENCODING 1074
SWIDTH 538 0
DWIDTH 7 0
BBX 5 6 1 0
BITMAP
F0
88
F0
88
88
F0
ENDCHAR
STARTCHAR uni0433
ENCODING 1075
SWIDTH 538 0
DWIDTH 7 0
BBX 4 6 1 0
BITMAP
F0
80
80
80
80
80
ENDCHAR
STARTCHAR uni0434
ENCODING 1076
SWIDTH 538 0
DWIDTH 7 0
BBX 6 7 0 -1
BITMAP
78
48
48
48
88
FC
84
ENDCHAR
STARTCHAR uni0435
ENCODING 1077
SWIDTH 538 0
DWIDTH 7 0
BBX 5 6 1 0
BITMAP
70
88
F8
80
88
70
ENDCHAR
STARTCHAR uni0436
ENCODING 1078
SWIDTH 538 0
DWIDTH 7 0
BBX 7 6 0 0
BITMAP
92
54
38
54
92
92
ENDCHAR
STARTCHAR uni0437
ENCODING 1079
SWIDTH 538 0
DWIDTH 7 0
BBX 5 6 1 0
BITMAP
70
88
30
08
88
70
ENDCHAR
STARTCHAR uni0438
ENCODING 1080
SWIDTH 538 0
DWIDTH 7 0
BBX 5 6 1 0
BITMAP
88
98
A8
C8
88
88
ENDCHAR
STARTCHAR uni0439
ENCODING 1081
SWIDTH 538 0
DWIDTH 7 0
BBX 5 9 1 0
BITMAP
50
70
00
88
98
A8
C8
88
88
ENDCHAR
STARTCHAR uni043A
ENCODING 1082
SWIDTH 538 0
DWIDTH 7 0
BBX 5 6 1 0
BITMAP
88
90
E0
90
88
88
ENDCHAR
STARTCHAR uni043B
ENCODING 1083
SWIDTH 538 0
DWIDTH 7 0
BBX 5 6 1 0
BITMAP
78
48
48
48
88
88
ENDCHAR
STARTCHAR uni043C
ENCODING 1084
SWIDTH 538 0
DWIDTH 7 0
BBX 5 6 1 0
BITMAP
88
D8
A8
88
88
88
ENDCHAR
STARTCHAR uni043D
ENCODING 1085
SWIDTH 538 0
DWIDTH 7 0
BBX 5 6 1 0
BITMAP
88
88
F8
88
88
88
ENDCHAR
STARTCHAR uni043E
ENCODING 1086
SWIDTH 538 0
DWIDTH 7 0
BBX 5 6 1 0
BITMAP
70
88
88
88
88
70
ENDCHAR
STARTCHAR uni043F
ENCODING 1087
SWIDTH 538 0
DWIDTH 7 0
BBX 5 6 1 0
BITMAP
F8
88
88
88
88
88
ENDCHAR
STARTCHAR uni0440
ENCODING 1088
SWIDTH 538 0
DWIDTH 7 0
BBX 5 9 1 -3
BITMAP
F0
88
88
88
88
F0
80
80
80
ENDCHAR
STARTCHAR uni0441
ENCODING 1089
SWIDTH 538 0
DWIDTH 7 0
BBX 5 6 1 0
BITMAP
70
88
80
80
88
70
ENDCHAR
STARTCHAR uni0442
ENCODING 1090
SWIDTH 538 0
DWIDTH 7 0
BBX 5 6 1 0
BITMAP
F8
20
20
20
20
20
ENDCHAR
STARTCHAR uni0443
ENCODING 1091
SWIDTH 538 0
DWIDTH 7 0
BBX 5 9 1 -3
BITMAP
88
88
88
50
50
20
20
20
C0
ENDCHAR
STARTCHAR uni0444
ENCODING 1092
SWIDTH 538 0
DWIDTH 7 0
BBX 7 11 0 -3
BITMAP
10
10
10
7C
92
92
92
7C
10
10
10
ENDCHAR
STARTCHAR uni0445
ENCODING 1093
SWIDTH 538 0
DWIDTH 7 0
BBX 5 6 1 0
BITMAP
88
50
20
20
50
88
ENDCHAR
STARTCHAR uni0446
ENCODING 1094
SWIDTH 538 0
DWIDTH 7 0
BBX 6 8 1 -2
BITMAP
88
88
88
88
88
FC
04
04
ENDCHAR
STARTCHAR uni0447
ENCODING 1095
SWIDTH 538 0
DWIDTH 7 0
BBX 5 6 1 0
BITMAP
88
88
88
78
08
08
ENDCHAR
STARTCHAR uni0448
ENCODING 1096
SWIDTH 538 0
DWIDTH 7 0
BBX 5 6 1 0
BITMAP
A8
A8
A8
A8
A8
F8
ENDCHAR
STARTCHAR uni0449
ENCODING 1097
SWIDTH 538 0
DWIDTH 7 0
BBX 6 8 1 -2
BITMAP
A8
A8
A8
A8
A8
FC
04
04
ENDCHAR
STARTCHAR uni044A
ENCODING 1098
SWIDTH 538 0
DWIDTH 7 0
BBX 6 6 0 0
BITMAP
C0
40
78
44
44
78
ENDCHAR
STARTCHAR uni044B
ENCODING 1099
SWIDTH 538 0
DWIDTH 7 0
BBX 7 6 0 0
BITMAP
82
82
F2
8A
8A
F2
ENDCHAR
STARTCHAR uni044C
ENCODING 1100
SWIDTH 538 0
DWIDTH 7 0
BBX 5 6 1 0
BITMAP
80
80
F0
88
88
F0
ENDCHAR
STARTCHAR uni044D
ENCODING 1101
SWIDTH 538 0
DWIDTH 7 0
BBX 5 6 1 0
BITMAP
70
88
38
08
88
70
ENDCHAR
STARTCHAR uni044E
ENCODING 1102
SWIDTH 538 0
DWIDTH 7 0
BBX 7 6 0 0
BITMAP
9C
A2
E2
A2
A2
9C
ENDCHAR
STARTCHAR uni044F
ENCODING 1103
SWIDTH 538 0
DWIDTH 7 0
BBX 5 6 1 0
BITMAP
78
88
78
48
88
88
ENDCHAR
STARTCHAR uni0450
ENCODING 1104
SWIDTH 538 0
DWIDTH 7 0
BBX 5 9 1 0
BITMAP
40
20
00
70
88
F8
80
88
70
ENDCHAR
STARTCHAR uni0451
ENCODING 1105
SWIDTH 538 0
DWIDTH 7 0
BBX 5 8 1 0
BITMAP
50
00
70
88
F8
80
88
70
ENDCHAR
STARTCHAR uni0452
ENCODING 1106
SWIDTH 538 0
DWIDTH 7 0
BBX 6 12 0 -3
BITMAP
40
F0
40
58
64
44
44
44
44
04
04
18
ENDCHAR
STARTCHAR uni0453
ENCODING 1107
SWIDTH 538 0
DWIDTH 7 0
BBX 4 9 1 0
BITMAP
20
40
00
F0
80
80
80
80
80
ENDCHAR
STARTCHAR uni0454
ENCODING 1108
SWIDTH 538 0
DWIDTH 7 0
BBX 5 6 1 0
BITMAP
70
88
E0
80
88
70
ENDCHAR
STARTCHAR uni0455
ENCODING 1109
SWIDTH 538 0
DWIDTH 7 0
BBX 5 6 1 0
BITMAP
78
80
60
10
08
F0
ENDCHAR
STARTCHAR uni0456
ENCODING 1110
SWIDTH 538 0
DWIDTH 7 0
BBX 2 9 2 0
BITMAP
40
40
00
C0
40
40
40
40
40
ENDCHAR
STARTCHAR uni0457
ENCODING 1111
SWIDTH 538 0
DWIDTH 7 0
BBX 3 8 2 0
BITMAP
A0
00
C0
40
40
40
40
40
ENDCHAR
STARTCHAR uni0458
ENCODING 1112
SWIDTH 538 0
DWIDTH 7 0
BBX 4 12 0 -3
BITMAP
10
10
00
30
10
10
10
10
10
10
90
60
ENDCHAR
STARTCHAR uni0459
ENCODING 1113
SWIDTH 538 0
DWIDTH 7 0
BBX 7 6 0 0
BITMAP
70
50
5C
52
92
9C
ENDCHAR
STARTCHAR uni045A
ENCODING 1114
SWIDTH 538 0
DWIDTH 7 0
BBX 7 6 0 0
BITMAP
90
90
FC
92
92
9C
ENDCHAR
STARTCHAR uni045B
ENCODING 1115
SWIDTH 538 0
DWIDTH 7 0
BBX 6 9 0 0
BITMAP
40
F0
40
78
44
44
44
44
44
ENDCHAR
STARTCHAR uni045C
ENCODING 1116
SWIDTH 538 0
DWIDTH 7 0
BBX 5 9 1 0
BITMAP
10
20
00
88
90
E0
90
88
88
ENDCHAR
STARTCHAR uni045D
ENCODING 1117
SWIDTH 538 0
DWIDTH 7 0
BBX 5 9 1 0
BITMAP
40
20
00
88
98
A8
C8
88
88
ENDCHAR
STARTCHAR uni045E
ENCODING 1118
SWIDTH 538 0
DWIDTH 7 0
BBX 5 12 1 -3
BITMAP
50
70
00
88
88
88
50
50
20
20
40
80
ENDCHAR
STARTCHAR uni045F
ENCODING 1119
SWIDTH 538 0
DWIDTH 7 0
BBX 5 8 1 -2
BITMAP
88
88
88
88
88
F8
20
20
ENDCHAR
STARTCHAR uni0460
ENCODING 1120
SWIDTH 538 0
DWIDTH 7 0
BBX 7 7 0 0
BITMAP
6C
82
82
92
92
92
6C
ENDCHAR
STARTCHAR uni0461
ENCODING 1121
SWIDTH 538 0
DWIDTH 7 0
BBX 7 6 0 0
BITMAP
A2
A2
52
54
54
28
ENDCHAR
STARTCHAR uni0462
ENCODING 1122
SWIDTH 538 0
DWIDTH 7 0
BBX 6 8 0 0
BITMAP
40
F0
40
78
44
44
44
78
ENDCHAR
STARTCHAR uni0463
ENCODING 1123
SWIDTH 538 0
DWIDTH 7 0
BBX 6 9 0 0
BITMAP
40
F0
40
40
40
78
44
44
78
ENDCHAR
STARTCHAR uni0464
ENCODING 1124
SWIDTH 538 0
DWIDTH 7 0
BBX 7 8 0 0
BITMAP
9C
A2
A0
FC
A0
A0
A2
9C
ENDCHAR
STARTCHAR uni0465
ENCODING 1125
SWIDTH 538 0
DWIDTH 7 0
BBX 7 6 0 0
BITMAP
9C
A2
F8
A0
A2
9C
ENDCHAR
STARTCHAR uni0466
ENCODING 1126
SWIDTH 538 0
DWIDTH 7 0
BBX 5 8 1 0
BITMAP
70
88
F8
A8
A8
A8
A8
A8
ENDCHAR
STARTCHAR uni0467
ENCODING 1127
SWIDTH 538 0
DWIDTH 7 0
BBX 5 6 1 0
BITMAP
70
88
F8
A8
A8
A8
ENDCHAR
STARTCHAR uni0468
ENCODING 1128
SWIDTH 538 0
DWIDTH 7 0
BBX 7 8 0 0
BITMAP
9C
A2
FE
AA
AA
AA
AA
AA
ENDCHAR
STARTCHAR uni0469
ENCODING 1129
SWIDTH 538 0
DWIDTH 7 0
BBX 7 6 0 0
BITMAP
9C
A2
FE
AA
AA
AA
ENDCHAR
STARTCHAR uni046A
ENCODING 1130
SWIDTH 538 0
DWIDTH 7 0
BBX 7 8 0 0
BITMAP
7C
44
38
54
92
92
92
92
ENDCHAR
STARTCHAR uni046B
ENCODING 1131
SWIDTH 538 0
DWIDTH 7 0
BBX 5 6 1 0
BITMAP
F8
88
70
A8
A8
A8
ENDCHAR
STARTCHAR uni046C
ENCODING 1132
SWIDTH 538 0
DWIDTH 7 0
BBX 7 8 0 0
BITMAP
BE
A2
DC
AA
AA
AA
AA
AA
ENDCHAR
STARTCHAR uni046D
ENCODING 1133
SWIDTH 538 0
DWIDTH 7 0
BBX 7 6 0 0
BITMAP
BE
A2
DC
AA
AA
AA
ENDCHAR
STARTCHAR uni046E
ENCODING 1134
SWIDTH 538 0
DWIDTH 7 0
BBX 5 11 1 -1
BITMAP
50
20
70
88
08
70
08
08
08
70
80
ENDCHAR
STARTCHAR uni046F
ENCODING 1135
SWIDTH 538 0
DWIDTH 7 0
BBX 5 10 1 -2
BITMAP
50
20
F0
08
70
08
08
70
80
70
ENDCHAR
STARTCHAR uni0470
ENCODING 1136
SWIDTH 538 0
DWIDTH 7 0
BBX 7 8 0 0
BITMAP
92
92
92
92
7C
10
10
10
ENDCHAR
STARTCHAR uni0471
ENCODING 1137
SWIDTH 538 0
DWIDTH 7 0
BBX 5 12 1 -3
BITMAP
20
20
20
20
A8
A8
A8
A8
70
20
20
20
ENDCHAR
STARTCHAR uni0472
ENCODING 1138
SWIDTH 538 0
DWIDTH 7 0
BBX 5 8 1 0
BITMAP
70
88
88
F8
88
88
88
70
ENDCHAR
STARTCHAR uni0473
ENCODING 1139
SWIDTH 538 0
DWIDTH 7 0
BBX 5 6 1 0
BITMAP
70
88
F8
88
88
70
ENDCHAR
STARTCHAR uni0474
ENCODING 1140
SWIDTH 538 0
DWIDTH 7 0
BBX 6 8 0 0
BITMAP
8C
88
88
50
50
50
20
20
ENDCHAR
STARTCHAR uni0475
ENCODING 1141
SWIDTH 538 0
DWIDTH 7 0
BBX 6 6 0 0
BITMAP
8C
88
50
50
20
20
ENDCHAR
STARTCHAR uni0476
ENCODING 1142
SWIDTH 538 0
DWIDTH 7 0
BBX 6 10 0 0
BITMAP
A0
50
8C
88
88
50
50
50
20
20
ENDCHAR
STARTCHAR uni0477
ENCODING 1143
SWIDTH 538 0
DWIDTH 7 0
BBX 6 9 0 0
BITMAP
A0
50
00
8C
88
50
50
20
20
ENDCHAR
STARTCHAR uni0478
ENCODING 1144
SWIDTH 538 0
DWIDTH 7 0
BBX 7 11 0 -3
BITMAP
60
90
9A
9A
9A
9A
9A
6A
04
04
18
ENDCHAR
STARTCHAR uni0479
ENCODING 1145
SWIDTH 538 0
DWIDTH 7 0
BBX 7 9 0 -3
BITMAP
6A
9A
9A
9A
9A
6A
04
04
18
ENDCHAR
STARTCHAR uni047A
ENCODING 1146
SWIDTH 538 0
DWIDTH 7 0
BBX 5 10 1 -1
BITMAP
20
70
A8
88
88
88
88
A8
70
20
ENDCHAR
STARTCHAR uni047B
ENCODING 1147
SWIDTH 538 0
DWIDTH 7 0
BBX 5 8 1 -1
BITMAP
20
70
A8
88
88
A8
70
20
ENDCHAR
STARTCHAR uni0490
ENCODING 1168
SWIDTH 538 0
DWIDTH 7 0
BBX 5 8 1 0
BITMAP
08
F8
80
80
80
80
80
80
ENDCHAR
STARTCHAR uni0491
ENCODING 1169
SWIDTH 538 0
DWIDTH 7 0
BBX 4 7 1 0
BITMAP
10
F0
80
80
80
80
80
ENDCHAR
STARTCHAR uni0492
ENCODING 1170
SWIDTH 538 0
DWIDTH 7 0
BBX 6 8 0 0
BITMAP
7C
40
40
F8
40
40
40
40
ENDCHAR
STARTCHAR uni0493
ENCODING 1171
SWIDTH 538 0
DWIDTH 7 0
BBX 5 6 1 0
BITMAP
78
40
F0
40
40
40
ENDCHAR
STARTCHAR uni06F1
ENCODING 1777
SWIDTH 352 0
DWIDTH 5 0
BBX 1 1 0 0
BITMAP
00
ENDCHAR
STARTCHAR uni06F2
ENCODING 1778
SWIDTH 352 0
DWIDTH 5 0
BBX 1 1 0 0
BITMAP
00
ENDCHAR
STARTCHAR uni06F3
ENCODING 1779
SWIDTH 352 0
DWIDTH 5 0
BBX 1 1 0 0
BITMAP
00
ENDCHAR
STARTCHAR uni06F4
ENCODING 1780
SWIDTH 352 0
DWIDTH 5 0
BBX 1 1 0 0
BITMAP
00
ENDCHAR
STARTCHAR uni06F5
ENCODING 1781
SWIDTH 352 0
DWIDTH 5 0
BBX 1 1 0 0
BITMAP
00
ENDCHAR
STARTCHAR uni06F6
ENCODING 1782
SWIDTH 352 0
DWIDTH 5 0
BBX 1 1 0 0
BITMAP
00
ENDCHAR
STARTCHAR uni06F7
ENCODING 1783
SWIDTH 352 0
DWIDTH 5 0
BBX 1 1 0 0
BITMAP
00
ENDCHAR
STARTCHAR uni06F8
ENCODING 1784
SWIDTH 352 0
DWIDTH 5 0
BBX 1 1 0 0
BITMAP
00
ENDCHAR
STARTCHAR uni06F9
ENCODING 1785
SWIDTH 352 0
DWIDTH 5 0
BBX 1 1 0 0
BITMAP
00
ENDCHAR
STARTCHAR ygrave
ENCODING 7923
SWIDTH 538 0
DWIDTH 7 0
BBX 5 11 1 -3
BITMAP
40
20
88
88
88
50
50
20
20
40
40
ENDCHAR
STARTCHAR uni2010
ENCODING 8208
SWIDTH 538 0
DWIDTH 7 0
BBX 3 1 2 3
BITMAP
E0
ENDCHAR
STARTCHAR uni2011
ENCODING 8209
SWIDTH 538 0
DWIDTH 7 0
BBX 3 1 2 3
BITMAP
E0
ENDCHAR
STARTCHAR figuredash
ENCODING 8210
SWIDTH 538 0
DWIDTH 7 0
BBX 5 1 1 3
BITMAP
F8
ENDCHAR
STARTCHAR endash
ENCODING 8211
SWIDTH 538 0
DWIDTH 7 0
BBX 5 1 1 3
BITMAP
F8
ENDCHAR
STARTCHAR emdash
ENCODING 8212
SWIDTH 538 0
DWIDTH 7 0
BBX 7 1 0 3
BITMAP
FE
ENDCHAR
STARTCHAR uni2015
ENCODING 8213
SWIDTH 538 0
DWIDTH 7 0
BBX 7 1 0 3
BITMAP
FE
ENDCHAR
STARTCHAR uni2016
ENCODING 8214
SWIDTH 538 0
DWIDTH 7 0
BBX 3 10 2 -1
BITMAP
A0
A0
A0
A0
A0
A0
A0
A0
A0
A0
ENDCHAR
STARTCHAR quoteleft
ENCODING 8216
SWIDTH 538 0
DWIDTH 7 0
BBX 2 3 3 6
BITMAP
40
80
80
ENDCHAR
STARTCHAR quoteright
ENCODING 8217
SWIDTH 538 0
DWIDTH 7 0
BBX 2 3 3 6
BITMAP
40
40
80
ENDCHAR
STARTCHAR quotesinglbase
ENCODING 8218
SWIDTH 538 0
DWIDTH 7 0
BBX 2 3 3 -2
BITMAP
40
40
80
ENDCHAR
STARTCHAR quotereversed
ENCODING 8219
SWIDTH 538 0
DWIDTH 7 0
BBX 2 3 4 6
BITMAP
80
80
40
ENDCHAR
STARTCHAR quotedblleft
ENCODING 8220
SWIDTH 538 0
DWIDTH 7 0
BBX 4 3 2 6
BITMAP
50
A0
A0
ENDCHAR
STARTCHAR quotedblright
ENCODING 8221
SWIDTH 538 0
DWIDTH 7 0
BBX 4 3 1 6
BITMAP
50
50
A0
ENDCHAR
STARTCHAR quotedblbase
ENCODING 8222
SWIDTH 538 0
DWIDTH 7 0
BBX 4 3 2 -2
BITMAP
50
50
A0
ENDCHAR
STARTCHAR uni201F
ENCODING 8223
SWIDTH 538 0
DWIDTH 7 0
BBX 4 3 2 6
BITMAP
A0
A0
50
ENDCHAR
STARTCHAR dagger
ENCODING 8224
SWIDTH 1000 0
DWIDTH 7 0
BBX 3 8 2 0
BITMAP
40
40
E0
40
40
40
40
40
ENDCHAR
STARTCHAR daggerdbl
ENCODING 8225
SWIDTH 1000 0
DWIDTH 7 0
BBX 3 8 2 0
BITMAP
40
40
E0
40
40
E0
40
40
ENDCHAR
STARTCHAR bullet
ENCODING 8226
SWIDTH 1000 0
DWIDTH 7 0
BBX 4 3 2 3
BITMAP
60
F0
60
ENDCHAR
STARTCHAR uni2023
ENCODING 8227
SWIDTH 1000 0
DWIDTH 7 0
BBX 2 3 2 3
BITMAP
80
C0
80
ENDCHAR
STARTCHAR onedotenleader
ENCODING 8228
SWIDTH 538 0
DWIDTH 7 0
BBX 1 2 3 0
BITMAP
80
80
ENDCHAR
STARTCHAR twodotenleader
ENCODING 8229
SWIDTH 538 0
DWIDTH 7 0
BBX 3 2 2 0
BITMAP
A0
A0
ENDCHAR
STARTCHAR ellipsis
ENCODING 8230
SWIDTH 1000 0
DWIDTH 7 0
BBX 5 2 1 0
BITMAP
A8
A8
ENDCHAR
STARTCHAR uni2027
ENCODING 8231
SWIDTH 538 0
DWIDTH 7 0
BBX 1 2 3 3
BITMAP
80
80
ENDCHAR
STARTCHAR uni20A8
ENCODING 8360
SWIDTH 538 0
DWIDTH 7 0
BBX 4 8 2 0
BITMAP
F0
20
F0
20
C0
20
10
10
ENDCHAR
STARTCHAR uni20AA
ENCODING 8362
SWIDTH 538 0
DWIDTH 7 0
BBX 7 8 0 0
BITMAP
F2
8A
AA
AA
AA
AA
A2
9E
ENDCHAR
STARTCHAR Euro
ENCODING 8364
SWIDTH 538 0
DWIDTH 7 0
BBX 6 7 1 0
BITMAP
38
44
F0
40
F0
44
38
ENDCHAR
STARTCHAR trademark
ENCODING 8482
SWIDTH 538 0
DWIDTH 7 0
BBX 7 4 0 4
BITMAP
EA
4E
4E
4A
ENDCHAR
STARTCHAR arrowleft
ENCODING 8592
SWIDTH 538 0
DWIDTH 7 0
BBX 7 5 0 1
BITMAP
20
40
FE
40
20
ENDCHAR
STARTCHAR arrowup
ENCODING 8593
SWIDTH 538 0
DWIDTH 7 0
BBX 5 8 1 0
BITMAP
20
70
A8
20
20
20
20
20
ENDCHAR
STARTCHAR arrowright
ENCODING 8594
SWIDTH 538 0
DWIDTH 7 0
BBX 7 5 0 1
BITMAP
08
04
FE
04
08
ENDCHAR
STARTCHAR arrowdown
ENCODING 8595
SWIDTH 538 0
DWIDTH 7 0
BBX 5 8 1 0
BITMAP
20
20
20
20
20
A8
70
20
ENDCHAR
STARTCHAR arrowboth
ENCODING 8596
SWIDTH 538 0
DWIDTH 7 0
BBX 7 5 0 1
BITMAP
28
44
FE
44
28
ENDCHAR
STARTCHAR arrowupdn
ENCODING 8597
SWIDTH 538 0
DWIDTH 7 0
BBX 5 8 1 0
BITMAP
20
70
A8
20
20
A8
70
20
ENDCHAR
STARTCHAR carriagereturn
ENCODING 8629
SWIDTH 538 0
DWIDTH 7 0
BBX 7 6 0 1
BITMAP
02
22
42
FE
40
20
ENDCHAR
STARTCHAR uni21CB
ENCODING 8651
SWIDTH 538 0
DWIDTH 7 0
BBX 7 7 0 0
BITMAP
20
40
FE
00
FE
04
08
ENDCHAR
STARTCHAR uni21CC
ENCODING 8652
SWIDTH 538 0
DWIDTH 7 0
BBX 7 7 0 0
BITMAP
08
04
FE
00
FE
40
20
ENDCHAR
STARTCHAR uni21EA
ENCODING 8682
SWIDTH 1000 0
DWIDTH 7 0
BBX 5 8 1 0
BITMAP
20
50
D8
50
50
70
00
70
ENDCHAR
STARTCHAR universal
ENCODING 8704
SWIDTH 538 0
DWIDTH 7 0
BBX 5 8 1 0
BITMAP
88
88
88
F8
88
88
88
70
ENDCHAR
STARTCHAR uni2201
ENCODING 8705
SWIDTH 538 0
DWIDTH 7 0
BBX 5 8 1 0
BITMAP
70
88
80
80
80
80
88
70
ENDCHAR
STARTCHAR partialdiff
ENCODING 8706
SWIDTH 538 0
DWIDTH 7 0
BBX 7 7 0 0
BITMAP
20
40
FE
00
FE
04
08
ENDCHAR
STARTCHAR existential
ENCODING 8707
SWIDTH 538 0
DWIDTH 7 0
BBX 5 8 1 0
BITMAP
F8
08
08
78
08
08
08
F8
ENDCHAR
STARTCHAR uni2204
ENCODING 8708
SWIDTH 538 0
DWIDTH 7 0
BBX 5 10 1 -1
BITMAP
08
00
10
20
00
20
40
40
00
80
ENDCHAR
STARTCHAR emptyset
ENCODING 8709
SWIDTH 538 0
DWIDTH 7 0
BBX 7 8 0 0
BITMAP
3A
44
8A
92
A2
C2
44
B8
ENDCHAR
STARTCHAR Delta
ENCODING 8710
SWIDTH 538 0
DWIDTH 7 0
BBX 5 8 1 0
BITMAP
20
20
50
50
50
88
88
F8
ENDCHAR
STARTCHAR gradient
ENCODING 8711
SWIDTH 538 0
DWIDTH 7 0
BBX 5 8 1 0
BITMAP
F8
88
88
50
50
50
20
20
ENDCHAR
STARTCHAR element
ENCODING 8712
SWIDTH 538 0
DWIDTH 7 0
BBX 6 7 0 0
BITMAP
3C
40
80
FC
80
40
3C
ENDCHAR
STARTCHAR notelement
ENCODING 8713
SWIDTH 538 0
DWIDTH 7 0
BBX 6 8 0 0
BITMAP
04
00
08
10
00
20
00
80
ENDCHAR
STARTCHAR uni220A
ENCODING 8714
SWIDTH 538 0
DWIDTH 7 0
BBX 5 5 1 1
BITMAP
78
80
F8
80
78
ENDCHAR
STARTCHAR suchthat
ENCODING 8715
SWIDTH 538 0
DWIDTH 7 0
BBX 6 7 0 0
BITMAP
F0
08
04
FC
04
08
F0
ENDCHAR
STARTCHAR uni220C
ENCODING 8716
SWIDTH 538 0
DWIDTH 7 0
BBX 5 6 1 1
BITMAP
08
00
20
00
40
80
ENDCHAR
STARTCHAR uni220D
ENCODING 8717
SWIDTH 538 0
DWIDTH 7 0
BBX 5 5 1 1
BITMAP
F0
08
F8
08
F0
ENDCHAR
STARTCHAR product
ENCODING 8719
SWIDTH 7 0
DWIDTH 7 0
BBX 5 8 1 0
BITMAP
F8
88
88
88
88
88
88
88
ENDCHAR
STARTCHAR uni2210
ENCODING 8720
SWIDTH 7 0
DWIDTH 7 0
BBX 5 8 1 0
BITMAP
88
88
88
88
88
88
88
F8
ENDCHAR
STARTCHAR summation
ENCODING 8721
SWIDTH 7 0
DWIDTH 7 0
BBX 5 8 1 0
BITMAP
F8
80
40
20
20
40
80
F8
ENDCHAR
STARTCHAR minus
ENCODING 8722
SWIDTH 7 0
DWIDTH 7 0
BBX 3 1 2 3
BITMAP
E0
ENDCHAR
STARTCHAR uni2213
ENCODING 8723
SWIDTH 7 0
DWIDTH 7 0
BBX 5 7 1 0
BITMAP
F8
00
20
20
F8
20
20
ENDCHAR
STARTCHAR uni2214
ENCODING 8724
SWIDTH 7 0
DWIDTH 7 0
BBX 5 7 1 1
BITMAP
20
00
20
20
F8
20
20
ENDCHAR
STARTCHAR asteriskmath
ENCODING 8727
SWIDTH 7 0
DWIDTH 7 0
BBX 5 5 1 1
BITMAP
20
A8
70
A8
20
ENDCHAR
STARTCHAR uni2218
ENCODING 8728
SWIDTH 7 0
DWIDTH 7 0
BBX 3 3 2 2
BITMAP
40
A0
40
ENDCHAR
STARTCHAR uni2219
ENCODING 8729
SWIDTH 1000 0
DWIDTH 7 0
BBX 1 2 3 3
BITMAP
80
80
ENDCHAR
STARTCHAR proportional
ENCODING 8733
SWIDTH 1000 0
DWIDTH 7 0
BBX 6 4 0 2
BITMAP
6C
90
90
6C
ENDCHAR
STARTCHAR infinity
ENCODING 8734
SWIDTH 1000 0
DWIDTH 7 0
BBX 7 4 0 2
BITMAP
6C
92
92
6C
ENDCHAR
STARTCHAR logicaland
ENCODING 8743
SWIDTH 1000 0
DWIDTH 7 0
BBX 5 6 1 0
BITMAP
20
20
50
50
88
88
ENDCHAR
STARTCHAR logicalor
ENCODING 8744
SWIDTH 1000 0
DWIDTH 7 0
BBX 5 6 1 0
BITMAP
88
88
50
50
20
20
ENDCHAR
STARTCHAR intersection
ENCODING 8745
SWIDTH 1000 0
DWIDTH 7 0
BBX 5 6 1 0
BITMAP
70
88
88
88
88
88
ENDCHAR
STARTCHAR union
ENCODING 8746
SWIDTH 1000 0
DWIDTH 7 0
BBX 5 6 1 0
BITMAP
88
88
88
88
88
70
ENDCHAR
STARTCHAR integral
ENCODING 8747
SWIDTH 1000 0
DWIDTH 7 0
BBX 5 11 1 -2
BITMAP
18
20
20
20
20
20
20
20
20
20
C0
ENDCHAR
STARTCHAR uni222C
ENCODING 8748
SWIDTH 1000 0
DWIDTH 7 0
BBX 7 10 0 -1
BITMAP
14
2A
28
28
28
28
28
28
A8
50
ENDCHAR
STARTCHAR uni222D
ENCODING 8749
SWIDTH 1000 0
DWIDTH 7 0
BBX 7 10 0 -1
BITMAP
2A
54
54
54
54
54
54
54
54
A8
ENDCHAR
STARTCHAR uni222E
ENCODING 8750
SWIDTH 1000 0
DWIDTH 7 0
BBX 5 11 1 -2
BITMAP
10
28
20
20
70
A8
70
20
20
A0
40
ENDCHAR
STARTCHAR uni222F
ENCODING 8751
SWIDTH 1000 0
DWIDTH 7 0
BBX 7 10 0 -1
BITMAP
14
2A
28
28
7C
AA
7C
28
A8
50
ENDCHAR
STARTCHAR uni2230
ENCODING 8752
SWIDTH 1000 0
DWIDTH 7 0
BBX 7 10 0 -1
BITMAP
2A
54
54
54
7C
D6
7C
54
54
A8
ENDCHAR
STARTCHAR therefore
ENCODING 8756
SWIDTH 1000 0
DWIDTH 7 0
BBX 5 6 1 0
BITMAP
20
20
00
00
88
88
ENDCHAR
STARTCHAR uni2235
ENCODING 8757
SWIDTH 1000 0
DWIDTH 7 0
BBX 5 6 1 0
BITMAP
88
88
00
00
20
20
ENDCHAR
STARTCHAR uni2236
ENCODING 8758
SWIDTH 1000 0
DWIDTH 7 0
BBX 1 6 3 0
BITMAP
80
80
00
00
80
80
ENDCHAR
STARTCHAR uni2237
ENCODING 8759
SWIDTH 1000 0
DWIDTH 7 0
BBX 5 6 1 0
BITMAP
88
88
00
00
88
88
ENDCHAR
STARTCHAR uni2241
ENCODING 8769
SWIDTH 538 0
DWIDTH 7 0
BBX 6 4 1 2
BITMAP
20
64
B8
20
ENDCHAR
STARTCHAR notequal
ENCODING 8800
SWIDTH 1000 0
DWIDTH 7 0
BBX 5 5 1 1
BITMAP
20
F8
20
F8
20
ENDCHAR
STARTCHAR equivalence
ENCODING 8801
SWIDTH 1000 0
DWIDTH 7 0
BBX 5 5 1 2
BITMAP
F8
00
F8
00
F8
ENDCHAR
STARTCHAR uni2262
ENCODING 8802
SWIDTH 1000 0
DWIDTH 7 0
BBX 5 7 1 1
BITMAP
20
F8
20
F8
20
F8
20
ENDCHAR
STARTCHAR uni2263
ENCODING 8803
SWIDTH 1000 0
DWIDTH 7 0
BBX 5 7 1 1
BITMAP
F8
00
F8
00
F8
00
F8
ENDCHAR
STARTCHAR lessequal
ENCODING 8804
SWIDTH 538 0
DWIDTH 7 0
BBX 5 7 1 0
BITMAP
18
60
80
60
18
00
F8
ENDCHAR
STARTCHAR greaterequal
ENCODING 8805
SWIDTH 538 0
DWIDTH 7 0
BBX 5 7 1 0
BITMAP
C0
30
08
30
C0
00
F8
ENDCHAR
STARTCHAR propersubset
ENCODING 8834
SWIDTH 538 0
DWIDTH 7 0
BBX 7 5 0 1
BITMAP
7E
80
80
80
7E
ENDCHAR
STARTCHAR propersuperset
ENCODING 8835
SWIDTH 538 0
DWIDTH 7 0
BBX 7 5 0 1
BITMAP
FC
02
02
02
FC
ENDCHAR
STARTCHAR notsubset
ENCODING 8836
SWIDTH 538 0
DWIDTH 7 0
BBX 7 8 0 0
BITMAP
02
04
7E
88
90
A0
7E
80
ENDCHAR
STARTCHAR uni2285
ENCODING 8837
SWIDTH 538 0
DWIDTH 7 0
BBX 7 7 0 0
BITMAP
02
FC
0A
12
22
FC
80
ENDCHAR
STARTCHAR reflexsubset
ENCODING 8838
SWIDTH 538 0
DWIDTH 7 0
BBX 7 6 0 0
BITMAP
7E
80
80
7E
00
FE
ENDCHAR
STARTCHAR reflexsuperset
ENCODING 8839
SWIDTH 538 0
DWIDTH 7 0
BBX 7 6 0 0
BITMAP
FC
02
02
FC
00
FE
ENDCHAR
STARTCHAR uni2288
ENCODING 8840
SWIDTH 538 0
DWIDTH 7 0
BBX 7 7 0 0
BITMAP
02
7E
88
90
7E
40
FE
ENDCHAR
STARTCHAR uni2289
ENCODING 8841
SWIDTH 538 0
DWIDTH 7 0
BBX 7 7 0 0
BITMAP
02
FC
0A
12
FC
40
FE
ENDCHAR
STARTCHAR uni228A
ENCODING 8842
SWIDTH 538 0
DWIDTH 7 0
BBX 7 7 0 -1
BITMAP
7E
80
80
7E
10
FE
20
ENDCHAR
STARTCHAR uni228B
ENCODING 8843
SWIDTH 538 0
DWIDTH 7 0
BBX 7 7 0 -1
BITMAP
FC
02
02
FC
10
FE
20
ENDCHAR
STARTCHAR uniFB00
ENCODING 64256
SWIDTH 1000 0
DWIDTH 7 0
BBX 7 9 0 0
BITMAP
36
48
48
FE
48
48
48
48
48
ENDCHAR
STARTCHAR uniFB01
ENCODING 64257
SWIDTH 1000 0
DWIDTH 7 0
BBX 5 9 1 0
BITMAP
38
40
40
F8
48
48
48
48
48
ENDCHAR
STARTCHAR uniFB02
ENCODING 64258
SWIDTH 1000 0
DWIDTH 7 0
BBX 5 9 1 0
BITMAP
38
48
48
F8
48
48
48
48
48
ENDCHAR
STARTCHAR uniFB03
ENCODING 64259
SWIDTH 1000 0
DWIDTH 7 0
BBX 7 9 0 0
BITMAP
6E
90
90
90
FE
92
92
92
92
ENDCHAR
STARTCHAR uniFB04
ENCODING 64260
SWIDTH 1000 0
DWIDTH 7 0
BBX 7 9 0 0
BITMAP
36
48
48
FE
48
48
48
48
48
ENDCHAR
STARTCHAR uniFB05
ENCODING 64261
SWIDTH 1000 0
DWIDTH 7 0
BBX 7 9 0 0
BITMAP
36
48
48
FE
48
48
48
48
48
ENDCHAR
STARTCHAR uniFB06
ENCODING 64262
SWIDTH 1000 0
DWIDTH 7 0
BBX 7 8 0 0
BITMAP
08
08
7E
88
68
18
08
F6
ENDCHAR
ENDFONT
